<?xml version="1.0" encoding="utf-8"?>
<!-- Generator: Adobe Illustrator 16.0.0, SVG Export Plug-In . SVG Version: 6.00 Build 0)  -->
<!DOCTYPE svg PUBLIC "-//W3C//DTD SVG 1.1//EN" "http://www.w3.org/Graphics/SVG/1.1/DTD/svg11.dtd">
<svg version="1.1" id="Ebene_1" xmlns="http://www.w3.org/2000/svg" xmlns:xlink="http://www.w3.org/1999/xlink" x="0px" y="0px"
	 width="558px" height="562px" viewBox="0 0 558 562" enable-background="new 0 0 558 562" xml:space="preserve">
<g>
	<g>
		<g>
			<g>
				<g>
					<path fill="#38404C" d="M356.109,223.034c3.977,18.773,5.984,41.085,5.984,66.962c0,93.831-26.229,141.039-78.098,141.039
						c-35.381,0-58.821-21.988-70.154-65.734l-55.114,55.113c4.135,8.377,8.779,16.197,13.954,23.442
						c26.225,36.716,62.943,54.782,111.314,54.782c48.373,0,85.09-18.066,111.314-54.782c26.227-36.716,39.049-88.004,39.049-153.86
						c0-49.473-7.236-90.393-21.955-123.256L356.109,223.034z"/>
				</g>
			</g>
		</g>
	</g>
	<g>
		<g>
			
				<rect x="281.99" y="-87.827" transform="matrix(0.7068 0.7074 -0.7074 0.7068 289.4294 -116.2914)" fill="#38404C" width="6.02" height="757.654"/>
			<g>
				<g>
					<g>
						<path fill="#38404C" d="M208.034,365.819v-45.845h39.631l2.385,3.83l151.533-151.533
							c-11.865-51.794-54.158-84.253-120.697-84.253H132.27v353.564L208.034,365.819z M208.034,157.955h73.433
							c32.055,0,47.789,15.153,47.789,46.041c0,30.89-15.734,46.042-47.789,46.042h-73.433V157.955z"/>
					</g>
				</g>
			</g>
		</g>
	</g>
</g>
</svg>
