<?xml version="1.0" encoding="utf-8"?>
<!-- Generator: Adobe Illustrator 16.0.0, SVG Export Plug-In . SVG Version: 6.00 Build 0)  -->
<!DOCTYPE svg PUBLIC "-//W3C//DTD SVG 1.1//EN" "http://www.w3.org/Graphics/SVG/1.1/DTD/svg11.dtd">
<svg version="1.1" id="Ebene_1" xmlns="http://www.w3.org/2000/svg" xmlns:xlink="http://www.w3.org/1999/xlink" x="0px" y="0px"
	 width="558px" height="562px" viewBox="0 0 558 562" enable-background="new 0 0 558 562" xml:space="preserve">
<g>
	<g>
		<g>
			<path fill="#38404C" d="M200.44,369.458c-11.551-21.567-17.467-48.687-17.467-81.412c0-44.876,11.074-79.262,32.637-103.156
				c22.146-23.895,50.12-35.551,83.341-35.551c36.373,0,63.937,12.899,83.177,38.432l52.528-52.528
				c-30.407-36.144-77.042-55.839-135.705-55.839c-54.2,0-99.659,18.649-136.958,55.365s-55.949,88.004-55.949,153.277
				c0,55.367,13.425,100.665,40.261,135.548L200.44,369.458z"/>
		</g>
	</g>
	
		<rect x="282.989" y="-91.785" transform="matrix(0.7068 0.7074 -0.7074 0.7068 286.8996 -118.1589)" fill="#38404C" width="6.02" height="757.655"/>
	<g>
		<g>
			<g>
				<path fill="#38404C" d="M357.11,219.076c3.977,18.773,5.982,41.085,5.982,66.963c0,93.831-26.227,141.039-78.097,141.039
					c-35.382,0-58.821-21.986-70.154-65.734l-55.115,55.113c4.136,8.378,8.779,16.199,13.955,23.443
					c26.225,36.715,62.941,54.782,111.313,54.782c48.373,0,85.091-18.067,111.315-54.782
					c26.227-36.718,39.047-88.005,39.047-153.861c0-49.473-7.236-90.393-21.954-123.257L357.11,219.076z"/>
			</g>
		</g>
	</g>
</g>
</svg>
