<?xml version="1.0" encoding="utf-8"?>
<!-- Generator: Adobe Illustrator 16.0.0, SVG Export Plug-In . SVG Version: 6.00 Build 0)  -->
<!DOCTYPE svg PUBLIC "-//W3C//DTD SVG 1.1//EN" "http://www.w3.org/Graphics/SVG/1.1/DTD/svg11.dtd">
<svg version="1.1" id="Ebene_1" xmlns="http://www.w3.org/2000/svg" xmlns:xlink="http://www.w3.org/1999/xlink" x="0px" y="0px"
	 width="558px" height="562px" viewBox="0 0 558 562" enable-background="new 0 0 558 562" xml:space="preserve">
<g>
	
		<rect x="283.989" y="-87.827" transform="matrix(0.7069 0.7074 -0.7074 0.7069 289.9685 -117.7057)" fill="#38404C" width="6.019" height="757.654"/>
	<g>
		<g>
			<g>
				<path fill="#38404C" d="M358.109,223.034c3.977,18.773,5.983,41.085,5.983,66.962c0,93.832-26.227,141.039-78.097,141.039
					c-35.382,0-58.821-21.986-70.154-65.734l-55.114,55.113c4.136,8.378,8.779,16.199,13.955,23.443
					c26.225,36.716,62.942,54.782,111.314,54.782c48.373,0,85.09-18.066,111.315-54.782c26.226-36.718,39.048-88.004,39.048-153.861
					c0-49.472-7.236-90.392-21.955-123.256L358.109,223.034z"/>
			</g>
			<g>
				<polygon fill="#38404C" points="451.598,123.259 463.428,88.023 379.504,88.023 332.824,242.032 				"/>
				<polygon fill="#38404C" points="264.033,310.824 196.504,88.023 112.58,88.023 206.644,368.213 				"/>
			</g>
		</g>
	</g>
</g>
</svg>
