<?xml version="1.0" encoding="utf-8"?>
<!-- Generator: Adobe Illustrator 16.0.0, SVG Export Plug-In . SVG Version: 6.00 Build 0)  -->
<!DOCTYPE svg PUBLIC "-//W3C//DTD SVG 1.1//EN" "http://www.w3.org/Graphics/SVG/1.1/DTD/svg11.dtd">
<svg version="1.1" id="Ebene_1" xmlns="http://www.w3.org/2000/svg" xmlns:xlink="http://www.w3.org/1999/xlink" x="0px" y="0px"
	 width="558px" height="562px" viewBox="0 0 558 562" enable-background="new 0 0 558 562" xml:space="preserve">
<g>
	<g>
		<g>
			<path fill="#38404C" d="M223.021,351.835v-15.538h15.538l70.589-70.589c-3.445,0.426-7.086,0.651-10.945,0.651h-75.182v-108.4
				h75.182c35.552,0,53.618,18.066,53.618,54.201c0,4.098-0.245,7.951-0.708,11.584l67.465-67.465
				c-17.49-42.429-57.293-68.257-117.461-68.257H147.257V427.6L223.021,351.835z"/>
		</g>
	</g>
	
		<rect x="283.989" y="-87.828" transform="matrix(0.7068 0.7074 -0.7074 0.7068 290.0153 -117.7058)" fill="#38404C" width="6.02" height="757.655"/>
	<g>
		<g>
			<g>
				<path fill="#38404C" d="M358.11,223.033c3.977,18.773,5.982,41.085,5.982,66.963c0,93.831-26.227,141.039-78.096,141.039
					c-35.383,0-58.822-21.986-70.155-65.734l-55.114,55.113c4.135,8.378,8.779,16.199,13.955,23.443
					c26.225,36.715,62.942,54.782,111.315,54.782c48.371,0,85.089-18.067,111.314-54.782
					c26.227-36.718,39.047-88.005,39.047-153.861c0-49.473-7.236-90.393-21.954-123.257L358.11,223.033z"/>
			</g>
		</g>
	</g>
</g>
</svg>
