<?xml version="1.0" encoding="utf-8"?>
<!-- Generator: Adobe Illustrator 16.0.0, SVG Export Plug-In . SVG Version: 6.00 Build 0)  -->
<!DOCTYPE svg PUBLIC "-//W3C//DTD SVG 1.1//EN" "http://www.w3.org/Graphics/SVG/1.1/DTD/svg11.dtd">
<svg version="1.1" id="Ebene_1" xmlns="http://www.w3.org/2000/svg" xmlns:xlink="http://www.w3.org/1999/xlink" x="0px" y="0px"
	 width="500px" height="500px" viewBox="0 0 500 500" enable-background="new 0 0 500 500" xml:space="preserve">
<g>
	<path fill-rule="evenodd" clip-rule="evenodd" fill="#38404C" d="M268.832,202.415c-1.035-0.105-1.725-0.175-2.43-0.248
		c0,0.28-0.121,0.67,0.018,0.82c4.072,4.386,2.812,9.719,3,14.935c0.23,6.39,1.152,12.773,2.078,19.115
		c0.852,5.834,2.121,11.606,3.182,17.41c1.771,9.683,3.652,19.347,5.236,29.058c0.965,5.9-2.074,8.45-7.445,12.414
		c-1.658,1.223-3.645,2.003-5.512,3.004c-4.779-3.588-4.404-3.215-9.051,1.449c-4.643,4.66-10.235,8.363-15.209,12.717
		c-1.535,1.344-3.101,3.315-3.467,5.227c-2.683,14.003-3.104,15.213-17.161,17.679c-9.15,1.604-18.676,2.187-27.952,1.696
		c-13.204-0.696-15.915-3.172-23.704-16.254c-1.47-2.472-2.372-5.352-4.152-7.541c-1.255-1.545-3.468-2.738-5.43-3.08
		c-0.836-0.146-2.428,2.119-3.148,3.555c-2.746,5.471-5.343,11.018-7.861,16.598c-1.306,2.894-2.5,5.862-3.428,8.895
		c-0.979,3.198-2.431,4.007-5.365,1.508c0.761-1.006,1.509-1.996,2.647-3.5c-4.702,1.095-8.751,2.233-12.875,2.958
		c-9.246,1.626-18.134-0.005-26.574-3.839c-1.746-0.792-3.443-2.63-4.234-4.401c-2.035-4.554-4.166-9.22-5.106-14.064
		c-1.071-5.523-5.089-10.024-4.497-16.209c0.333-3.478,1.266-5.093,4.404-5.544c5.545-0.796,11.128-1.355,16.658-2.238
		c1.69-0.27,3.233-1.359,4.901-1.898c0.792-0.255,1.813-0.354,2.568-0.077c2.281,0.833,4.482,1.883,6.714,2.849
		c0.199-0.421,0.4-0.842,0.6-1.264c-0.92-0.537-1.839-1.075-3.043-1.779c6.899-5.648,14.049-3.705,19.957,0.003
		c10.935,6.862,21.674,6.889,33.34,2.667c6.036-2.184,12.527-3.111,18.515-4.535c-0.372-0.34-1.066-0.975-1.762-1.607
		c0.894-0.672,1.738-1.828,2.688-1.924c2.655-0.266,5.355-0.093,9.218-0.093c-1.636,1.442-2.332,2.056-3.186,2.807
		c0.484,0.157,0.866,0.39,1.248,0.39c9.858,0.002,19.848-1.035,29.542,0.217c11.948,1.543,23.19-0.883,34.575-3.178
		c1.162-0.233,2.172-2.266,2.846-3.659c1.402-2.908-0.578-4.075-2.768-4.939c-1.088,1.741-2.113,3.383-3.635,5.82
		c-2.496-13.739-4.861-26.759-7.227-39.777c0.373-0.111,0.746-0.224,1.119-0.335c0.621,1.694,1.242,3.388,1.863,5.083
		c0.268-0.024,0.537-0.049,0.805-0.074c-0.225-1.669-0.072-3.516-0.752-4.971c-1.238-2.649-2.648-5.354-4.57-7.52
		c-4.138-4.667-1.312-11.088-4.474-15.952c-2.128-3.272-3.602-7.01-5.959-10.085c-7.273-9.49-14.613-19.007-25.569-24.687
		c-1.344-0.696-3.017-0.76-4.801-0.13c1.003,0.31,2.006,0.619,3.038,0.938c-0.202,0.525-0.312,1.038-0.41,1.035
		c-6.787-0.162-13.572-0.421-20.36-0.534c-2.362-0.039-4.727,0.326-7.094,0.418c-5.558,0.214-11.116,0.476-16.676,0.517
		c-2.718,0.02-5.444-0.641-8.158-0.587c-4.128,0.082-8.249,0.518-12.607,0.82c-0.399-1.028-0.924-2.385-2.019-5.21
		c-1.027,3.994-1.973,6.531-5.048,4.356c1.731-3.472,3.294-6.604,5.132-10.29c-2.199,0-3.464,0-5.851,0
		c1.157-1.697,1.692-3.424,2.787-3.926c5.915-2.71,11.949-5.171,17.994-7.586c1.202-0.48,2.789-0.846,3.927-0.462
		c2.561,0.862,4.038,0.101,5.938-1.726c1.465-1.409,4.021-2.132,6.164-2.311c10.454-0.866,20.87,0.27,30.955,2.756
		c7.585,1.87,14.908,5.029,22.106,8.168c5.938,2.589,11.644,5.783,17.207,9.12c2.598,1.559,4.922,3.844,6.826,6.234
		C261.773,192.276,265.105,197.246,268.832,202.415z M180.821,298.964c-4.175,0.365-7.556,1.694-8.652,5.712
		c-1.289,4.726-0.745,9.29,2.859,13.126c1.305,1.389,3.093,2.942,3.329,4.609c0.846,5.985,3.44,9.399,9.547,10.52
		c12.384,2.27,24.726,2.172,36.882-1.504c7.889-2.385,10.108-5.884,9.421-13.766c-3.288-1.072-6.696-1.453-9.178-3.17
		c-3.316-2.297-5.916-5.63-8.891-8.584c-4.736,5.838-9.643,6.071-14.19,1.766c-0.776-0.735-2.964-1.371-3.24-1.029
		c-2.901,3.574-6.504,1.656-9.907,1.802c-0.219-1.222-0.396-2.203-0.564-3.149C182.343,305.397,181.096,304.394,180.821,298.964z
		 M123.282,327.183c-0.199-0.644-0.399-1.287-0.599-1.93c4.528-1.41,8.983-3.168,13.604-4.132c4.644-0.97,7.18-7.438,13.044-4.45
		c0.086-4.315-0.952-5.436-7.269-8.208c-1.741,5.877-7.165,8.789-13.571,4.498c-5.913,1.198-10.851,2.294-15.835,3.097
		c-0.664,0.105-1.763-1.146-2.326-1.994c-3.073-4.621-6.851-7.349-12.687-5.247c-0.146,0.053-0.444-0.315-0.835-0.613
		c0.191-0.848,0.399-1.765,0.606-2.681c-0.852,0.959-1.188,2.033-1.317,3.133c-0.885,7.559,1.735,14.313,4.825,20.973
		c1.608,3.466,4.378,5.168,7.969,6.111c9.655,2.537,19.105,2.084,28.725-0.594c5.847-1.627,9.221-4.738,10.094-10.522
		C139.058,319.944,131.633,328.377,123.282,327.183z M202.591,297.239c0,0.377,0,0.753,0.001,1.129
		c-1.121,0.453-2.255,0.877-3.36,1.365c-0.864,0.383-1.693,0.846-2.54,1.273c9.343-3.078,17.952-0.663,26.707,2.138
		c-1.401-1.036-2.801-2.071-4.201-3.106c0.246-0.443,0.493-0.885,0.738-1.327c3.615,2.087,7.197,4.233,10.867,6.216
		c0.899,0.486,2.087,0.439,3.142,0.637c-0.415-1.977-0.149-4.753-1.366-5.787c-4.454-3.791-9.707-5.977-15.821-5.355
		c-5.736,0.582-11.495,0.946-17.23,1.547c-3.421,0.359-6.815,0.988-10.223,1.497c0.062,0.425,0.125,0.851,0.186,1.275
		C193.858,298.239,198.225,297.739,202.591,297.239z M106.219,300.462c10.358,4.545,20.739,4.707,31.149,1.373
		c0.004-0.457,0.008-0.916,0.012-1.373C126.993,300.462,116.605,300.462,106.219,300.462z"/>
	<path fill-rule="evenodd" clip-rule="evenodd" fill="#38404C" d="M127.934,383.208c2.195-0.931,4.375-1.898,6.595-2.771
		c0.677-0.267,1.828-0.64,2.132-0.337c4.641,4.645,8.318,0.103,12.318-1.195c0.716-0.232,1.403-0.555,2.083-0.826
		c2.615,3.884,12.07,3.432,13.827,0.666c8.13,0.644,15.547,1.475,22.984,1.743c6.231,0.224,12.719,1.838,18.546-2.021
		c0.117-0.079,0.301-0.124,0.438-0.101c2.49,0.42,5.01,0.732,7.427,1.408c0.363,0.102,0.426,2.783,0.329,2.802
		c-2.28,0.462-4.602,0.724-6.917,1.019c-1.928,0.245-3.852,0.54-5.786,0.718c-6.153,0.568-12.391,1.973-18.45,1.431
		c-9.498-0.85-18.71,0.286-27.996,1.582c-1.025,0.143-2.098,0.268-3.114,0.132c-5.458-0.726-9.965,1.06-13.919,5.192
		c-3.458-3.185-6.925-6.379-10.395-9.574L127.934,383.208z"/>
	<path fill-rule="evenodd" clip-rule="evenodd" fill="#38404C" d="M187.803,352.093c-1.516,3.014-4.252,4.223-7.911,3.342
		c-2.35-0.565-4.604-1.536-6.958-2.066c-3.262-0.734-6.01-0.792-7.64,3.326c-1.537,3.88-5.841,4.523-9.492,2.011
		c-2.955,2.292-5.905,5.866-10.123,3.063c-2.041-1.356-3.9-3.722-4.69-6.025c-0.825-2.406,1.771-3.445,3.317-5.14
		c4.581-5.019,8.084-0.831,12.051-0.354c3.02,0.361,6.794,1.499,8.997,0.199c5.354-3.162,10.09-1.994,15.201-0.17
		C182.816,351.087,185.231,351.465,187.803,352.093z"/>
	<path fill-rule="evenodd" clip-rule="evenodd" fill="#38404C" d="M115.537,217.251c2.305-7.974,4.381-16.027,7.066-23.871
		c0.725-2.118,2.992-4.377,5.091-5.21c3.896-1.547,8.159-2.59,12.331-2.854c2.265-0.144,3.766,2.076,2.514,4.933
		c-2.724,6.214-8.03,10.738-13.638,12.569c-6.098,1.991-7.345,6.523-10.034,10.631c-0.955,1.461-2.003,2.863-3.009,4.292
		C115.751,217.578,115.644,217.415,115.537,217.251z"/>
	<path fill-rule="evenodd" clip-rule="evenodd" fill="#38404C" d="M149.001,403.152c5.539-1.042,10.811-2.267,16.152-2.928
		c2.252-0.278,4.652,0.63,6.986,1c0.014,0.458,0.029,0.917,0.044,1.375c-0.782,0.57-1.485,1.405-2.359,1.666
		c-5.11,1.521-10.281,2.842-15.391,4.363c-3.541,1.055-5.669,0.621-5.037-3.805C149.509,404.049,149.01,403.186,149.001,403.152z"/>
	<path fill-rule="evenodd" clip-rule="evenodd" fill="#38404C" d="M252.66,375.925c3.592,6.772,0.164,11.361-3,15.951
		c-0.419,0.608-1.831,0.922-2.634,0.734c-0.506-0.117-1.236-1.638-1.01-2.16C248.125,385.562,250.419,380.755,252.66,375.925z"/>
	<path fill-rule="evenodd" clip-rule="evenodd" fill="#38404C" d="M292.047,306.396c-4.674-7.879-7.783-8.396-15.104-2.827
		c2.426-2.489,4.562-5.398,7.369-7.336c2.314-1.598,5.17-1.023,6.139,2.268C291.207,301.067,291.531,303.76,292.047,306.396z"/>
	<path fill-rule="evenodd" clip-rule="evenodd" fill="#38404C" d="M130.856,407.213c-1.344-2.807-2.688-5.615-4.224-8.824
		C131.563,398.92,132.952,401.561,130.856,407.213z"/>
	<path fill-rule="evenodd" clip-rule="evenodd" fill="#38404C" d="M128.037,383.075c-2.064-0.025-4.632,0.702-6.07-0.26
		c-2-1.338-3.066-3.926,0.435-4.963c1.999,1.941,3.761,3.655,5.526,5.362C127.934,383.208,128.037,383.075,128.037,383.075z"/>
	<path fill-rule="evenodd" clip-rule="evenodd" fill="#38404C" d="M278.055,321.276c-2.541-1.573-6.822-2.305-3.887-7.08
		C278.664,314.729,277.135,318.708,278.055,321.276z"/>
	<path fill-rule="evenodd" clip-rule="evenodd" fill="#38404C" d="M264.771,368.772c-1.109,3.001-2.217,6.001-3.324,9.001
		c-0.396-0.133-0.791-0.267-1.188-0.399c1.043-3.041,2.086-6.082,3.131-9.124C263.85,368.425,264.311,368.599,264.771,368.772z"/>
	<path fill-rule="evenodd" clip-rule="evenodd" fill="#38404C" d="M220.033,318.382c-8.324-0.856-16.505-1.698-24.686-2.539
		c-0.023,0.402-0.046,0.807-0.071,1.211C203.284,319.368,211.35,321.027,220.033,318.382z"/>
	<path fill-rule="evenodd" clip-rule="evenodd" fill="#38404C" d="M220.033,318.382c-8.683,2.646-16.749,0.986-24.757-1.328
		c0.025-0.404,0.048-0.809,0.071-1.211C203.528,316.684,211.708,317.525,220.033,318.382z"/>
	<path fill-rule="evenodd" clip-rule="evenodd" fill="#38404C" d="M0,501h334.793c7.84-16.626,16.15-33.067,16.15-52.636
		c-21.475-8.878-72.729-28.962-94.203-37.841c-0.268,0.4-0.537,0.799-0.803,1.199c1.357,1.217,2.639,2.537,4.092,3.629
		c4.217,3.172,7.537,7.139,7.02,12.561c-0.809,8.456-2.145,17.127-7.951,23.768c-20.519,23.474-46.072,34.497-77.45,29.826
		c-5.204-0.774-10.227-2.761-15.333-4.188c0.007-0.566,0.014-1.131,0.021-1.697c1.282-0.888,2.454-2.247,3.865-2.573
		c4.083-0.943,8.283-1.364,12.399-2.184c8.552-1.706,17.159-3.234,25.578-5.462c3.47-0.918,7.204-2.8,9.615-5.372
		c5.671-6.049,11.034-12.338,13.849-20.602c1.36-3.992,5.086-7.247,7.979-10.632c2.973-3.477,2.887-4.963-0.517-7.261
		c-2.807-1.894-5.364-4.153-8.032-6.251c-0.381-0.491-2.179,0.967-3.408,0.586c-5.309-1.645-8.684,1.418-12.042,4.412
		c-2.51,2.238-4.632,4.904-6.978,7.332c-0.471,0.486-1.254,0.664-1.749,1.136c-4.621,4.394-10.823,4.756-16.505,6.19
		c-4.437,1.12-9.159,1.695-13.724,1.55c-4.862-0.153-9.692-1.426-14.527-2.249c-0.869-0.148-2.048-0.217-2.502-0.786
		c-3.991-5-9.202-5.525-15.034-4.681c-1.083,0.157-2.743-0.93-3.521-1.925c-2.165-2.763-4.005-5.779-5.973-8.694
		c-0.435,0.243-0.868,0.486-1.302,0.729c3.224,6.525,6.447,13.051,9.669,19.577c-0.356,0.242-0.713,0.485-1.069,0.729
		c-1.322-0.565-2.643-1.131-4.02-1.721c-2.597,3.771-5.181,7.522-7.893,11.461c-3.694-1.279-6.771-4.031-8.31-8.29
		c-1.746-4.835-3.528-9.67-4.946-14.605c-1.293-4.498-0.572-8.443,4.335-10.623c1.086-0.482,1.945-1.479,2.908-2.238
		c-0.282-0.447-0.562-0.896-0.843-1.346c-4.081,2.383-17.11,8.826-19.304,9.839c-8.667,4-30.915,19.812-34.308,21.13
		c-5.736,2.229-17.987,9.386-18.91,9.681c-18.566,5.944-31.899,14.943-39.233,20.61S0,501,0,501z"/>
	<path fill-rule="evenodd" clip-rule="evenodd" fill="#38404C" d="M400,501H284.373c-0.029-1.262-0.076-2.521-0.162-3.778
		c-0.98-14.046-1.5-28.368-4.812-41.938c-3.236-13.249-12.35-34.283-12.35-35.027c0.408-0.348,21.283,1.341,28.689,4.233
		c18.104,7.064,38.361,13.823,53.836,22.42S400,501,400,501z"/>
</g>
</svg>
