<?xml version="1.0" encoding="utf-8"?>
<!-- Generator: Adobe Illustrator 16.0.0, SVG Export Plug-In . SVG Version: 6.00 Build 0)  -->
<!DOCTYPE svg PUBLIC "-//W3C//DTD SVG 1.1//EN" "http://www.w3.org/Graphics/SVG/1.1/DTD/svg11.dtd">
<svg version="1.1" id="Ebene_1" xmlns="http://www.w3.org/2000/svg" xmlns:xlink="http://www.w3.org/1999/xlink" x="0px" y="0px"
	 width="500px" height="500px" viewBox="0 0 500 500" enable-background="new 0 0 500 500" xml:space="preserve">
<g>
	<g>
		<path fill="#38404C" d="M275.307,427.844c3.897,15.961,4.504,32.812,5.658,49.333c0.503,7.23,0.096,14.531-0.316,21.823H401.08
			c-4.5-16.188-25.979-70.579-43.229-81.005c-12.77-7.718-42.029-18.062-63.324-26.372c-8.715-3.402-20.788-5.754-24.678-17.702
			c-0.478,0.409-0.916,4.751-0.875,5.625c0,0.875,0.318,4.877,0.375,5.75C270.413,400.988,271.496,412.263,275.307,427.844z"/>
		<path fill="#38404C" d="M181.811,454.792c-5.644-15.307-10.859-30.816-17.358-45.758c-7.272-16.722-17.335-32.567-11.112-52.419
			c-3.418,3.146-5.816,6.818-8.891,9.797c-7.219,6.98-13.981,14.896-22.391,20.05c-7.906,4.848-42.959,8.959-77.959,25.959
			C22.625,432.062-4.535,481.026,1.986,499h195.878C192.533,484.257,187.234,469.501,181.811,454.792z"/>
	</g>
	<g>
		<path fill="#38404C" d="M156.691,499c0.148-1.425,0.296-2.851,0.474-4.569c-0.196-0.466-0.779-1.312-0.9-2.221
			c-0.825-6.209-1.542-12.434-2.328-18.648c-0.123-0.967-0.416-1.913-1.126-2.831c0.28,7.782,0.559,15.565,0.84,23.396
			c-2.378,0.5-3.366-0.307-3.592-2.546c-0.628-6.232-1.387-12.452-2.124-18.673c-0.09-0.758-0.363-1.492-1.089-2.18
			c0,5.006,0,10.01,0,15.014c-0.192,0.002-0.385,0.004-0.578,0.005c0-1.501,0-3.004,0-4.956c-0.883,0.706-1.374,1.1-2.025,1.62
			c-1.938-5.798-0.095-12.271-4.477-17.584c2.508-2.229,4.899-4.543,7.483-6.616c3.751-3.007,7.666-5.809,11.458-8.764
			c1.24-0.967,2.088-0.93,3.567-0.12c5.098,2.784,6.407,8.155,9.146,12.554c1.228,1.972,2.467,3.938,3.701,5.907l-0.068-0.075
			c0.703,1.226,1.114,2.875,2.163,3.591c2.944,2.01,6.224,3.519,9.223,5.452c1.362,0.88,2.778,2.107,3.46,3.52
			c1.487,3.08,2.465,6.4,3.759,9.58c0.883,2.169,1.972,4.253,2.922,6.395c0.395,0.89,0.67,1.832,1,2.751c-1.455,0-2.908,0-4.362,0
			c-0.414-1.813-0.827-3.629-1.24-5.443c-0.355,0.082-0.709,0.167-1.064,0.25c0.223,1.732,0.446,3.462,0.668,5.193
			c-1.454,0-2.907,0-4.361,0c-0.693-3.996-0.212-8.28-2.337-11.926c-0.287,0.051-0.572,0.104-0.858,0.153
			c0.338,3.925,0.676,7.85,1.015,11.771c-1.454,0-2.908,0-4.362,0c0.047-5.673-0.408-11.268-1.994-16.688
			c-0.379,0.043-0.758,0.086-1.137,0.129c0.498,5.52,0.997,11.04,1.495,16.559c-1.454,0-2.907,0-4.361,0
			c-0.331-7.849-1.495-15.572-2.872-23.264c-0.272,0.036-0.545,0.068-0.817,0.104c0.502,7.721,1.005,15.44,1.507,23.16
			c-1.272,0-2.544,0-3.816,0c-0.532-9.562-1.781-19.021-4.307-28.319c0.708,9.439,1.417,18.88,2.126,28.319
			c-1.272,0-2.545,0-3.817,0c-0.819-9.698-1.414-19.428-4.083-28.879c0.453,9.626,0.904,19.253,1.356,28.879
			C158.872,499,157.782,499,156.691,499z"/>
		<path fill="#38404C" d="M201.398,499c1.143-1.489,1.997-3.436,3.486-4.38c3.869-2.449,7.964-4.565,12.08-6.59
			c1.649-0.812,3.601-0.99,5.391-1.534c1.604-0.486,3.165-1.116,4.768-1.605c0.648-0.195,1.36-0.184,2.411-0.311
			c1.29-4.46,2.361-9.388,0.547-14.591c0.33-0.035,0.66-0.066,0.99-0.102c0.234,0.672,0.498,1.335,0.693,2.019
			c0.184,0.644,0.295,1.308,0.439,1.963c0.278,0.002,0.558,0.007,0.837,0.01c0.067-1.229,0.321-2.485,0.155-3.684
			c-0.217-1.561-0.165-2.651,1.367-3.701c1.36-0.932,2.243-2.548,3.361-3.841c2.338-2.7,4.692-5.389,7.182-8.244
			c1.886,2.082,3.54,4.479,3.017,7.525c-0.225,1.305-1.604,2.391-2.377,3.625c-0.521,0.835-0.902,1.761-1.346,2.646
			c1.154,0.136,2.656,0.802,3.397,0.312c2.477-1.634,4.843-3.517,6.951-5.605c3.519-3.483,6.799-7.205,10.19-10.817
			c0.229-0.245,0.539-0.413,0.812-0.617c0.229,0.149,0.456,0.3,0.684,0.448c-0.836,1.327-1.398,3.013-2.564,3.914
			c-2.84,2.197-3.594,5.287-4.385,8.443c-0.448,1.791-0.81,3.613-1.385,5.362c-0.182,0.546-0.937,0.902-2.021,1.066
			c0.188-1.909,0.375-3.818,0.562-5.729c-0.143-0.083-0.287-0.166-0.43-0.249c-0.619,0.996-1.521,1.919-1.807,3.004
			c-0.912,3.457-1.586,6.978-2.371,10.47c-0.234,1.042-0.523,2.072-0.803,3.104c-0.416,1.543-0.808,3.095-1.284,4.619
			c-0.41,1.309-1.054,2.557-1.357,3.884c-0.27,1.182-0.215,2.436-0.711,3.643c-1.035-6.521,0.797-12.95,0.203-19.633
			c-0.677,2.182-1.656,4.319-1.973,6.551c-0.877,6.188-1.479,12.415-2.189,18.627c-1.091,0-2.181,0-3.271,0
			c0.24-5.838,0.48-11.677,0.72-17.517c-2.507,5.629-2.92,11.54-2.9,17.517c-1.455,0-2.908,0-4.362,0
			c0.185-3.877,0.369-7.753,0.554-11.63c-0.415-0.027-0.83-0.057-1.245-0.085c-0.315,3.904-0.63,7.81-0.944,11.715
			c-1.455,0-2.908,0-4.362,0c-0.1-1.923-0.199-3.847-0.298-5.769c-0.301,0-0.602,0.001-0.903,0.001
			c-0.146,1.923-0.29,3.846-0.435,5.768C218.118,499,209.757,499,201.398,499z M235.46,481.364c0.314,0.085,0.627,0.169,0.941,0.255
			c0.629-2.718,1.259-5.436,1.888-8.151c-0.335-0.075-0.669-0.147-1.003-0.223C236.677,475.952,236.069,478.657,235.46,481.364z"/>
		<path fill="#38404C" d="M326.795,499c-3.162-11.104-0.599-22.577-2.161-33.785c-0.196-1.42-0.329-2.848-0.928-4.264
			c-0.299,5.87-0.599,11.741-0.909,17.868c-1.283-1.888-1.85-3.345-1.312-5.767c0.59-2.655-0.392-5.665-0.711-8.518
			c-0.676-6.008-1.432-12.008-2.027-18.024c-0.393-3.944-0.562-7.912-0.426-11.931c4.104,6.895,2.984,14.915,5.175,22.278
			c0-2.604,0-5.204,0-7.807c4.965,14.959,5.39,30.394,5.424,45.871c0.004,1.357,0.038,2.717,0.058,4.075
			C328.248,499,327.521,499,326.795,499z"/>
		<path fill="#38404C" d="M331.156,499c-0.76-10.017-1.52-20.033-2.277-30.05c0.237-0.024,0.477-0.048,0.714-0.073
			c4.089,9.636,3.388,20.002,4.289,30.123C332.975,499,332.064,499,331.156,499z"/>
		<path fill="#38404C" d="M91.267,499c0.022-3.26-0.146-6.536,0.111-9.777c0.325-4.075,1.004-8.124,1.518-12.185
			c0.303-2.4,0.58-4.804,1.414-7.212c-0.287,9.724-0.574,19.449-0.861,29.174C92.721,499,91.994,499,91.267,499z"/>
		<path fill="#38404C" d="M45.47,499c0.183-4.341,0.186-8.7,0.607-13.018c0.327-3.348,1.176-6.645,2.119-9.875
			c0,7.631,0,15.262,0,22.893C47.287,499,46.378,499,45.47,499z"/>
		<path fill="#38404C" d="M355.689,499c0-5.177,0-10.356,0-15.533c0.269-0.014,0.535-0.027,0.804-0.043
			c2.751,4.849,1.459,10.417,2.469,15.576C357.871,499,356.78,499,355.689,499z"/>
		<path fill="#38404C" d="M258.645,499c0.051-1.526,0.148-3.053,0.146-4.578c-0.003-1.979,0.97-3.126,3.126-3.796
			c0,2.923,0,5.648,0,8.374C260.825,499,259.734,499,258.645,499z"/>
		<path fill="#38404C" d="M335.518,499c0-2.011,0-4.02,0-6.029c0.321-0.083,0.644-0.166,0.963-0.249
			c0.588,2.095,1.178,4.186,1.765,6.278C337.335,499,336.427,499,335.518,499z"/>
		<path fill="#38404C" d="M300.08,499c0.199-1.431,0.347-2.871,0.622-4.286c0.123-0.636,0.434-1.271,0.815-1.794
			c0.096-0.129,1.104,0.104,1.155,0.306c0.159,0.637,0.229,1.391,0.033,2.003c-0.411,1.29-1.013,2.518-1.537,3.771
			C300.807,499,300.443,499,300.08,499z"/>
		<path fill="#38404C" d="M215.737,327.27c0.483-0.704,1.151-1.346,1.417-2.126c1.042-3.048,5.418-6.653,8.635-6.557
			c1.251,0.038,3.111,0.752,3.545,1.69c0.542,1.174,0.147,2.987-0.357,4.333c-0.183,0.486-1.838,0.53-2.831,0.585
			c-1.65,0.09-3.311,0.023-5.934,0.023c1.465,2.694,2.549,4.691,3.642,6.685c0.084,0.154,0.258,0.398,0.356,0.385
			c2.578-0.404,4.534,0.798,6.468,2.289c0.768,0.591,1.959,0.604,2.807,1.129c1.714,1.055,3.304,1.276,5.359,0.742
			c1.842-0.479,4.165-0.527,5.875,0.189c3.44,1.447,7.668,2.223,8.901,6.634c0.562,2.011,1.473,4.314,0.981,6.152
			c-1.391,5.199-7.352,6.902-10.873,2.777c-2.998-3.511-6.562-3.646-10.186-3.6c-13.367,0.17-26.653-0.451-39.867-2.6
			c-1.646-0.268-3.464,0.497-5.196,0.821c-0.344,0.063-0.675,0.462-0.979,0.429c-4.233-0.484-7.241,1.967-10.586,3.971
			c-2.129,1.275-4.919,1.447-7.104,2.031c-2.629-4.803-0.521-9.021,0.253-13.239c0.194-1.058,1.724-1.939,2.757-2.759
			c2.51-1.988,4.852-4.337,8.378-4.427c0.449-0.012,1.056-0.316,1.322-0.121c3.763,2.76,7.269-0.302,10.88-0.534
			c0.72-0.047,1.456-1.384,1.997-2.244c0.581-0.925,0.724-2.576,1.451-2.846c0.987-0.363,2.348,0.286,4.329,0.643
			c-0.59-0.891-0.908-1.83-1.563-2.272c-2.019-1.363-4.069-2.77-6.299-3.694c-1.417-0.587-3.205-0.602-4.771-0.412
			c-1.487,0.182-2.867,1.229-4.355,1.418c-2.703,0.34-3.916-1.357-2.823-3.857c1.044-2.39,2.418-4.633,3.446-7.028
			c0.346-0.804,0.446-2.117,0.016-2.778c-1.451-2.229-0.821-3.304,1.571-3.847c0.469-0.105,0.888-0.43,1.853-0.917
			c-2.193,0-3.771-0.041-5.346,0.008c-8.395,0.263-16.686-0.255-24.816-2.641c-3.825-1.12-6.356-3.366-7.577-7.109
			c-0.899-2.762-2.041-5.488-2.527-8.324c-0.778-4.535-4.11-6.146-7.754-7.472c-0.458-0.166-1.726,0.632-1.903,1.204
			c-0.478,1.539-0.608,3.194-0.807,4.812c-0.573,4.683-1.094,9.369-1.695,14.049c-0.054,0.419-0.616,0.748-0.8,1.179
			c-0.453,1.057-1.03,2.132-1.124,3.236c-0.037,0.445,1.057,0.986,2.014,1.811c-0.274,3.06-0.585,6.535-0.896,10.012
			c-0.154,0.004-0.308,0.006-0.462,0.009c-0.116-0.884-0.231-1.77-0.351-2.651c-0.272-2.017-0.965-3.435-2.934-4.737
			c-3.692-2.44-5.171-6.25-4.768-10.853c0.304-3.478,0.06-7.003-0.317-10.521c-3.58,2.965-2.823,7.289-4.117,10.879
			c-0.42-0.508-0.847-1.024-1.274-1.543c-0.253,0.084-0.506,0.168-0.76,0.25c0.87,11.577,4.398,22.578,8.126,33.767
			c-2.31-0.001-3.217-1.607-3.781-3.094c-1.892-5-5.309-8.425-10.214-10.321c-4.902-1.896-6.702-6.035-7.47-10.603
			c-1.108-6.589-1.717-13.262-2.559-19.896c-0.215-1.695-0.373-3.413-0.782-5.064c-2.018-8.135,1.173-15.238,4.474-22.258
			c1.058-2.251,3.054-4.045,4.271-6.242c2.284-4.119,2.171-8.577,0.041-12.58c-3.58-6.724-3.818-14.166-4.699-21.348
			c-0.403-3.288,1.967-6.973,3.288-10.396c0.913-2.365,2.16-4.604,3.312-6.871c0.276-0.543,0.754-0.992,1.169-1.457
			c1.185-1.325,2.341-2.68,3.59-3.942c1.283-1.296,2.718-2.444,3.979-3.76c0.772-0.806,2.028-1.936,1.883-2.696
			c-0.643-3.381,1.805-5.112,3.351-7.366c1.003-1.461,1.67-3.19,2.827-4.501c1.257-1.427,2.876-2.549,4.395-3.73
			c0.967-0.752,2.076-1.321,3.053-2.061c1.983-1.499,3.929-3.047,5.869-4.602c0.48-0.383,0.842-0.911,1.32-1.297
			c1.069-0.863,2.238-1.61,3.251-2.531c1.387-1.261,2.673-2.634,3.99-3.971c0.369-0.374,0.779-1.182,1.029-1.128
			c4.002,0.856,5.115-3.219,7.832-4.494c2.178-1.022,4.375-2.571,6.636-2.71c3.105-0.19,5.839-0.921,8.528-2.332
			c1.342-0.704,2.824-1.51,4.102,0.25c0.125,0.171,0.503,0.22,0.764,0.219c3.389-0.025,6.779-0.062,10.167-0.113
			c1.128-0.016,2.27,0.021,3.38-0.142c2.42-0.355,4.964,0.072,6.962-2.2c1.938-2.203,3.348-1.716,4.621,0.922
			c0.293,0.606,1.003,1.15,1.646,1.415c0.91,0.373,1.957,0.708,2.909,0.63c5.97-0.491,11.562,1.563,17.301,2.544
			c1.793,0.307,3.441,1.521,5.127,2.377c1.189,0.604,2.35,1.273,3.484,1.976c0.479,0.296,1.247,0.783,1.221,1.134
			c-0.2,2.722,1.157,2.262,2.851,1.604c0.759-0.295,1.66-0.226,2.495-0.322c0.073,0.837,0.146,1.674,0.257,2.927
			c0.508,0.079,1.332,0.468,1.966,0.264c3.927-1.265,7.079,1.529,10.681,1.944c1.369,0.159,2.67,0.903,4.01,1.364
			c1.765,0.608,3.613,1.144,2.522,3.691c2.236,1.531,6.009-0.193,6.689,3.646c2.393-1.024,6.229,0.695,8.116,2.855
			c3.418,3.91,7.099,7.592,10.688,11.352c2.614,2.739,5.281,5.429,7.858,8.204c0.369,0.398,0.547,1.165,0.496,1.733
			c-0.146,1.634,0.22,2.57,2.123,2.704c0.682,0.048,1.552,0.933,1.896,1.648c1.919,3.991,3.812,8.003,5.506,12.095
			c1.589,3.841,2.925,7.787,4.361,11.69c0.755,2.056,1.522,4.11,2.208,6.189c0.341,1.028,0.97,2.262,0.683,3.147
			c-1.735,5.354,1.39,10.544,0.38,15.805c-0.435,2.26-1.326,4.43-1.978,6.65c-0.524,1.783-1.028,3.574-1.49,5.375
			c-2.337,9.102-4.601,18.222-7.013,27.303c-0.738,2.781-1.868,5.46-2.819,8.186c-0.28-0.053-0.562-0.104-0.845-0.156
			c0.678-4.805,1.355-9.611,2.033-14.418c-0.217-0.072-0.434-0.145-0.65-0.215c-1.018,2.825-2.031,5.652-3.049,8.479
			c-0.258,0.053-0.516,0.105-0.773,0.156c0.176-3.443-1.06-5.885-4.26-7.057c-0.217,0.313-0.369,0.521-0.508,0.739
			c-2.395,3.735-1.643,7.833-1.52,11.912c0.151,4.977-1.138,6.434-6.231,7.801c-0.698-8.87-1.396-17.726-2.112-26.831
			c-3.031,1.062-4.615,2.795-5.303,5.461c-0.932,3.598-1.911,7.188-2.939,10.76c-0.961,3.336-3.291,5.323-6.516,6.405
			c-12.037,4.042-24.155,4.121-36.555,1.586c-3.837-0.784-5.415-2.87-6.856-5.78c-1.331-2.685-2.517-5.445-3.967-8.062
			c-2.682-4.84-5.793-6.362-10.204-4.597c-1.694,0.679-3.252,2.296-4.306,3.865c-3.378,5.028-6.885,10.043-9.56,15.448
			c-1.643,3.321-3.017,6.812-4.715,10.148c-0.491,0.967-0.292,2.604,0.209,3.635c0.293,0.604,2.404,1.131,2.675,0.814
			c2.254-2.627,4.499-1.305,6.578-0.07c1.854,1.101,3.364,2.777,5.216,3.882c1.102,0.658,2.712,1.229,3.847,0.922
			c3.531-0.949,4.432-0.37,4.315,3.476c-0.011,0.342,0.057,0.687,0.088,1.027C215.255,326.989,215.496,327.129,215.737,327.27z
			 M262.852,208.637c-2.463,1.963-4.851,3.9-7.278,5.783c-0.757,0.585-1.656,0.981-2.435,1.542c-0.777,0.561-1.728,1.078-2.18,1.858
			c-1.49,2.575-3.285,3.951-6.536,4.415c-4.56,0.648-9.086,1.579-13.7,1.906c-0.35,0.025-0.682,0.308-1.031,0.331
			c-2.017,0.136-4.038,0.214-6.056,0.341c-2.834,0.178-6.319-0.577-8.347,0.802c-2.973,2.021-6.189,2.478-9.203,2.678
			c-6.18,0.414-12.434-0.051-18.641-0.426c-1.897-0.114-3.339-0.047-5.041,1.066c-1.645,1.077-3.848,1.581-5.857,1.759
			c-3.81,0.337-7.383-0.642-10.435-3.106c-1.26-1.017-2.333-1.118-3.893-0.169c-2.982,1.815-6.162,3.035-9.81,3.483
			c-2.561,0.315-5.936-0.05-7.63,2.854c0.339,1.08,0.929,2.032,0.879,2.95c-0.343,6.375-0.545,12.779-1.365,19.099
			c-0.418,3.227-2.098,6.276-3.04,9.455c-0.248,0.84-0.228,2.157,0.271,2.748c1.845,2.188,13.075,2.703,15.306,0.871
			c0.07-0.057,0.139-0.124,0.181-0.202c2.146-3.917,6.225-4.618,9.927-5.293c3.5-0.638,7.21-0.015,10.815-0.194
			c5.032-0.25,9.914-0.006,14.442,2.549c0.582,0.328,1.401,0.231,2.108,0.344c2.109,0.332,4.222,0.637,6.322,1.02
			c1.503,0.272,3.016,0.562,4.471,1.016c1.096,0.342,2.095,0.982,3.158,1.441c1.526,0.66,3.039,1.519,4.633,1.736
			c0.372,0.051,1.228-2.089,1.536-3.303c0.324-1.277,0.455-2.184,2.216-1.922c1.532,0.229,3.202,0.158,4.708-0.207
			c3.129-0.76,6.171-1.873,9.288-2.702c1.746-0.464,3.639-0.431,5.34-0.996c6.574-2.188,13.271-2.942,20.203-3.247
			c4.057-0.178,6.674,1.72,9.696,3.283c2.086,1.078,3.469,2.765,1.097,5.758c4.047,0.369,7.533,0.704,11.023,0.999
			c2.214,0.188,3.191-1.188,3.336-3.099c0.1-1.318-0.225-2.684-0.456-4.012c-0.685-3.922-1.522-7.82-2.106-11.758
			c-1.047-7.039-1.936-14.103-2.943-21.148c-0.083-0.579-0.484-1.188-0.899-1.633C270.012,222.037,266.467,215.901,262.852,208.637z
			 M224.656,286.439c-0.22,6.388,4.1,12.649,10.126,14.161c10.102,2.535,20.155,1.853,30.168-0.521
			c5.159-1.223,8.169-4.539,8.901-9.755c0.391-2.772,0.53-5.595,0.553-8.396c0.01-1.063-0.52-2.978-0.991-3.039
			c-1.32-0.17-2.748,0.395-4.118,0.729c-1.511,0.367-3.145,1.395-4.477,1.082c-2.633-0.614-5.92-0.361-7.184-3.891
			c-0.268-0.75-1.654-1.099-2.957-1.896c0.805,4.845-0.933,7.888-5.58,9.984c1.826,0.205,2.728,0.307,3.651,0.41
			c-0.183,0.825-0.535,1.485-0.415,2.043c0.701,3.225-1.043,3.777-3.746,4.111c-1.736,0.215-3.553,1.215-4.949,2.342
			c-1.271,1.022-2.185,1.346-3.594,0.514c-3.235-1.914-6.517-3.752-9.783-5.615c-0.307-0.174-0.632-0.323-0.96-0.453
			C227.779,287.648,226.25,287.059,224.656,286.439z M176.045,303.186c4.893-0.59,9.062-0.916,13.161-1.638
			c3.506-0.617,6.455-2.458,8.338-5.587c0.439-0.729,0.719-2.182,0.318-2.638c-0.599-0.681-1.847-0.892-2.859-1.073
			c-0.573-0.104-1.274,0.15-1.84,0.411c-5.925,2.723-12.313,1.874-18.502,2.231c-4.556,0.266-7.456-3.509-10.905-5.847
			c-1.271-0.86-2.666-1.603-4.102-2.139c-1.584-0.593-3.314-0.784-4.912-1.349c-0.931-0.328-1.727-1.041-2.582-1.582
			c-0.265,1.172-0.655,2.334-0.753,3.519c-0.081,0.976,0.176,1.979,0.296,2.97c0.704,5.83,3.799,9.534,9.682,10.532
			C166.47,301.861,171.587,302.527,176.045,303.186z M191.104,338.551c0.085,0.543,0.171,1.087,0.258,1.63
			c1.161,0,2.325-0.038,3.484,0.005c8.013,0.309,16.047,0.384,24.032,1.037c5.285,0.435,10.493,1.753,15.757,2.544
			c0.671,0.101,1.464-0.604,2.2-0.935c-0.592-0.569-1.092-1.431-1.792-1.647c-1.626-0.503-3.369-0.615-5.026-1.031
			c-1.679-0.42-3.289-1.134-4.975-1.509c-2.142-0.476-5.17-1.807-6.333-0.889c-2.917,2.302-5.584,1.079-8.369,0.763
			c-1.941-0.221-4.122-0.312-5.7-1.272c-2.195-1.339-4.067-2.204-6.429-0.693c-0.362,0.231-0.867,0.236-1.302,0.358
			C194.974,337.455,193.04,338.003,191.104,338.551z M176.648,224.354c-1.887-0.978-3.744-1.94-5.601-2.902
			c0.279,0.338,0.557,0.676,0.835,1.013c-1.354,0.589-2.707,1.177-4.144,1.803C172.046,227.413,174.22,227.382,176.648,224.354z
			 M118.187,288.089c0.321,0.021,0.645,0.044,0.967,0.065c0-5.236,0-10.473,0-16.478
			C116.033,277.557,118.008,282.854,118.187,288.089z"/>
		<path fill="#38404C" d="M241.167,378.443c2.62-0.338,4.582-0.593,6.547-0.847c0.494-3.95,0.801-5.801,5.188-5.626
			c-0.312-1.288-0.612-2.535-0.913-3.78c0.299-0.102,0.6-0.203,0.897-0.306c0.43,0.637,0.738,1.439,1.322,1.859
			c0.535,0.386,1.367,0.356,2.068,0.511c-0.123-0.627-0.057-1.408-0.411-1.851c-0.61-0.762-1.535-1.262-2.233-1.967
			c-0.521-0.523-0.892-1.196-1.309-1.777c2.395-0.234,4.348-0.425,6.91-0.677c-0.39,1.319-0.74,2.51-1.215,4.114
			c0.366,0.729,1.004,1.994,1.685,3.35c4.719-0.677,4.321-6.551,8.834-8.136c-0.574,1.396-0.854,2.648-1.532,3.626
			c-3.529,5.09-7.054,10.188-10.781,15.129c-3.674,4.864-7.539,9.588-11.426,14.283c-1.079,1.305-2.66,2.181-3.797,3.445
			c-2.551,2.839-4.898,5.861-7.468,8.684c-1.487,1.632-3.121,3.192-4.911,4.476c-2.752,1.973-5.683,3.698-8.565,5.483
			c-0.914,0.566-1.864,1.223-2.882,1.438c-2.686,0.568-3.591,2.481-3.508,4.792c0.082,2.306,0.308,4.713,3.174,5.749
			c0.752,0.271,1.1,1.662,1.633,2.537c-1.024,0.487-2.208,1.564-3.04,1.342c-1.754-0.473-2.924-0.405-4.418,0.82
			c-0.833,0.683-2.572,0.426-3.879,0.314c-1.245-0.105-2.475-0.522-3.684-0.891c-1.815-0.551-3.62-0.946-2.066-3.681
			c0.804-1.416-0.039-3.375,1.688-4.879c1.016-0.887-2.241-4.237-3.916-3.935c-4.843,0.883-5.807,0.266-7.049-4.468
			c-0.135-0.516-0.246-1.135-0.592-1.48c-3.387-3.405-6.82-6.763-10.242-10.131c-0.193-0.191-0.378-0.506-0.6-0.538
			c-5.375-0.78-5.747-7.12-9.917-9.02c-4.126-1.881-5.317-5.835-7.549-9.097c-0.502-0.732-1.087-1.574-1.84-1.938
			c-1.812-0.874-2.509-2.223-2.47-4.142c0.012-0.619-0.042-1.338-0.342-1.848c-2.611-4.463-5.287-8.888-7.939-13.326
			c-0.414-0.692-0.891-1.365-1.196-2.106c-2.085-5.063-1.771-5.523,3.089-5.758c1.003,1.186,1.822,2.764,2.342,2.671
			c4.931-0.878,4.918-0.963,9.247,2.245c1.662,1.23,3.365,2.416,4.938,3.753c0.558,0.475,0.885,1.306,1.141,2.035
			c0.465,1.321,0.798,2.69,1.333,4.553c1.856-2.404,3.417-2.774,4.86-0.35c0.16,0.271,0.587,0.458,0.925,0.535
			c5.179,1.179,9.935,4.136,15.557,3.516c1.645-0.182,3.355,0.245,5.037,0.396c1.43-2.491,1.967-2.452,3.61-0.214
			c0.502,0.684,2.035,1.445,2.483,1.171c1.086-0.666,2.101-1.799,2.592-2.974c0.39-0.935-0.041-2.209-0.102-3.264
			c2.208,1.017,4.07,2.187,6.1,2.717c2.047,0.536,4.261,0.438,6.889,0.656c0.044,0.529,0.133,1.604,0.3,3.611
			c1.625-0.94,2.768-1.786,4.048-2.271c0.673-0.256,1.703-0.096,2.355,0.268c0.633,0.35,0.985,1.2,1.325,1.649
			c1.518-0.913,2.895-1.744,4.273-2.575c0.153,1.228,0.306,2.456,0.533,4.267c1.553-1.392,3.048-2.729,4.542-4.067
			C238.549,375.432,237.917,383.102,241.167,378.443z M259.191,374.575c-1.724,0.479-3.047,0.659-4.168,1.234
			c-0.635,0.326-1.278,1.308-1.271,1.984c0.007,0.526,0.987,1.414,1.582,1.456c0.562,0.039,1.296-0.725,1.764-1.294
			C257.711,377.212,258.135,376.314,259.191,374.575z"/>
		<path fill="#38404C" d="M175.123,467.788c0.644-1.907,1.928-3.755,0.367-6.287c-0.485,1.006-0.832,1.722-1.179,2.439
			c-0.261,0-0.522-0.001-0.785-0.001c0.151-2.131,0.534-4.277,0.378-6.385c-0.124-1.685-0.906-3.318-1.396-4.979
			c-0.34,0.065-0.68,0.129-1.021,0.193c0.105,1.807,0.21,3.61,0.315,5.415c-0.245,0.061-0.489,0.12-0.733,0.182
			c-0.927-3.817-1.863-7.63-2.769-11.452c-0.145-0.612,0.019-1.341-0.243-1.877c-1.636-3.351-3.373-6.648-5.03-9.986
			c-0.47-0.944-0.784-1.968-1.168-2.955c-0.37-0.948-0.738-1.897-1.692-2.66c0.25,1.186,0.499,2.367,0.748,3.553
			c-5.47-13.672-13.501-26.301-16.218-41.063c0.323,0.77,0.667,1.528,0.964,2.307c1.736,4.548,3.459,9.082,6.607,12.929
			c3.596,4.393,7.126,8.843,10.582,13.346c2.253,2.938,4.15,6.162,6.52,8.994c2.846,3.4,5.614,7.002,10.102,8.539
			c0.603,0.206,1.201,0.755,1.553,1.303c0.824,1.293,1.372,2.772,2.258,4.014c1.873,2.617,3.798,5.213,5.882,7.664
			c1.411,1.659,5.56,2.07,7.67,1.359c1.082-0.364,2.442-0.364,3.558-0.073c1.888,0.492,3.66,1.413,5.522,2.028
			c1.488,0.492,2.246-0.002,2.042-1.743c-0.085-0.72,0.078-1.62,0.466-2.218c1.559-2.402,3.387-4.639,4.822-7.107
			c0.552-0.948,0.318-2.354,0.49-4.002c2.314-0.369,5.101-0.521,7.702-1.297c4.15-1.237,8.093-2.914,11.4-5.991
			c2.636-2.451,5.847-4.272,8.617-6.598c3.837-3.219,7.491-6.658,11.245-9.979c0.721-0.639,1.539-1.165,2.844-1.335
			c-1.379,2.115-2.633,4.322-4.154,6.327c-4.875,6.424-9.852,12.771-14.785,19.147c-0.333,0.429-0.826,0.842-0.929,1.328
			c-1.226,5.869-5.833,9.854-8.31,15.018c-2.328,4.856-2.758,10.086-2.857,15.353c-0.026,1.418,0.512,2.848,0.495,4.268
			c-0.008,0.749-0.653,1.49-1.092,2.403c0.385,0.046,1.038-0.044,1.465,0.226c0.454,0.285,0.944,0.908,0.953,1.393
			c0.007,0.439-0.602,1.279-0.949,1.284c-7.099,0.096-11.537,4.638-15.89,9.354c-0.296,0.32-0.727,0.519-0.746,0.53
			c-4.608-5.206-8.879-10.537-13.688-15.328c-4.861-4.842-10.142-9.312-16.879-12.056c-0.409,1.854-0.783,3.546-1.212,5.489
			c-0.843-0.479-1.372-0.777-1.905-1.083C175.055,467.713,175.123,467.788,175.123,467.788z"/>
		<path fill="#38404C" d="M217.608,365.797c-3.763,1.44-7.46,2.021-11.104,0.144c-1.048-0.541-1.922-1.414-2.891-2.114
			c-2.131-1.541-4.271-3.071-6.834-4.91c1.327-0.274,2.388-0.487,3.447-0.713c7.146-1.52,14.26,0.23,21.391,0.298
			c1.2,0.011,2.391,1.107,3.954,1.886C223.074,362.743,217.701,360.557,217.608,365.797z"/>
		<path fill="#38404C" d="M110.624,467.775c-0.109-2.891-0.159-5.781-0.339-8.665c-0.406-6.487-1.218-12.968-1.235-19.45
			c-0.022-8.539-1.066-17.248,2.614-25.44c0.425-0.944,0.606-2.001,0.729-2.423c-0.282,18.312-0.572,37.137-0.863,55.962
			C111.228,467.764,110.926,467.771,110.624,467.775z"/>
		<path fill="#38404C" d="M271.254,481.24c0.333-12.428-0.818-25.02,4.428-36.817C274.311,456.715,275.436,469.3,271.254,481.24z"/>
		<path fill="#38404C" d="M296.449,472.169c-0.751-2.976-1.989-5.926-2.15-8.934c-0.334-6.303-0.101-12.635-0.101-18.588
			c2.614,3.554,4.866,21.412,3.219,27.317C297.095,472.034,296.771,472.103,296.449,472.169z"/>
		<path fill="#38404C" d="M114.574,437.239c0.175,2.872,0.49,5.743,0.493,8.612c0.004,4.727-0.541,9.478-0.217,14.174
			c0.396,5.739,1.616,11.422,2.156,17.158c0.333,3.527,0.062,7.112-0.532,10.854c-0.386-0.816-1.062-1.614-1.114-2.452
			c-0.646-10.458-1.292-20.919-1.74-31.386c-0.201-4.705,0.034-9.431,0.091-14.146c0.012-0.949,0.113-1.896,0.173-2.846
			C114.115,437.218,114.344,437.228,114.574,437.239z"/>
		<path fill="#38404C" d="M300.26,465.749c3.747,4.13,3.54,8.806,3.501,13.44c-0.023,3.175,0.039,6.356-0.17,9.521
			c-0.048,0.722-1.051,1.381-1.614,2.067c-0.438-0.711-1.229-1.415-1.246-2.137c-0.032-1.503,0.406-3.008,0.529-4.521
			c0.084-1.032,0.172-2.143-0.107-3.112C299.727,476.06,300.134,471.069,300.26,465.749z"/>
		<path fill="#38404C" d="M312.146,422.05c2.707,0.887,3.188,2.906,3.381,4.833c0.613,6.121,1.059,12.26,1.524,18.396
			c0.099,1.302,0.015,2.615-0.227,3.936C314.537,440.363,312.504,431.5,312.146,422.05z"/>
		<path fill="#38404C" d="M96.663,479.938c-1.293-6.062,0.434-21.896,2.486-23.589C100.802,459.948,99.016,478.08,96.663,479.938z"
			/>
		<path fill="#38404C" d="M283.318,427.007c-0.881,4.479-1.754,8.958-2.65,13.434c-0.896,4.48-1.816,8.962-2.779,13.713
			C276.257,449.488,279.195,433.873,283.318,427.007z"/>
		<path fill="#38404C" d="M267.628,494.201c-2.062,0.013-3.181-0.628-2.886-2.542c0.439-2.858-0.95-6.027,1.547-8.589
			c0.314-0.323-0.309-1.558-0.577-2.723c0.545-0.407,1.3-0.977,2.71-2.033C268.136,484.05,267.883,489.097,267.628,494.201z"/>
		<path fill="#38404C" d="M53.471,463.746c0.198,0.907,0.578,1.816,0.558,2.719c-0.049,2.163-0.045,4.373-0.508,6.466
			c-0.585,2.645-1.613,5.188-2.45,7.775c-0.23-0.043-0.46-0.086-0.69-0.129c0.56-5.55,1.119-11.1,1.678-16.647
			C52.528,463.869,53,463.807,53.471,463.746z"/>
		<path fill="#38404C" d="M74.085,472.417c0.008-3.974-0.674-7.475,2.868-9.8C78.336,465.526,77.417,469.033,74.085,472.417z"/>
		<path fill="#38404C" d="M139.864,476.268c-0.295-0.584-0.59-1.169-0.911-1.801c-0.204,0.446-0.421,0.922-0.638,1.397
			c-0.199-0.017-0.397-0.029-0.595-0.044c-0.194-1.898-0.389-3.795-0.598-5.845c1.453-0.119,2.502-0.207,3.941-0.325
			c-0.145,2.325-0.276,4.437-0.407,6.552C140.393,476.224,140.128,476.245,139.864,476.268z"/>
		<path fill="#38404C" d="M159.613,332.848c-0.362,2.694-0.725,5.389-1.147,8.523c-3.305-2.538-2.903-6.562,0.106-8.691
			C158.919,332.736,159.267,332.792,159.613,332.848z"/>
		<path fill="#38404C" d="M83.097,455.816c1.208,3.598-0.196,6.21-2.287,8.593C78.77,462.98,79.463,460.025,83.097,455.816z"/>
		<path fill="#38404C" d="M310.236,425.845c-3.573-2.319-4.481-5.114-4.01-8.513C310.001,418.812,310.123,421.989,310.236,425.845z"
			/>
		<path fill="#38404C" d="M86.616,455.09c-1.886-4.621-1.175-9.967,1.982-11.749C87.906,447.446,87.307,450.994,86.616,455.09z"/>
		<path fill="#38404C" d="M352.723,493.438c-2.928-2.927-2.615-6.233-0.994-9.853c0.662,3.315,1.293,6.481,1.927,9.649
			C353.344,493.302,353.033,493.369,352.723,493.438z"/>
		<path fill="#38404C" d="M121.033,407.007c0.428-2.195,0.726-4.43,1.374-6.558c0.165-0.543,1.417-0.827,2.219-1.056
			c0.239-0.066,0.647,0.458,0.978,0.713c-0.436,0.483-0.938,0.927-1.293,1.467c-0.618,0.935-1.236,1.891-1.68,2.913
			c-0.365,0.843-0.476,1.794-0.699,2.694C121.632,407.124,121.332,407.065,121.033,407.007z"/>
		<path fill="#38404C" d="M226.845,482.601c-2.386,3.628-7.082,0.394-9.667,3.432c-0.121-0.359-0.242-0.718-0.363-1.077
			c3.22-1.062,6.439-2.121,9.659-3.182C226.599,482.049,226.722,482.325,226.845,482.601z"/>
		<path fill="#38404C" d="M123.548,397.596c1.261-1.541,2.232-2.727,3.202-3.912C127.227,397.235,126.693,397.873,123.548,397.596z"
			/>
		<path fill="#38404C" d="M137.591,329.544c-0.197,1.46-0.394,2.923-0.657,4.872c-0.932-0.739-1.669-1.324-2.508-1.989
			c1.046-1.222,1.877-2.192,2.708-3.165C137.286,329.355,137.439,329.449,137.591,329.544z"/>
		<path fill="#38404C" d="M132.321,463.943c2.74,2.344,2.932,3.085,0.899,5.126C132.899,467.243,132.629,465.701,132.321,463.943z"
			/>
	</g>
</g>
</svg>
