<?xml version="1.0" encoding="utf-8"?>
<!-- Generator: Adobe Illustrator 16.0.0, SVG Export Plug-In . SVG Version: 6.00 Build 0)  -->
<!DOCTYPE svg PUBLIC "-//W3C//DTD SVG 1.1//EN" "http://www.w3.org/Graphics/SVG/1.1/DTD/svg11.dtd">
<svg version="1.1" id="Ebene_1" xmlns="http://www.w3.org/2000/svg" xmlns:xlink="http://www.w3.org/1999/xlink" x="0px" y="0px"
	 width="500px" height="500px" viewBox="0 0 500 500" enable-background="new 0 0 500 500" xml:space="preserve">
<g>
	<path fill="#38404C" d="M211.217,361.305c-3.917,6.928-3.708,9.393,1.758,15.5c0.97,1.083,3.609,2.267,4.188,1.801
		c1.585-1.275,2.484-3.406,3.654-5.198c-0.339-0.144-0.677-0.286-1.017-0.428c-1.749,0.845-3.497,1.692-5.245,2.536
		c0.414-1.446,0.829-2.892,1.241-4.34c-0.098,0.006-0.196,0.01-0.294,0.014c0.227-3.834,0.455-7.67,0.71-11.964
		c-0.501,0.207-0.251,0.043,0.016,0.003c3.723-0.542,6.361-3.828,5.651-7.059c-0.738-3.355-3.231-4.828-7.258-3.538
		c-6.625,2.122-13.104,4.697-19.674,6.991c-2.416,0.844-4.9,1.95-7.386,2.041c-7.857,0.289-15.73,0.135-23.597,0.207
		c-1.151,0.01-2.3,0.312-3.45,0.48c0.03,0.553,0.061,1.107,0.091,1.659c4.557,0,9.116-0.087,13.671,0.018
		C186.552,360.311,198.968,357.284,211.217,361.305z M146.689,282.584c0.717,3.38,0.383,7.135,5.137,7.555
		c4.946,0.438,8.193-0.986,8.538-6.954c2.101,1.435,3.477,2.373,5.276,3.601c0.12-1.34,0.204-2.273,0.303-3.384
		c1.854,0.741,3.374,1.349,5.335,2.134c-2.702-5.118-10.927-8.93-15.564-7.711c-4.464,1.174-9.024,3.38-13.41,3.096
		c-5.156-0.334-5.509,2.223-6.261,5.362c0.263,0.423,0.527,0.846,0.791,1.269C139.995,285.957,143.158,284.363,146.689,282.584z
		 M170.382,275.598c-1.092-0.945-2.042-2.214-3.306-2.764c-2.501-1.09-5.325-1.485-7.742-2.709
		c-3.253-1.646-6.108-3.356-9.205,0.356c-0.604,0.724-2.598,0.372-3.949,0.368c-1.767-0.006-3.534-0.158-5.56-0.26
		c0.82,1.186,1.465,2.121,2.124,3.073c-1.26,0.589-2.356,1.431-3.529,1.556c-1.119,0.12-3.296-0.426-3.329-0.818
		c-0.336-4.062-2.708-2.185-4.423-2.123c0.141,2.475,0.261,4.594,0.38,6.691C144.048,273.244,156.987,276.711,170.382,275.598z
		 M97.644,300.734c0.44-0.021,0.88-0.045,1.32-0.066c0.788-2.723,2.062-5.429,2.166-8.179c0.055-1.477-1.9-3.028-2.949-4.548
		c-0.679,1.267-1.968,2.561-1.916,3.795C96.393,294.75,97.144,297.737,97.644,300.734z M165.031,431.113
		c0.208-0.578,0.417-1.158,0.625-1.736c-1.307-2.26-2.614-4.52-3.92-6.779c-0.501,0.012-1.003,0.022-1.505,0.034
		c-0.314,2.31-1.294,4.828-0.665,6.843C159.883,430.49,163.116,430.598,165.031,431.113z M147.186,416.983
		c0.459,9.176,4.652,18.784,8.379,21.346C152.869,431.461,150.027,424.224,147.186,416.983z"/>
	<path fill-rule="evenodd" clip-rule="evenodd" fill="#38404C" d="M211.217,361.305c-12.25-4.021-24.665-0.994-36.942-1.276
		c-4.555-0.104-9.114-0.018-13.671-0.018c-0.03-0.552-0.061-1.106-0.091-1.659c1.15-0.168,2.299-0.471,3.45-0.48
		c7.866-0.072,15.74,0.082,23.597-0.207c2.486-0.091,4.97-1.197,7.386-2.041c6.571-2.294,13.049-4.869,19.674-6.991
		c4.027-1.29,6.521,0.183,7.258,3.538c0.71,3.23-1.928,6.517-5.651,7.059c-0.267,0.04-0.517,0.204-0.016-0.003
		c-0.255,4.294-0.483,8.13-0.71,11.964c0.099-0.004,0.197-0.008,0.294-0.014c-0.412,1.448-0.827,2.894-1.241,4.34
		c1.748-0.844,3.496-1.691,5.245-2.536c0.339,0.142,0.677,0.284,1.017,0.428c-1.17,1.792-2.069,3.923-3.654,5.198
		c-0.579,0.466-3.218-0.718-4.188-1.801C207.509,370.697,207.3,368.232,211.217,361.305z"/>
	<path fill-rule="evenodd" clip-rule="evenodd" fill="#38404C" d="M146.689,282.584c-3.531,1.779-6.694,3.373-9.856,4.967
		c-0.264-0.423-0.527-0.846-0.791-1.269c0.752-3.14,1.105-5.696,6.261-5.362c4.386,0.284,8.945-1.922,13.41-3.096
		c4.638-1.219,12.863,2.593,15.564,7.711c-1.962-0.785-3.481-1.393-5.335-2.134c-0.099,1.11-0.183,2.044-0.303,3.384
		c-1.799-1.228-3.175-2.166-5.276-3.601c-0.344,5.968-3.591,7.392-8.538,6.954C147.073,289.719,147.407,285.964,146.689,282.584z"/>
	<path fill-rule="evenodd" clip-rule="evenodd" fill="#38404C" d="M170.382,275.598c-13.396,1.113-26.334-2.354-38.538,3.371
		c-0.12-2.098-0.24-4.217-0.38-6.691c1.715-0.062,4.087-1.938,4.423,2.123c0.033,0.393,2.21,0.938,3.329,0.818
		c1.172-0.125,2.269-0.967,3.529-1.556c-0.659-0.952-1.304-1.888-2.124-3.073c2.026,0.102,3.793,0.254,5.56,0.26
		c1.352,0.004,3.346,0.355,3.949-0.368c3.097-3.713,5.952-2.003,9.205-0.356c2.417,1.224,5.241,1.619,7.742,2.709
		C168.34,273.384,169.291,274.652,170.382,275.598z"/>
	<path fill-rule="evenodd" clip-rule="evenodd" fill="#38404C" d="M97.644,300.734c-0.5-2.997-1.25-5.984-1.379-8.998
		c-0.053-1.234,1.237-2.528,1.916-3.795c1.049,1.52,3.004,3.071,2.949,4.548c-0.103,2.75-1.378,5.456-2.166,8.179
		C98.524,300.689,98.083,300.713,97.644,300.734z"/>
	<path fill-rule="evenodd" clip-rule="evenodd" fill="#38404C" d="M165.031,431.113c-1.915-0.516-5.148-0.623-5.466-1.639
		c-0.63-2.015,0.35-4.533,0.665-6.843c0.502-0.012,1.004-0.022,1.505-0.034c1.307,2.26,2.614,4.52,3.92,6.779
		C165.448,429.955,165.239,430.535,165.031,431.113z"/>
	<path fill-rule="evenodd" clip-rule="evenodd" fill="#38404C" d="M147.186,416.983c2.841,7.24,5.684,14.478,8.379,21.346
		C151.837,435.768,147.645,426.159,147.186,416.983z"/>
	<g>
		<path fill-rule="evenodd" clip-rule="evenodd" fill="#38404C" d="M138.61,480.938c4.46-2.389,8.92-4.778,13.88-7.434
			c0.068,8.111-1.861,15.581-7.504,20.777c-2.002,1.845-4.354,3.318-6.906,4.719h32.798c-0.238-2.541-0.477-5.08-0.715-7.621
			c-0.173,0.022-0.907,0.114-2.035,0.259c1.215-2.557,0.884-5.199,5.024-5.146c1.924,0.024,3.695-4.019,5.899-5.756
			c2.509-1.978,2.002-3.523,0.501-5.835c-3.16-4.874-6.243-9.839-8.813-15.035c-1.064-2.153-2.179-2.982-4.36-3.376
			c-1.491-0.269-3.376-0.934-4.153-2.062c-1.891-2.751-3.776-3.145-5.765-0.587c-6.528,8.395-12.906,16.906-19.341,25.373
			C137.618,479.787,138.114,480.361,138.61,480.938z"/>
		<path fill-rule="evenodd" clip-rule="evenodd" fill="#38404C" d="M129.101,499c0.511-2.17,0.977-4.156,1.434-6.137
			c0.813-3.528,3.183-7.729,2.038-10.438c-1.764-4.174-0.169-7.342,0.754-10.629c3.361-11.976,5.913-23.958,5.512-36.535
			c-0.384-12.041-0.083-24.105-0.083-36.671c-24.075,7.047-76.274,20.725-99.818,31.329c0,26.022,17.535,45.531,24.19,69.08H129.101
			z"/>
	</g>
	<path fill-rule="evenodd" clip-rule="evenodd" fill="#38404C" d="M103.081,283.786c0.325,0.063,0.812,0.653,0.783,0.956
		c-0.403,4.369,3.261,5.659,6.186,8.455c0.969-7.445,2.153-14.269,2.652-21.141c0.354-4.9,4.304-9.737-0.65-15.025
		c-1.732-1.849-0.718-6.77-0.166-10.158c1.197-7.33,2.617-14.65,4.502-21.829c1.357-5.17,2.788-10.64,5.64-15.031
		c5.999-9.233,13.126-17.725,19.448-26.76c3.349-4.787,8.369-5.28,13.239-6.474c0.361-0.089,0.813,0.19,1.253,0.306
		c0.25,1.075,0.488,2.095,0.564,2.424c2.48-1.75,4.716-4.36,7.36-4.875c2.246-0.437,4.963,1.543,7.475,2.451
		c1.102-1.894,2.201-3.784,3.301-5.675c1.559,4.862-0.208,7.632-4.642,8.682c1.081,1.225,2,2.266,2.789,3.159
		c5.743-3.452,11.276-6.778,16.808-10.104c0.138,0.25,0.275,0.501,0.414,0.752c-2.711,2.214-5.422,4.429-8.438,6.892
		c2.979,0.608,6.217,2.169,7.139,1.293c3.154-2.997,6.336-0.791,9.424-0.969c1.177-0.068,2.412,0.844,3.62,1.31
		c-0.07,0.327-0.142,0.654-0.213,0.982c1.818-0.347,3.636-0.692,4.804-0.915c3.561,2.548,6.464,5.503,9.987,6.948
		c5.647,2.317,9.09,5.98,10.646,11.77c0.398,1.483,1.113,3.243,2.262,4.103c5.972,4.471,6.826,10.145,5.417,17.088
		c-0.6,2.955-0.238,7.249,1.553,9.319c4.435,5.125,3.762,10.457,2.53,16.062c-0.658,2.99-1.861,5.86-2.738,8.541
		c1.865,1.328,3.302,2.352,4.74,3.376c-0.247,0.392-0.494,0.784-0.741,1.177c-4.359-0.803-8.54,1.255-13.378-0.953
		c-2.698-1.231-9.238-3.609-11.683,2.961c-0.124,0.333-1.408,0.107-2.027,0.403c-3.911,1.868-8.459,2.169-11.409,6.361
		c-1.796,2.554-5.313,3.896-7.232,5.216c-1.755-1.426-2.907-2.36-4.06-3.297c-0.375,0.3-0.751,0.6-1.127,0.9
		c0.631,2.637,1.163,5.299,1.912,7.902c1.453,5.047,2.93,9.994,1.46,15.394c-1.771,6.505,1.072,12.132,3.683,17.909
		c2.575,5.698,3.653,11.123-2.27,15.253c-5.494,3.831-10.755,5.349-17.142,2.82c-3.358-1.331-6.885-1.803-8.961,3.54
		c1.948,0.451,4.009,1.661,5.226,1.084c4.855-2.297,8.901-0.583,13.347,1.242c4.795,1.969,9.897,3.275,14.96,4.463
		c2.297,0.537,4.824,0.091,7.847,0.091c4.521-3.291,11.363-6.215,8.376-15.278c5.968,6.349,11.897,11.908,14.344,20.073
		c0.582,1.94,2.312,3.536,3.555,5.278c-0.001-0.002-0.001-0.006-0.001-0.008c0.002,0.004,0.003,0.009,0.005,0.014
		c0.027,0.039,0.059,0.077,0.086,0.117c-1.789-4.405-3.006-9.17-5.501-13.128c-3.618-5.737-8.16-10.892-12.555-16.614
		c-2.965,5.838-5.384,0.449-8.225,0.717c-2.177,1.887-3.458,6.834-7.817,3.963c-0.872-0.574-0.443-4.48,0.563-6.134
		c0.845-1.391,3.403-1.739,5.732-2.788c-0.41-3.54-3.385-6.814-6.993-9.67c-2.512-1.987-4.157-4.072-1.893-7.396
		c0.513-0.752,0.304-2.247-0.006-3.27c-2.325-7.688,1.076-14.889,9.944-18.673c-2.741,2.892-4.626,4.882-6.511,6.873
		c0.353,0.388,0.705,0.776,1.058,1.164c2.863-2.464,5.725-4.927,9.126-7.853c0.27,5.438,2.436,8.312,7.732,8.324
		c4.93,0.009,5.861-3.299,6.416-8.111c2.096,2.52,4.394,4.097,4.793,6.061c0.511,2.515,1.695,2.916,3.67,3.395
		c0.947,0.229,1.652,1.377,2.518,2.045c1.104,0.85,2.146,2.041,3.407,2.379c7.299,1.961,9.705,9.277,5.352,15.423
		c-3.364,4.747-7.562,9.146-8.432,15.31c-0.04,0.285-0.075,0.707-0.258,0.81c-6.443,3.677-2.553,8.433-1.419,12.943
		c1.59,6.323,3.187,12.651,4.51,19.036c0.311,1.498-0.462,3.223-0.737,4.845c-0.391,0.029-0.782,0.058-1.175,0.089
		c-1.127-3.283-2.255-6.566-3.385-9.855c-0.002-0.002-0.003-0.004-0.004-0.006c0.011,0.137,0.024,0.279,0.035,0.422
		c0.564,7.486,2.919,15.399-5.168,20.785c-0.549,0.363-0.718,1.609-0.714,2.442c0.036,7.719-5.502,12.515-9.487,18.087
		c-2.761,3.861-6.504,4.896-11.12,3.32c-1.16-0.396-2.85,0.162-4.101,0.722c-9.886,4.425-20.17,7.307-31.035,7.021
		c-3.304-0.087-6.635-1.727-9.814-3.003c-1.703-0.682-2.993-2.345-4.669-3.153c-7.996-3.851-15.911-7.771-21.132-15.526
		c0.452,2.328,1.385,4.42,1.757,6.609c1.699,9.988,5.666,17.916,16.431,21.004c1.964,0.562,3.682,3.53,4.627,5.763
		c1.741,4.109,3.657,5.459,7.824,4.482c1.156,1.575,2.208,3.11,3.364,4.561c2.648,3.322,2.281,5.295-1.359,7.58
		c-0.768,0.482-1.316,1.312-2.207,2.232c6.831,0.068,10.462-8.575,17.559-5.193c-0.2,3.359-0.362,6.058-0.501,8.404
		c-2.561,1.127-4.833,2.128-7.248,3.19c1.125,1.957,1.896,3.3,2.529,4.401c31.406-17.24,60.285-37.068,80.036-68.036
		c-0.432,5.428-1.242,10.67-2.679,15.736c-4.148,14.624-11.565,27.729-19.961,40.221c-14.324,21.313-29.043,42.37-41.738,64.689
		h121.223c0-24.29,0-48.581,0-72.871c-7.222-5.915-14.456-11.815-21.659-17.754c-3.257-2.683-6.988-5.009-9.568-8.245
		c-6.139-7.702-11.941-15.699-17.438-23.876c-3.01-4.477-6.862-8.951-4.904-15.251c0.943-3.034,1.576-6.188,2.064-9.335
		c0.65-4.186,1.383-8.069,4.653-11.365c7.236-7.297,6.824-17.831,10.415-26.705c2.015-4.982,2.577-10.668,3.114-16.104
		c0.598-6.062,0.643-12.209,0.432-18.303c-0.055-1.563-1.791-4.176-3.08-4.395c-4.912-0.838-4.161-3.629-3.786-7.205
		c0.372-3.537-0.458-7.191-0.65-10.801c-0.108-2.033-0.068-4.082,0.041-6.117c0.228-4.187,1.09-8.418,0.726-12.545
		c-1.117-12.672-3.518-25.071-9.937-36.335c-3.369-5.914-5.5-12.633-11.059-17.119c-2.36-1.904-4.781-3.736-7.235-5.519
		c-6.259-4.546-12.258-9.553-18.917-13.417c-6.109-3.545-12.826-6.173-19.502-8.57c-4.562-1.637-9.48-2.806-14.301-3.07
		c-6.79-0.372-13.641,0.176-20.455,0.532c-10.798,0.563-21.376,2.269-30.333,8.884c-7.888,5.826-15.629,11.881-23.104,18.224
		c-4.631,3.931-9.434,7.933-11.484,14.098c-1.495,4.493-2.997,8.993-4.746,13.389c-2.554,6.422-6.117,12.475-7.033,19.479
		c-1.009,7.71-2.421,15.403-2.814,23.145c-0.369,7.261,0.25,14.582,0.659,21.863C98.22,277.705,97.057,282.605,103.081,283.786z"/>
	<g>
		<path fill-rule="evenodd" clip-rule="evenodd" fill="#38404C" d="M286.668,415.436c0.933,13.744,1.88,23.619,5.217,37.266
			c3.415,13.98,3.944,28.738,4.956,43.209c0.071,1.028,0.116,2.059,0.148,3.09h99.508c-7.678-19.798-21.028-48.104-32.314-54.925
			c-11.184-6.76-36.812-15.818-55.463-23.099c-7.633-2.98-18.208-5.04-21.614-15.505c-0.417,0.359-0.803,4.162-0.766,4.928
			C286.34,411.166,286.618,414.67,286.668,415.436z"/>
	</g>
	<path fill-rule="evenodd" clip-rule="evenodd" fill="#38404C" d="M169.926,499c-3.842-10.638-7.681-21.278-11.593-31.891
		c-4.943-13.407-9.512-26.99-15.204-40.078c-6.37-14.646-15.183-28.523-9.733-45.912c-2.994,2.756-5.094,5.974-7.787,8.582
		c-6.322,6.115-12.246,13.047-19.611,17.561c-6.925,4.246-52.045,12.767-68.282,22.736S0.817,480.066,0,499H169.926z"/>
</g>
</svg>
