<?xml version="1.0" encoding="utf-8"?>
<!-- Generator: Adobe Illustrator 16.0.0, SVG Export Plug-In . SVG Version: 6.00 Build 0)  -->
<!DOCTYPE svg PUBLIC "-//W3C//DTD SVG 1.1//EN" "http://www.w3.org/Graphics/SVG/1.1/DTD/svg11.dtd">
<svg version="1.1" id="Ebene_1" xmlns="http://www.w3.org/2000/svg" xmlns:xlink="http://www.w3.org/1999/xlink" x="0px" y="0px"
	 width="500px" height="500px" viewBox="0 0 500 500" enable-background="new 0 0 500 500" xml:space="preserve">
<g>
	<path fill="#38404C" d="M159.979,291.203L159.979,291.203c-0.02-0.02-0.039-0.041-0.059-0.061
		C159.94,291.162,159.959,291.184,159.979,291.203z"/>
	<path fill="#38404C" d="M133.917,393.678c-7.98,6.01-12.943,10.986-20.813,15.843C105.708,414.088,59,423.5,38.139,437.835
		C21.5,450.5,3.29,478.152,0,500h176.588h64.243c-1.365-2.618-2.729-6.746-4.112-9.354c-3.728-7.035-7.557-14.01-11.425-20.967
		c-6.141-11.05-12.299-22.092-18.555-33.077c-3.198-5.608-6.582-11.11-9.963-16.614c-2.209-3.59-4.56-7.097-6.866-10.631
		c-1.72-2.633-4.186-4.797-4.876-8.096c-0.161-0.769-0.794-1.435-1.222-2.143c-0.95-1.57-3.477-2.577-1.758-5.094
		c0.077-0.109-0.014-0.392-0.102-0.545c-0.747-1.285-1.511-2.559-2.386-4.024c-0.387,0.758-0.658,1.269-1.195,2.312
		c-0.484-1.918-2.621-2.657-1.413-4.734c0.111-0.188-0.336-0.734-0.558-1.094c-1.298-2.102-2.617-4.181-3.896-6.293
		c-0.084-0.141,0.088-0.436,0.174-0.807c0.441,0.506,0.76,0.873,1.081,1.236c0.139-0.068,0.274-0.134,0.414-0.201
		c-0.482-1.434-0.962-2.865-1.44-4.292c0.149-0.043,0.302-0.083,0.452-0.123c0.933,1.415,1.868,2.825,2.802,4.239
		c0.393,0.021,0.789,0.04,1.187,0.062c-2.964-2.415-0.702-3.622,0.082-5.351c1.82,2.39,3.519,4.621,5.218,6.849
		c0.431-2.177-2.414-2.972-1.849-5.589c1.714,2.048,3.151,3.765,4.949,5.908c-0.098-0.902-0.015-1.334-0.191-1.557
		c-1.203-1.505-2.581-2.883-3.653-4.473c-0.65-0.971-0.902-2.213-1.312-3.347c-0.031-0.023-0.063-0.045-0.093-0.069
		c-0.013-0.024-0.025-0.05-0.038-0.074c-1.509-0.312-2.435-1.811-1.764-3.496c0.66,1.311,1.21,2.407,1.764,3.496
		c0.031,0.006,0.059,0.02,0.091,0.025c0.015,0.039,0.026,0.08,0.04,0.118c0.347,0.269,0.731,0.501,0.996,0.837
		c1.213,1.5,2.382,3.035,3.565,4.562c0.339-0.645,0.379-1.135,0.161-1.434c-1.058-1.44-2.219-2.811-3.252-4.266
		c-0.224-0.32-0.079-0.899-0.103-1.361c0.389,0.172,0.903,0.246,1.14,0.539c1.148,1.439,2.226,2.938,3.17,4.203
		c0.99-0.136,2.222-0.664,2.604-0.297c2.606,2.531,5.022,5.266,7.534,7.902c0.801,0.842,1.577,1.994,2.58,2.302
		c4.373,1.354,6.867,5.124,10.247,7.732c2.234,1.728,4.399,3.538,6.661,5.221c1.158,0.868,2.518,1.452,3.683,2.315
		c1.266,0.937,2.296,2.255,3.644,3.025c1.301,0.745,2.241,1.9,3.829,2.454c1.587,0.555,2.213-1.003,3.414-0.399
		c-0.066-0.584-0.108-0.971-0.22-1.94c0.964,1.105,1.501,1.804,2.128,2.417c1.032,1.014,2.917,0.61,3.297-0.661
		c0.526-1.77-0.486-4.616-2.401-6.051c0.651-0.154,1.093-0.408,1.42-0.305c1.553,0.475,3.068,1.05,4.604,1.576
		c1.336,0.455,2.675,0.901,4.023,1.326c0.72,0.224,1.518,0.666,2.17,0.521c0.766-0.174,1.412-0.877,2.116-1.349
		c-0.576-0.559-1.135-1.132-1.732-1.658c-0.24-0.215-0.569-0.326-0.861-0.48c0.034-0.088,0.064-0.177,0.097-0.258
		c1.371,0.17,2.744,0.344,4.11,0.511c0.016-0.099,0.028-0.202,0.041-0.301c-0.879-0.326-1.756-0.654-2.629-0.979
		c0.795-0.163,1.524,0.023,2.257,0.047c0.53,0.013,1.497-0.116,1.531-0.31c0.405-2.435,1.859-1.271,3.092-1.021
		c0.674,0.137,1.382,0.094,2.075,0.137c0.002-0.137,0.006-0.272,0.013-0.403c-0.519-0.187-1.039-0.374-1.555-0.562
		c1.191-0.146,2.645,0.283,2.393-1.813c5.322-0.317,9.272-3.012,12.711-6.776c0.096,0.367,0.193,0.749,0.318,1.229
		c1.568-2.538,3.061-4.928,4.52-7.336c0.802-1.317,1.893-1.916,3.456-2.01c3.635-0.215,6.825-1.656,10.038-4.096
		c-2.295,0.262-4.188,0.479-6.158,0.706c-0.074,0.224-0.262,0.765-0.594,1.741c-1.983-3.064-4.695-0.783-6.896-1.686
		c-0.747-0.307-1.729-0.047-2.751-0.047c-0.312,0.533-0.563,1.407-1.802,0.525c-0.859-0.613-1.907-0.863-3.198-0.418
		c-1.154,0.395-2.668,0.58-3.756-0.842c-0.435-0.564-1.416-1.307-2.2,0.026c-0.13,0.22-1.06,0.187-1.483-0.017
		c-1.74-0.83-3.445-1.744-5.131-2.688c-0.566-0.319-1.539-1.057-1.467-1.211c0.84-1.883-0.917-1.59-1.638-1.953
		c-0.811-0.417-1.785-0.559-2.703-0.682c-0.282-0.038-0.619,0.379-0.691,0.424c-2.33-1.195-3.902-3.216-5.838-4.82
		c0.207-0.324,0.413-0.646,0.623-0.968c-0.318-0.15-0.621-0.405-0.953-0.444c-1.322-0.164-5.29-3.436-5.531-4.676
		c-0.038-0.184,0.252-0.429,0.553-0.896c-1.992,0.26-2.271-0.799-2.086-1.808c-1.379-0.687-2.524-1.254-4.047-2.012
		c-0.061-1.224-0.938-2.575-2.107-3.94c-1.085-1.274-3.1-2.226-2.191-4.786c-1.181,0.324-2.025,0.555-2.944,0.803
		c0.795-1.493,0.291-2.464-1.388-2.874c0.204-0.35,0.274-0.656,0.458-0.755c1.771-0.968,1.075-1.889,0.027-2.906
		c-0.953-0.927-1.821-1.946-3.114-3.351c0.143,1.273,0.304,2.297,0.351,3.329c0.02,0.446-0.108,0.958-0.336,1.34
		c-0.303,0.517-0.769,0.933-1.139,1.368c-0.405-0.69-0.845-1.436-1.331-2.271c0.248-0.418,0.529-0.885,1.036-1.75
		c-0.703,0.312-1.011,0.447-1.254,0.557c-0.279-0.564-0.569-1.16-0.856-1.752c-0.124,0.057-0.245,0.11-0.367,0.168
		c0.055,0.348,0.106,0.693,0.141,0.91c-0.495,0.159-0.948,0.301-1.411,0.447c-0.192-0.385-0.47-0.939-0.683-1.371
		c0.55-0.502,1.077-0.979,1.604-1.455c0.011,0.008,0.021,0.014,0.031,0.021c-0.218-0.542-0.64-1.102-0.59-1.611
		c0.157-1.58,0.508-3.142,0.776-4.682c-0.542,0.095-0.909,0.16-1.273,0.221c0.171-0.32,0.403-0.619,0.492-0.96
		c0.271-1.003,2.065-1.468,1.021-2.928c0.171-0.079,0.338-0.158,0.506-0.239c0.437,0.977,0.876,1.953,1.365,3.049
		c-0.454,0-1.041,0-1.719,0c0.892,1.211,1.73,2.348,2.566,3.482c0.13-0.093,0.261-0.186,0.389-0.281
		c0.139-1.822,0.271-3.648,0.409-5.521c0.042,0,0.319,0,0.437,0c-0.311-0.887-0.609-1.748-0.959-2.75
		c-0.761,0.604-1.789,1.852-2.812,0.162c0.137-0.744,0.261-1.434,0.388-2.122c-0.141-0.041-0.283-0.084-0.422-0.124
		c-0.362,0.385-0.725,0.771-1.087,1.16c-0.171-0.078-0.342-0.152-0.519-0.229c0.261-0.898,0.519-1.795,0.876-3.041
		c0.937,0.881,1.391,1.308,1.809,1.701c0.559-0.31,1.036-0.637,1.561-0.847c0.425-0.171,0.904-0.202,1.362-0.293
		c-0.2-0.541-0.394-1.083-0.578-1.589c0.386-0.128,0.898-0.295,1.757-0.573c-0.694-0.291-1.065-0.448-1.44-0.604
		c2.264-0.655,2.406-1.245,1.104-2.888c0.281-0.531,0.744-1.009,0.736-1.477c-0.024-1.501-0.11-3.025-0.429-4.486
		c-0.104-0.468-0.953-0.883-1.544-1.104c-0.405-0.15-0.949,0.078-1.416,0.131c-0.466-2.008-2.315-4.271-4.111-5.225
		c-0.32-0.169-0.627-0.506-0.766-0.844c-0.646-1.586-1.58-2.887-2.923-3.994c-0.463-0.381-0.376-1.44-0.664-2.752
		c-1.899-1.229-1.357-4.221-2.298-6.56c-0.531-1.317-0.364-2.906-0.693-4.331c-0.296-1.266-0.844-2.475-1.283-3.706
		c0.153-0.062,0.307-0.118,0.461-0.175c-0.654-0.169-1.307-0.339-1.919-0.495c0.993-0.585,1.834-1.077,2.674-1.567
		c-2.15-0.892-1.439-2.543-1.569-3.623c-0.139-1.113,0.418-2.051,1.914-1.255c0.369,0.197,1.391-0.02,1.393-0.077
		c0.104-2.231,1.704-1.508,2.759-1.654c0.766-1.202,1.499-2.602,2.643-3.19c1.245-0.644,1.204-1.094,0.162-2.214
		c1.579-0.645,2.878-1.176,4.277-1.746c-0.005-0.02-0.115-0.35-0.095-0.291c1.412-0.491,2.771-1.257,4.188-1.381
		c1.889-0.168,1.948-0.992,1.347-2.336c1.724,0.121,3.404,0.238,5.163,0.363c-0.096-1.006-0.203-1.721-0.19-2.436
		c0-0.125,0.482-0.244,0.744-0.365c0,0-0.038-0.045-0.045-0.053c0.009-0.002,0.019-0.003,0.028-0.005
		c-0.656-1.72,0.81-1.618,1.69-1.72c0.7-0.076,1.454,0.326,2.223,0.983c-1.307,0.246-2.613,0.488-3.913,0.736
		c0.004,0.012,0.007,0.021,0.009,0.031c1.876,1.595,4.24,0.942,6.174,0.784c4.206-0.346,7.692,0.42,10.365,3.826
		c-3.89,0.483-7.872,0.943-11.842,1.482c-2.969,0.402-5.7,1.48-7.911,3.547c-1.418,1.321-2.636,2.863-3.948,4.31
		c0.673,0.405,1.492,0.903,2.437,1.472c2.731-3.727,6.663-2.733,10.454-2.318c-0.021-0.16-0.047-0.32-0.067-0.481
		c-0.482-0.261-0.964-0.524-1.866-1.015c2.91,0.416,5.303,0.759,7.729,1.104c1.214-1.302,2.501-2.679,3.996-4.278
		c1.031,0.831,1.963,1.592,2.974,2.41c0.165-0.072,0.535-0.244,0.91-0.413c0.169,0.129,0.338,0.258,0.509,0.39
		c-0.551,0.977-1.101,1.954-1.529,2.707c3.251,0.703,6.407,1.383,9.746,2.104c-0.452-0.832-0.838-1.55-1.228-2.264
		c0.157-0.098,0.315-0.194,0.474-0.29c1.062,1.24,2.125,2.482,3.326,3.886c0.905-0.48,1.803-0.955,2.829-1.499
		c-0.438-0.499-0.629-0.756-0.855-0.973c-0.676-0.638-1.193-1.442-0.187-2.024c0.349-0.201,1.444,0.362,1.828,0.868
		c1.697,2.198,2.913,4.62,2.994,7.521c0.021,0.791,0.49,1.566,0.755,2.35c0.196-0.039,0.396-0.076,0.593-0.116
		c0.622-1.626,1.101-3.221,0.139-5.03c-0.468-0.871-0.555-1.943-0.868-2.91c-0.303-0.92-0.584-1.867-1.031-2.718
		c-0.681-1.272-1.497-2.47-2.261-3.698c0.151-0.103,0.303-0.199,0.457-0.303c-1.93-1.248-3.855-2.496-6.014-3.894
		c-0.149-0.496-0.423-1.402-0.697-2.311c0.107-0.046,0.216-0.091,0.322-0.134c0.301,0.438,0.602,0.873,1.032,1.492
		c0.26-3.826-2.542-4.818-4.888-6.041c-0.925-0.481-1.808-1.428-3.315-0.662c-0.946,0.479-2.454-0.042-3.678-0.289
		c-0.5-0.099-0.924-0.978-1.349-0.952c-0.66,0.046-1.289,0.562-1.88,0.849c0.733,0.244,1.531,0.506,2.328,0.771
		c-0.032,0.16-0.063,0.327-0.098,0.489c-2.001-0.307-4.002-0.613-6.005-0.918c-0.91,0.271-2.038-0.064-2.582,0.363
		c-0.58,0.452-0.604,1.625-0.955,2.76c-0.348-0.72-0.695-1.434-1.047-2.16c-1.227-0.055-2.521-0.114-3.809-0.17
		c0.016-0.115,0.03-0.228,0.045-0.34c0.369-0.119,0.735-0.239,1.591-0.516c-1.452-0.1-2.488-0.461-3.263-0.158
		c-1.524,0.6-3.204-0.548-4.692,0.769c-0.949,0.84-2.214,0.003-2.474-1.368c-1.582,0.391-3.164,0.781-4.456,1.1
		c-0.657-0.363-1.135-0.628-1.595-0.881c0-1.285,0-2.7,0-4.253c-0.005,0,0.386-0.092,0.359-0.086
		c-0.441-1.614-0.754-3.139-1.281-4.581c-0.648-1.78,0.641-3.353,0.344-5.044c-0.182-1.037-0.414-2.08-0.774-3.064
		c-0.315-0.858-0.84-1.64-1.287-2.489c-0.372-1.033-0.726-1.989-1.067-2.948c-0.229-0.643-0.258-1.62-0.707-1.884
		c-1.361-0.809-0.977-1.391,0.388-2.098c-0.119-0.143-0.242-0.286-0.367-0.425c-1.163-0.083-2.324-0.167-3.743-0.268
		c0.262-0.526,0.568-1.144,0.938-1.88c-0.495,0.126-0.84,0.218-1.215,0.312c0.183-0.692,0.352-1.334,0.581-2.206
		c-1.251,0.774-2.193,1.356-3.141,1.939c-0.145-0.141-0.292-0.278-0.435-0.419c0.32-1.443,0.672-2.881,0.948-4.334
		c0.059-0.321-0.069-0.737-0.244-1.029c-0.499-0.851-1.463-1.631-1.519-2.484c-0.094-1.524,0.346-3.077,0.602-4.906
		c0.754,0.872,1.258,1.451,1.636,1.883c2.28-2.954,4.633-5.996,6.986-9.037c0.284,0.159,0.569,0.318,0.854,0.476
		c-0.429,1.178-0.855,2.354-1.287,3.53c1.856-2.596,3.853-4.786,7.21-5.317c-0.533-0.148-1.062-0.297-2.017-0.562
		c1.058-0.597,1.739-0.982,2.391-1.352c0.177,0.551,0.286,1.208,0.403,1.208c0.75,0.011,1.524-0.047,2.235-0.264
		c0.178-0.053,0.248-0.759,0.231-1.161c-0.024-0.563-0.178-1.115-0.344-2.039c0.957,0.521,1.398,0.761,2.158,1.175
		c-0.178-0.705-0.26-1.044-0.335-1.339c1.994,0.835,3.859,1.863,5.853,2.378c1.753,0.454,3.146,2.233,5.331,1.316
		c1.42-0.593,3.031-0.715,4.134-0.96c0.351,0.565,0.495,1.084,0.724,1.125c1.854,0.325,3.718,0.584,5.586,0.822
		c1.429,0.184,1.544,0.854,0.968,2.232c2.197-1.521,4.394-3.042,6.589-4.57c0.166,0.125,0.33,0.239,0.499,0.358
		c-0.324,0.926-0.65,1.846-0.975,2.769c0.702-1.503,2.164-1.907,3.424-2.553c0.427-0.218,0.953-0.422,1.397-0.365
		c1.177,0.165,2.569,0.111,2.806,1.804c1.735-0.312,2.853,1.095,4.277,1.55c2.339,0.744,4.563,2.244,7.241,1.633
		c0.49-0.113,1.066,0.125,2.054,0.268c-1.126,0.563-1.843,0.925-2.557,1.284c1.934-0.337,3.676-1.272,5.514-1.552
		c3.506-0.523,7.173-0.132,10.36-2.186c0.071-0.047,0.232,0.045,0.216,0.041c0.218,0.468,0.478,1.198,0.57,1.179
		c0.675-0.153,1.318-0.45,2.077-0.748c-0.08,0.805-0.165,1.614-0.285,2.79c0.64-0.824,1.023-1.318,1.084-1.395
		c1.658,0.579,3.121,1.069,4.574,1.597c0.901,0.328,1.482-0.006,1.917-0.737c-0.025,0.003-0.052,0.005-0.078,0.008
		c0.029-0.046,0.058-0.09,0.088-0.137c-0.794-0.425-1.605-0.827-2.365-1.308c-0.145-0.089-0.068-0.527-0.094-0.808
		c0.245-0.008,0.517-0.094,0.727-0.013c0.789,0.303,1.558,0.661,2.433,1.035c-0.225,0.35-0.465,0.722-0.7,1.094
		c0.018,0.01,0.035,0.019,0.053,0.028c-0.02,0.036-0.042,0.066-0.062,0.101c0.548-0.056,1.102-0.109,1.653-0.163
		c-0.047,0.477-0.09,0.953-0.128,1.357c0.494-0.184,1.07-0.399,1.559-0.582c0.441,1.19,0.748,2.28,1.229,3.281
		c2.556,5.31,4.672,10.815,5.529,16.639c0.808,5.458,0.979,11.007,1.487,16.513c0.139,1.496,0.485,2.973,0.732,4.458
		c0.533-0.836,0.616-1.591,0.669-2.348c0.228-3.105,0.436-6.209,0.662-9.318c0.152-2.201,0.533-4.409,0.442-6.598
		c-0.231-5.414-0.511-10.831-1.096-16.212c-0.4-3.693,0.231-7.697-2.465-10.904c-0.208-0.253-0.141-0.735-0.226-1.104
		c-0.486-2.114-0.831-4.274-1.526-6.318c-0.407-1.194-0.214-1.993,0.362-3.003c0.541-0.944,0.751-2.08,1.106-3.133
		c-0.173-0.059-0.341-0.121-0.51-0.181c-0.456,1.036-0.916,2.073-1.373,3.112c-0.145-0.051-0.292-0.106-0.435-0.159
		c0.208-0.764,0.422-1.53,0.78-2.816c-0.764,1.018-1.155,1.54-1.548,2.058c-0.261-0.049-0.519-0.104-0.776-0.158
		c0-1.134,0.006-2.272-0.005-3.409c-0.004-0.594,0.124-1.269-0.102-1.771c-0.493-1.078-1.156-2.073-1.782-3.085
		c-1.596-2.561-3.208-5.112-5.05-8.046c-0.149,0.824-0.2,1.069-0.29,1.566c-0.787-0.944-1.379-1.783-2.104-2.48
		c-0.424-0.404-1.056-0.587-1.602-0.857c-0.569-0.279-1.181-0.487-1.716-0.82c-0.685-0.433-1.275-1.022-1.969-1.433
		c-2.967-1.768-6.087-3.31-8.907-5.283c-3.858-2.699-7.432-5.812-11.264-8.558c-2.001-1.433-4.204-2.694-6.488-3.59
		c-1.674-0.655-3.618-0.612-5.447-0.834c-1.225-0.149-2.565,0.053-3.655-0.397c-1.704-0.7-3.218-1.822-5.228-1.365
		c-0.448,0.102-1.003-0.125-1.467-0.3c-4.242-1.63-8.439-3.232-13.103-1.464c-1.914,0.726-3.969,1.293-5.996,1.455
		c-3.02,0.242-6.073,0.063-9.107,0.063c0,0.339,0,0.649,0,1.114c-0.793-0.432-1.422-0.777-2.337-1.278
		c0.222,0.945,0.362,1.541,0.405,1.718c-2.874,1.021-5.721,2.021-8.552,3.053c-0.825,0.305-1.762,0.553-2.383,1.118
		c-2.033,1.857-4.456,2.628-7.079,3.112c-1.593,0.293-3.196,0.777-4.656,1.464c-1.901,0.901-3.658,2.098-5.489,3.147
		c-0.877,0.5-1.843,0.863-2.667,1.431c-5.77,3.98-9.172,10.06-13.362,15.431c-1.725,2.214-3.515,4.488-4.675,7.012
		c-1.59,3.46-3.498,6.874-3.864,10.806c-0.034,0.366-0.298,0.704-0.439,1.067c-1.226,3.101-2.492,6.185-3.644,9.312
		c-0.441,1.193-0.663,2.474-0.912,3.732c-0.745,3.769-1.319,7.583-2.22,11.315c-1.018,4.225-1.741,8.433-1.02,12.773
		c0.164,0.996,0.579,1.966,0.67,2.967c0.475,5.266,0.353,10.599,1.838,15.747c0.155,0.538,0.078,1.155,0.05,1.733
		c-0.263,5.243-0.649,10.486-0.77,15.734c-0.055,2.469,0.39,4.943,0.61,7.416c0.172-0.005,0.344-0.015,0.516-0.02
		c-0.436-4.304-0.628-8.586,0.866-12.783c0.542,0.93,0.924,1.871,1.02,2.842c0.444,4.574-0.991,8.899-1.611,13.336
		c-0.362,2.577,0.58,5.34,1.284,8.068c0.003,0.003,0.006,0.006,0.008,0.009c0.237,0.243,0.471,0.487,0.701,0.733
		c0.015,0.016,0.029,0.031,0.043,0.047c0.219,0.233,0.434,0.469,0.645,0.703c0.02,0.023,0.039,0.046,0.059,0.068
		c0.203,0.229,0.403,0.457,0.598,0.687c0.029,0.034,0.056,0.069,0.085,0.104c0.183,0.217,0.364,0.436,0.537,0.654
		c0.033,0.041,0.063,0.082,0.096,0.124c0.166,0.212,0.329,0.423,0.485,0.634c0.038,0.053,0.073,0.104,0.111,0.156
		c0.145,0.201,0.289,0.4,0.423,0.6c0.044,0.065,0.082,0.13,0.125,0.195c0.123,0.186,0.245,0.372,0.357,0.558
		c0.046,0.076,0.085,0.151,0.13,0.228c0.101,0.174,0.203,0.348,0.294,0.521c0.042,0.078,0.075,0.155,0.114,0.233
		c0.085,0.169,0.172,0.338,0.247,0.506c0.038,0.085,0.066,0.168,0.101,0.253c0.066,0.159,0.134,0.317,0.189,0.476
		c0.034,0.096,0.057,0.189,0.086,0.285c0.045,0.144,0.094,0.289,0.13,0.432c0.024,0.098,0.037,0.193,0.056,0.291
		c0.028,0.137,0.061,0.275,0.079,0.41c0.014,0.106,0.015,0.209,0.022,0.314c0.01,0.123,0.026,0.248,0.026,0.371
		c0,0.113-0.014,0.224-0.021,0.336c-0.007,0.109-0.007,0.221-0.021,0.33c-0.019,0.134-0.055,0.264-0.086,0.396
		c-0.02,0.083-0.03,0.167-0.055,0.249c-0.064,0.211-0.145,0.418-0.244,0.621c-2.353-3.056-3.813-6.363-4.963-9.842
		c0.205,1.197,0.184,2.492,0.658,3.567c1.5,3.407,2.966,6.864,4.885,10.034c1.113,1.838,2.96,3.302,4.692,4.659
		c1.016,0.8,1.562,1.526,1.588,2.818c0.037,2.37-0.044,4.778,0.374,7.095c1.243,6.935,2.018,13.854,0.841,20.879
		c-0.245,1.462-0.323,2.944-0.49,4.418c-0.049,0.439-0.033,0.93-0.226,1.312c-1.27,2.565-2.517,5.143-3.937,7.625
		c-0.417,0.733-1.278,1.442-2.074,1.682c-3.116,0.94-5.394,2.772-7.018,5.61c-1.402,2.447-2.832,4.921-4.578,7.114
		c-2.881,3.613-6.041,7.001-9.051,10.505 M284.441,201.586c-1.08,2.577-3.019,2.236-4.509,2.847
		c-0.067-0.141-0.139-0.28-0.204-0.421C281.142,203.283,282.558,202.557,284.441,201.586z M231.945,199.169
		c-1.823-0.366-3.12-0.526-4.357-0.904c-1.202-0.371-2.341-0.964-3.84-1.596C227.27,195.536,229.357,197.246,231.945,199.169z
		 M173.568,264.223c-0.687,0.492-1.384,0.997-2.149,1.548c-3.804-3.442-7.532-6.94-8.803-12.36
		C167.505,251.516,172.783,258.857,173.568,264.223z M168.252,266.264c-0.48,0.838-0.966,1.678-1.448,2.513
		c-0.195-0.042-0.394-0.086-0.591-0.126c0.15-0.668,0.176-1.402,0.493-1.971c0.212-0.39,0.83-0.555,1.267-0.816
		C168.066,265.997,168.16,266.131,168.252,266.264z M169.316,369.308c1.177,1.839,3.06,3.312,3.086,5.735
		C170.875,373.385,169.008,371.902,169.316,369.308z"/>
</g>
<path fill-rule="evenodd" clip-rule="evenodd" fill="#38404C" d="M271.367,434.689c3.646,15.042,7.233,43.91,8.308,59.477
	c0.151,2.192-0.47,4.089-1.5,5.834h121.609c-4.212-15.25-48.306-59.307-60.067-66.876c-11.764-7.574-39.32-17.02-59.245-24.849
	c-8.153-3.206-18.25-2.362-21.885-13.619c-0.445,0.383-0.894,0.77-1.339,1.156c0,0.824-0.047,1.653,0.006,2.478
	C258.25,413.072,267.803,420.008,271.367,434.689z"/>
<g>
	<path fill-rule="evenodd" clip-rule="evenodd" fill="#38404C" d="M262.895,318.232c0.473-0.299,0.955-0.595,1.739-1.088
		c-1.251,0-2.241,0.224-3.053-0.058c-1.115-0.386-2.064-1.229-3.144-1.74c-0.586-0.277-1.317-0.233-1.961-0.417
		c-2.004-0.578-4.16-1.007-5.533-2.715c-0.419-0.521-0.185-1.716-0.012-2.548c0.781-3.833,1.468-7.744,5.417-9.965
		c0,1.79-0.018,3.531,0.019,5.272c0.007,0.25,0.198,0.586,0.405,0.73c2.456,1.716,4.966,2.639,8.079,1.572
		c1.957-0.67,4.157-0.841,6.252-0.841c3.148,0,3.938,0.882,4.546,4.159c0.027,0.15,0.188,0.359,0.328,0.401
		c2.145,0.66,3.403,3.552,6.315,2.437c0.562-0.212,1.479,0.522,2.331,0.861c-1.973,2.588-4.616,3.691-7.499,4.065
		c-1.665,0.22-2.562,0.599-2.141,2.45c0.043,0.199-0.176,0.461-0.142,0.377c-1.946-0.746-3.803-1.547-5.721-2.166
		c-1.959-0.635-3.908-1.92-6.079-0.234C262.994,318.604,262.943,318.417,262.895,318.232z"/>
	<path fill-rule="evenodd" clip-rule="evenodd" fill="#38404C" d="M282.183,272.244c0.238-1.031,0.334-1.448,0.505-2.18
		c-1.146,0.223-2.062,0.402-3.011,0.586c-0.054-3.366,1.38-5.535,4.316-6.715c1.183-0.479,2.296-1.246,3.518-1.475
		c1.693-0.319,1.849-1.384,1.638-2.648c-0.229-1.355,0.266-2.228,1.388-2.854c0.333-0.189,0.747-0.302,0.994-0.568
		c1.104-1.198,2.295-1.968,4.03-1.398c0.426,0.141,0.984-0.133,1.402-0.202c-0.269,0.601-0.554,1.251-0.861,1.944
		c-0.87-0.259-1.889-0.564-2.908-0.873c-0.052,0.184-0.098,0.365-0.147,0.547c2.979,1.576,3.567,1.486,4.949-0.412
		c1.056-0.157,1.791-0.279,2.529-0.372c0.345-0.045,0.806-0.184,1.027-0.021c2.03,1.481,3.957,0.651,5.924-0.147
		c0.429-0.174,0.985-0.227,1.435-0.119c1.143,0.267,2.263,0.644,3.384,0.999c1.625,0.52,1.141,2.084,1.369,3.177
		c0.269,1.284,0.11,2.672,0.034,4.01c-0.036,0.64-0.318,1.27-0.486,1.9c-0.546-0.22-1.104-0.408-1.625-0.675
		c-0.335-0.171-0.61-0.46-1.023-0.782c0.253-0.396,0.508-0.789,0.861-1.336c-0.738,0-1.328,0-2.194,0
		c0.461-0.586,0.753-0.958,0.949-1.213c-0.474-0.348-0.888-0.652-1.304-0.957c0.188-0.223,0.376-0.447,0.732-0.867
		c-2.896-0.783-5.335-3.42-8.764-1.752c-0.017,0.353-0.043,0.799-0.07,1.326c0.959-0.422,1.888-0.836,3.106-1.372
		c-0.296,0.625-0.404,0.866-0.609,1.302c0.892-0.26,1.544-0.455,2.191-0.646c0.121,0.106,0.243,0.21,0.367,0.314
		c-0.441,0.577-0.807,1.241-1.34,1.719c-0.886,0.804-1.603,0.565-2.328-0.421c-0.219-0.293-1.238-0.215-1.782-0.008
		c-1.65,0.617-3.247,1.373-4.883,2.484c0.49,0.121,0.998,0.212,1.478,0.369c2.643,0.861,5.384,1.52,7.879,2.705
		c1.215,0.574,1.97,2.143,3.184,3.549c-0.877,0.324-1.639,0.831-2.416,0.854c-1.863,0.06-3.738-0.183-5.604-0.134
		c-0.598,0.015-1.175,0.561-1.962,0.965c-0.269-0.242-0.721-0.658-1.213-1.112c0.429-0.646,0.804-1.219,1.254-1.902
		c-0.774-0.29-1.439-0.534-2.122-0.79c-0.461,0.844-0.877,1.71-1.393,2.516c-0.262,0.408-0.669,0.949-1.072,1.004
		c-2.337,0.329-4.69,0.525-7.04,0.787c-0.544,0.062-1.081,0.187-1.62,0.298C284.059,271.814,283.27,272,282.183,272.244z"/>
	<path fill-rule="evenodd" clip-rule="evenodd" fill="#38404C" d="M249.254,329.3c-0.24,0.36-0.4,0.603-0.618,0.931
		c1.354,0.751,2.578,1.596,4.263,0.763c0.555-0.277,1.469-0.19,2.063,0.078c3.301,1.493,6.855,0.364,10.188,1.089
		c3.365,0.733,6.648,1.842,9.973,2.766c0.312,0.085,0.745,0.188,0.975,0.043c3.084-1.957,6.58-1.362,9.926-1.615
		c2.531-0.191,5.074-0.229,7.619-0.317c0.439-0.014,0.934-0.021,1.314,0.159c0.34,0.16,0.693,0.553,0.774,0.904
		c0.051,0.215-0.362,0.633-0.656,0.802c-0.312,0.186-0.755,0.324-1.101,0.255c-5.944-1.202-11.693,0.992-17.561,0.996
		c-2.158,0-4.318-0.32-6.474-0.531c-5.007-0.484-9.94-1.582-15.068-0.787c-2.25,0.352-4.674-0.493-7.021-0.706
		c-1.463-0.138-2.938-0.04-4.396-0.194c-0.458-0.049-0.865-0.57-1.298-0.877c0.294-0.4,0.541-0.854,0.896-1.197
		c0.341-0.332,0.913-0.466,1.171-0.835C245.439,329.283,246.817,328.737,249.254,329.3z"/>
	<path fill-rule="evenodd" clip-rule="evenodd" fill="#38404C" d="M160.396,292.998c-0.139-0.547-0.278-1.09-0.476-1.855
		c3.886,3.97,6.971,8.328,5.377,11.584c-2.353-3.056-3.813-6.363-4.963-9.842L160.396,292.998z"/>
	<path fill-rule="evenodd" clip-rule="evenodd" fill="#38404C" d="M264.81,293.295c1.081,0.352,2.012,0.652,2.967,0.963
		c-0.258,1.217-0.078,1.787,1.451,4.35c-0.572,0.268-1.149,0.543-1.919,0.904c-0.602-1.215-1.221-2.468-1.88-3.807
		c-0.42,0.452-0.914,0.995-1.421,1.554C262.83,295.377,262.83,295.377,264.81,293.295z"/>
	<path fill-rule="evenodd" clip-rule="evenodd" fill="#38404C" d="M182.701,385.094c-1.586-2.18-3.174-4.357-4.761-6.539
		c0.214-0.146,0.428-0.294,0.643-0.443c1.569,2.193,3.136,4.385,4.707,6.576C183.093,384.822,182.898,384.957,182.701,385.094z"/>
	<path fill-rule="evenodd" clip-rule="evenodd" fill="#38404C" d="M214.096,335.016c0-0.65,0-1.3,0-2.465
		c0.683,1.056,1.032,1.604,1.535,2.384c0.724-0.883,1.284-1.576,1.845-2.266c-1.717,3.982-1.158,3.817-3.427,2.29L214.096,335.016z"
		/>
	<path fill-rule="evenodd" clip-rule="evenodd" fill="#38404C" d="M256.717,345.214c1.18-1.198,2.25-0.946,3.65,0.784
		c-1.487,0-2.561,0-3.633,0C256.728,345.733,256.724,345.477,256.717,345.214z"/>
	<path fill-rule="evenodd" clip-rule="evenodd" fill="#38404C" d="M297.611,205.921c-0.811-0.436-1.642-0.844-2.418-1.336
		c-0.145-0.089-0.068-0.527-0.094-0.808c0.245-0.008,0.517-0.094,0.727-0.013c0.789,0.303,1.558,0.661,2.433,1.035
		c-0.253,0.394-0.524,0.811-0.788,1.23C297.466,206.03,297.611,205.921,297.611,205.921z"/>
	<path fill-rule="evenodd" clip-rule="evenodd" fill="#38404C" d="M245.645,270.621c-1.811,0-3.33,0-4.853,0
		c0.004-0.196,0.013-0.39,0.015-0.585C242.323,270.319,243.917,269.02,245.645,270.621z"/>
	<path fill-rule="evenodd" clip-rule="evenodd" fill="#FFFFFF" d="M165.891,270.182c3.156,4.599,4.188,5.084,7.501,3.652
		c-0.5,1.365-1.235,2.039-3.71,2.602c-1.424,0.319-2.077,0.978-2.322,2.354c-0.118,0.662-0.468,1.316-0.843,1.883
		c-2.812,4.234-1.931,8.822,2.273,11.569c2.254,1.47,3.803,3.499,4.75,6.009c0.087,0.229,0.182,0.602,0.068,0.734
		c-1.323,1.6,0.117,2.33,0.943,3.303c0.445,0.521,1.071,1.194,1.041,1.762c-0.102,1.91,1.564,2.732,2.273,4.121
		c0.195,0.383,0.983,0.422,1.449,0.703c0.299,0.181,0.727,0.544,0.702,0.774c-0.042,0.354-0.449,0.966-0.668,0.95
		c-2.168-0.137-4.514,0.062-6.448-0.73c-1.756-0.721-3.096-2.523-4.534-3.938c-0.233-0.232-0.077-0.943,0.006-1.42
		c0.127-0.739,0.5-1.47,0.49-2.203c-0.028-2.201-0.132-4.406-0.32-6.6c-0.156-1.779-1.626-2.352-3.215-1.346
		c-0.372-0.569-0.718-1.158-1.122-1.703c-1.97-2.691-3.02-5.609-2.591-9.025c0.328-2.6,0.24-5.266,0.721-7.832
		C162.754,273.568,163.917,271.578,165.891,270.182z"/>
	<path fill-rule="evenodd" clip-rule="evenodd" fill="#38404C" d="M223.748,196.669c3.521-1.134,5.609,0.577,8.197,2.5
		c-1.823-0.366-3.12-0.526-4.357-0.904C226.386,197.895,225.247,197.301,223.748,196.669z"/>
	<path fill-rule="evenodd" clip-rule="evenodd" fill="#38404C" d="M169.316,369.308c1.177,1.839,3.06,3.312,3.086,5.735
		C170.875,373.385,169.008,371.902,169.316,369.308z"/>
	<path fill-rule="evenodd" clip-rule="evenodd" fill="#38404C" d="M228.06,256.686c-0.719-1.787,0.782-1.674,1.674-1.777
		c0.7-0.076,1.454,0.326,2.223,0.983c-1.316,0.248-2.632,0.491-3.941,0.741C228.021,256.641,228.06,256.686,228.06,256.686z"/>
	<path fill-rule="evenodd" clip-rule="evenodd" fill="#38404C" d="M284.441,201.586c-1.08,2.577-3.019,2.236-4.509,2.847
		c-0.067-0.141-0.139-0.28-0.204-0.421C281.142,203.283,282.558,202.557,284.441,201.586z"/>
	<path fill-rule="evenodd" clip-rule="evenodd" fill="#38404C" d="M180.377,372.084c-1.564-0.268-2.539-1.801-1.854-3.521
		c0.675,1.341,1.236,2.457,1.802,3.57L180.377,372.084z"/>
	<path fill-rule="evenodd" clip-rule="evenodd" fill="#38404C" d="M168.252,266.264c-0.48,0.838-0.966,1.678-1.448,2.513
		c-0.195-0.042-0.394-0.086-0.591-0.126c0.15-0.668,0.176-1.402,0.493-1.971c0.212-0.39,0.83-0.555,1.267-0.816
		C168.066,265.997,168.16,266.131,168.252,266.264z"/>
</g>
</svg>
