<?xml version="1.0" encoding="utf-8"?>
<!-- Generator: Adobe Illustrator 16.0.0, SVG Export Plug-In . SVG Version: 6.00 Build 0)  -->
<!DOCTYPE svg PUBLIC "-//W3C//DTD SVG 1.1//EN" "http://www.w3.org/Graphics/SVG/1.1/DTD/svg11.dtd">
<svg version="1.1" id="Ebene_1" xmlns="http://www.w3.org/2000/svg" xmlns:xlink="http://www.w3.org/1999/xlink" x="0px" y="0px"
	 width="500px" height="500px" viewBox="0 0 500 500" enable-background="new 0 0 500 500" xml:space="preserve">
<path fill="#38404C" d="M64.458,209.067c0.01-0.067,0.017-0.136,0.025-0.204c-0.044,0.034-0.088,0.067-0.132,0.101L64.458,209.067z"
	/>
<g>
	<path fill="#38404C" d="M61.393,234.072c0.009,0.043,0.019,0.086,0.028,0.129c0.046-0.016,0.086-0.036,0.135-0.051L61.393,234.072z
		"/>
	<path fill="#38404C" d="M209.885,499c-0.939-4.561-1.752-9.156-2.982-13.638c-2.768-10.093-5.812-20.109-8.758-30.153
		c-0.138-0.467-0.344-0.954-0.646-1.329c-8.317-10.295-8.979-23.063-11.141-35.274c-0.598-3.375,0.424-7.037,0.724-10.828
		c1.243-0.156,2.386-0.301,4.778-0.602c-2.755-2.262-4.904-4.025-7.735-6.351c5.233,0.395,9.362,0.985,13.483,0.938
		c4.18-0.047,8.35-0.723,13.16-1.185c0,32.63,0,65.83,0,98.421h89.638c-0.322-48.701-4.522-59.462-4.524-111.295
		c-0.279,0.016-0.323,0.008,0-0.037c0,0.012,0,0.024,0,0.037c1.412-0.082,8.973-0.804,7.334-0.704
		c-16.389,0.995-39.172-18.363-55.334-20.667c-4.524-0.645-9.629-21.858-14-21.333c-7.333-6-12.424-11.579-17.219-15.215
		c-0.414-0.313-0.359-1.37-0.361-2.081c-0.023-7.258-0.015-14.514-0.015-22.15c3.532,1.315,6.085,0.4,6.431-2.987
		c0.774-7.616,1.245-15.157-2.441-22.487c-3.259-6.481-5.896-13.322-8.246-20.196c-1.571-4.595-3.574-8.077-8.755-8.329
		c-0.218-3.35,0.169-6.682-0.742-9.613c-2.413-7.771-5.237-15.427-8.237-22.994c-0.828-2.089-2.711-3.845-4.374-5.486
		c-0.931-0.917-2.702-1.004-3.585-1.943c-7.387-7.859-14.668-15.817-21.954-23.77c-7.1-7.75-15.443-13.052-25.98-15.249
		c-8.009-1.67-15.851-1.91-23.824-0.663c-0.75,0.117-1.6,0.86-1.994,1.547c-0.25,0.437,0.256,1.308,0.491,2.259
		c0.907-0.799,1.553-1.368,1.824-1.607c1.85,1.679,3.417,3.103,4.976,4.519c-0.207,2.234-0.427,4.613-0.611,6.601
		c-2.846,0.909-5.485,1.753-8.215,2.625c-0.028-0.267-0.113-1.1-0.217-2.114c-1.309,1.02-2.542,1.98-3.912,3.049
		c-0.439-0.623-0.93-1.318-1.552-2.201c-0.405,1.966-0.728,3.527-1.049,5.087c-0.149-0.312-0.298-0.625-0.447-0.937
		c-2.623,0.735-5.246,1.471-8.098,2.271c0.002,0.03,0.079,0.97,0.1,1.23c-3.279,1.646-6.142,3.083-9.174,4.605
		c-0.141-0.314-0.507-1.137-0.874-1.961c-0.528-0.451-1.056-0.901-1.583-1.352c-1.752,2.672-3.505,5.344-5.258,8.015
		c-0.292-0.259-0.584-0.519-0.876-0.778c0.193-0.525,0.466-1.038,0.556-1.58c0.081-0.491-0.038-1.016-0.074-1.619
		c-8.196,3.161-10.114,10.856-13.588,17.314c-0.463,0.861-0.392,2.009-0.519,3.05c1.079-0.824,2.159-1.648,3.239-2.472
		c0.357,0.238,0.713,0.478,1.07,0.717c-1.571,2.848-3.143,5.698-4.555,8.257c0.844-0.538,2.198-1.401,4.069-2.594
		c-1.837,5.012-3.397,9.271-4.959,13.531c-0.424-0.037-0.849-0.074-1.273-0.111c-0.218-0.997-0.435-1.993-0.653-2.989
		c-2.8,0.994-2.458,3.303-1.879,5.397c1.063,3.846,3.292,7.553,0.746,11.611c0.188,0.107,0.377,0.216,0.612,0.35
		c0.218-0.282,0.415-0.593,0.666-0.85c0.714-0.73,1.451-1.438,2.179-2.155c0.328,0.824,0.617,1.668,0.993,2.471
		c0.603,1.29,1.263,2.553,1.899,3.828c0.667-0.375,1.335-0.748,2.002-1.122c-1.229-10.583,5.974-18.167,8.438-26.599
		c1.197,0.202,2.353,0.741,2.736,0.404c1.985-1.75,3.606-3.594,4.332-6.495c0.476-1.901,3.135-3.256,4.816-4.857
		c0.254,0.229,0.508,0.457,0.762,0.685c-0.33,0.716-0.892,1.424-0.918,2.152c-0.022,0.605,0.443,1.509,0.953,1.769
		c0.445,0.227,1.65-0.078,1.832-0.467c0.695-1.496,1.689-2.02,3.201-2.833c3.207-1.725,5.615-4.887,8.531-7.234
		c0.707-0.57,2.118-0.267,3.205-0.365c0.179,0.278,0.358,0.558,0.538,0.836c2.151-3.222,4.416-6.375,6.425-9.685
		c1.986-3.273,6.514-3.768,9.367-1.152c2.11,1.934,4.458,3.997,7.07,4.809c1.131,0.352,3.13-0.401,5.011-0.066
		c4.448,0.792,7.953,4.875,12.941,3.616c0.334-0.084,0.828,0.407,1.23,0.66c1.529,0.965,3.073,1.911,4.567,2.929
		c0.786,0.534,2.127,1.223,2.108,1.806c-0.097,2.982,1.61,2.766,3.86,2.007c0.117,1.973,0.159,3.646,0.345,5.303
		c0.077,0.682,0.461,1.903,0.706,1.903c4.05,0.004,3.847,4.346,7.208,5.888c-1.7,0.527-2.478,0.769-3.687,1.143
		c1.809,1.169,3.113,2.012,4.371,2.825c-3.689,9.339-3.586,11.308-0.604,13.17c3.688-0.572,6.305-1.337,8.864-1.181
		c0.907,0.055,1.679,2.356,2.759,4.008c-4.434,0.383-5.052,1.277-4.799,4.963c-4.836,1.613-9.5,3.205-14.192,4.715
		c-2.04,0.657-4.339,0.777-6.151,1.799c-2.224,1.254-4.212,3.047-6.002,4.898c-0.931,0.965-1.216,2.553-1.793,3.859
		c-0.404-0.176-0.81-0.352-1.215-0.527c3.493,7.974-4.817,6.68-7.424,9.838c-5.525-4.628,1.13-10.128-1.3-15.79
		c-1.178,2.972-2.156,5.437-3.236,8.161c-1.79-0.947-3.363-1.779-4.936-2.611c0.065,0.344,0.131,0.688,0.197,1.032
		c-1.725,0.798-3.39,1.785-5.188,2.346c-2.515,0.784-5.131,1.242-7.699,1.86c-0.552,0.133-1.081,0.359-1.625,0.531
		c-2.824,0.889-5.712,1.631-8.424,2.786c-0.528,0.225-0.375,2.049-0.578,3.418c6.456-2.032,12.089-3.808,17.722-5.581
		c0.178,0.459,0.354,0.918,0.532,1.377c-7.207,0.287-12.134,4.967-17.413,8.742c-2.378,1.701-6.08,3.408-4.723,7.811
		c0.107,0.348-0.983,1.064-1.517,1.609c1.63-0.525,2.871-1.961,4.344-2.264c1.161-0.237,2.607,0.924,4.062,1.518
		c3.866-0.908,8.119-1.906,12.372-2.905c0.077,0.235,0.155,0.47,0.232,0.704c-2.734,1.149-5.468,2.3-8.714,3.666
		c4.889,2.13,8.858-3.324,13.313-1.357c0.091-4.48,1.667-7.158,6.003-8.52c1.604-0.504,3.708,0.577,6.133,1.04
		c0.317-1.126,0.393-3.53,1.583-5.071c1.52-1.965,3.754-3.641,6.027-4.686c2.234-1.025,4.42,0.029,5.408,2.506
		c0.956,2.398,1.56,4.952,2.68,7.262c0.61,1.256,1.785,2.572,3.032,3.117c3.151,1.375,4.782,4.279,4.018,7.662
		c-0.245,1.08,0.123,2.286,0.091,3.432c-0.039,1.463,0.157,3.068-0.373,4.356c-1.696,4.14-5.096,4.882-9.009,3.7
		c-1.377,3.976-2.018,4.262-7.28,5.392c-1.48,0.318-2.729,1.713-4.084,2.612c1.071,1.349,1.95,2.954,3.284,3.949
		c0.813,0.605,2.384,0.543,3.518,0.312c4.442-0.907,6.812,0.167,8.589,4.408c2.834-0.459,5.874-0.56,8.623-1.506
		c2.807-0.965,5.328-2.759,8.145-4.281c0.298,0.566,0.663,1.261,0.836,1.59c-2.32,1.462-4.332,2.795-6.409,4.021
		c-1.796,1.06-3.573,2.565-5.519,2.878c-5.822,0.936-10.609,3.678-15.097,7.274c-1.921,1.54-4,2.067-5.586-1.504
		c-1.308,1.685-2.321,2.989-3.572,4.603c-0.344-1.418-0.504-2.079-0.917-3.781c-2.383,9.324-8.951,15.865-9.701,24.823
		c-0.066,0.784-0.627,1.708-1.244,2.23c-2.862,2.427-2.186,4.857-0.245,7.368c0.042-0.024,0.084-0.041,0.127-0.066
		c0.04,0.026,0.079,0.052,0.118,0.078c1.252-0.178,2.596-0.638,3.68-0.289c0.801,0.258,1.205,1.752,1.786,2.693
		c-0.305,0.189-0.61,0.377-0.916,0.566c-1.516-0.99-3.032-1.982-4.549-2.971c-0.071,0.01-0.144,0.022-0.214,0.03
		c-0.011-0.015-0.021-0.028-0.031-0.042c-3.306,1.932-6.628,1.768-9.792-0.258c-3.866-2.477-7.618-5.131-10.505-7.088
		c-4.161,2.391-7.466,4.578-11.013,6.256c-4.333,2.049,5.771,33.484,1.473,35.596c-8.189,4.024-23.852,16.891-32,21
		c-17.277,8.713-1.694,21.344-19,30c0,28.96-34.504,21.246-39.403,45H209.885z M142.67,425.473
		c-0.248-0.579-0.227-1.567,0.114-2.055c1.817-2.603,3.775-5.104,5.884-7.906c1.507,1.359,2.855,2.575,4.202,3.791
		c0.145-0.082,0.29-0.164,0.435-0.246c-2.221-3.928-4.44-7.855-6.661-11.783c0.345-0.352,0.69-0.703,1.036-1.055
		c9.833,6.729,19.667,13.458,29.913,20.469c-4.904,0.944-8.881,2.184-12.89,2.293c-2.174,0.061-4.402-1.803-6.474-2.738
		c3.303,9.182-1.415,17.799-3.545,26.943C150.667,443.953,146.635,434.729,142.67,425.473z M167.827,433.658
		c-0.592-4.178-0.002-4.748,3.927-3.329c0.438,0.159,0.903,0.241,1.097,0.292c-1.877,6.32-3.734,12.576-5.593,18.83
		c-0.325-0.114-0.651-0.229-0.978-0.342c0-4.689,0-9.379,0-14.066c0.301-0.019,0.604-0.037,0.906-0.057
		c0.227,1.884,0.455,3.768,0.682,5.651c0.107-0.005,0.213-0.009,0.318-0.013C168.08,438.301,168.151,435.951,167.827,433.658z
		 M161.456,454.254c-3.643-5.146-3.238-10.95,1.121-13.343c-1.104,3.888-2.991,7.216,0.016,10.523
		C162.867,451.736,161.923,453.146,161.456,454.254z M164.337,469.049c3.242-3.223,2.014-6.863,3.322-9.963
		c2.507-5.943,6.346-11.326,10.164-17.847c2.143,4.041,3.664,6.913,5.473,10.325c-4.391,7.413-9.156,15.457-13.909,23.482
		C163.45,473.311,161.82,471.551,164.337,469.049z M198.472,481.402c-0.609,4.574-1.166,8.752-1.768,13.274
		c-1.533-0.357-3.742-0.874-6.746-1.574C192.975,488.957,195.729,485.171,198.472,481.402z M189.728,459.17
		c2.27,3.605,3.857,6.129,5.863,9.314c-4.199,6.465-8.97,13.811-13.755,21.177c-4.106-3.013-5.772-8.071-3.646-11.769
		C181.708,471.773,185.58,465.856,189.728,459.17z M185.496,320c-1.19-1.097-3.026-2.012-3.396-3.337
		c-0.401-1.444,0.557-3.267,0.922-4.923c0.317,0.125,0.636,0.25,0.952,0.375c0.773,2.392,1.545,4.781,2.317,7.173
		C186.026,319.525,185.761,319.762,185.496,320z M188.907,326.823c0.68-4.21,1.129-6.999,1.655-10.255
		c1.012,2.507,1.906,4.721,3.009,7.45C192.479,324.674,191.099,325.505,188.907,326.823z M167.095,293.092
		c-1.913-1.008-2.963-2.508-1.043-4.656c-6.572-2.125-7.663-4.841-3.781-9.539c-0.838-0.475-1.633-0.925-2.437-1.379
		c0.132-0.149,0.25-0.418,0.425-0.461c4.065-0.977,7.284-6.447,12.532-2.104c-2.453,0.434-4.751,0.841-7.05,1.248
		c-0.002,0.295-0.002,0.59-0.003,0.885c0.724,0.205,1.575,0.764,2.147,0.555c2.693-0.982,5.696,1.028,8.24-0.928
		c0.631,1.283,1.26,2.564,2.275,4.633c3.868,0.469,7.95-1.384,11.535-4.959c0.662-0.662,2.192-0.453,3.43-0.664
		c-0.439,9.531-8.652,8.566-14.527,11.57c0.854,0.115,1.23,0.217,1.604,0.211c7.369-0.111,7.369-0.113,7.116,7.144
		c-0.082,2.335-5.707,5.626-8.102,4.537C175.278,297.281,171.159,295.229,167.095,293.092z M133.542,362.514
		c0.286-1.467,2.495-2.559,4.558-4.46c-0.412-0.337-1.58-1.29-2.883-2.354c0.635-0.405,1.306-0.835,2.27-1.449
		c-3.718-4.194-0.363-7.435,1.846-10.396c0.911-1.22,3.713-1.167,5.691-1.428c7.414-0.975,14.842-1.85,22.269-2.731
		c0.557-0.065,1.145,0.118,1.717,0.186c0.135,0.369,0.27,0.738,0.404,1.106c-2.18,1.011-4.359,2.021-6.539,3.031
		c-3.214,1.49-6.506,2.842-9.575,4.588c-0.615,0.35-0.674,3.154-0.484,3.213c2.417,0.758,4.278,2.895,7.464,1.812
		c5.455-1.852,11.052-2.268,15.492,2.695c0.471,0.525,1.047,1.123,1.166,1.764c0.313,1.696-4.653,8.607-6.254,9.34
		c-3.012,1.377-5.871,3.096-8.902,4.426c-1.134,0.498-2.582,0.483-3.864,0.391c-2.111-0.152-3.731-0.375-5.929,1.178
		c-1.916,1.355-5.451,2.223-8.447-0.32c-2.292-1.943-4.524-5.271-9.455-2.578c1.317-1.602,1.89-2.299,2.463-2.996
		c-0.354,0.068-0.708,0.137-1.063,0.205C134.76,365.98,133.238,364.068,133.542,362.514z M122.534,377.709
		c2.909,1.467,4.887,2.56,6.941,3.482c4.159,1.868,8.606,3.237,12.471,5.578c3.64,2.204,6.71,5.363,9.937,8.211
		c0.219,0.192-0.352,1.28-0.557,1.952c0.018-0.004,0.035-0.007,0.052-0.011c0.014-0.025,0.027-0.05,0.041-0.075
		c0.009,0.02,0.016,0.042,0.025,0.062c10.084-2.285,18.537,0.497,25.396,8.234c1.753,1.978,2.65,4.011,1.382,6.729
		c-0.632,1.354-0.553,3.039-0.743,4.243c-8.374-5.777-16.771-11.545-25.119-17.382c-0.491-0.343-0.629-1.188-0.916-1.824
		c-0.022,0.005-0.044,0.008-0.066,0.013c-2.99,5.478-5.995,10.947-8.964,16.437c-1.15,2.127-2.218,4.298-3.856,7.485
		c-6.527-14.148-12.624-27.362-19.117-41.438c2.312,1.457,3.777,2.379,5.916,3.725C124.33,381.158,123.688,379.926,122.534,377.709z
		"/>
	<path fill-rule="evenodd" clip-rule="evenodd" fill="#38404C" d="M177.453,499c-3.163-8.854-6.332-17.924-9.55-26.719
		c-5.24-14.308-10.081-28.805-16.105-42.773c-6.749-15.629-50.66-45.184-44.882-63.738c-3.174,2.939-13.149,13.953-16.008,16.736
		c-6.693,6.529-12.015,6.164-19.812,10.981c-7.337,4.534-12.936,2.218-41.431,23.374C6.061,433.28,0.886,488.61,0.114,499H177.453z"
		/>
	<path fill-rule="evenodd" clip-rule="evenodd" fill="#38404C" d="M247.22,390.225c0.992,14.666,1.67,29.197,5.229,43.762
		c3.643,14.922,4.217,30.674,5.291,46.115c0.435,6.263,0.139,12.582-0.214,18.898H397c-4.617-17.214-16.153-65.471-35.716-81.745
		c-10.723-8.919-58.445-29.041-78.352-36.811c-8.146-3.179-45.27-19.856-48.904-31.024c-0.443,0.383,13.631,37.963,13.188,38.347
		C247.216,388.584,247.169,389.406,247.22,390.225z"/>
</g>
</svg>
