<?xml version="1.0" encoding="utf-8"?>
<!-- Generator: Adobe Illustrator 16.0.0, SVG Export Plug-In . SVG Version: 6.00 Build 0)  -->
<!DOCTYPE svg PUBLIC "-//W3C//DTD SVG 1.1//EN" "http://www.w3.org/Graphics/SVG/1.1/DTD/svg11.dtd">
<svg version="1.1" id="Ebene_1" xmlns="http://www.w3.org/2000/svg" xmlns:xlink="http://www.w3.org/1999/xlink" x="0px" y="0px"
	 width="500px" height="500px" viewBox="0 0 500 500" enable-background="new 0 0 500 500" xml:space="preserve">
<g>
	<g>
		<path fill-rule="evenodd" clip-rule="evenodd" fill="#38404C" d="M204.243,343.13c-4.492-0.773-9.086-1.012-13.631-1.429
			c-3.178-0.288-6.359-0.489-9.533-0.731c-0.029,0.568-0.063,1.144-0.085,1.713c2.679,0.197,5.367,0.273,8.024,0.618
			c11.863,1.556,23.748,3.065,35.572,4.887c2.547,0.391,5.197,1.612,7.268,3.161c3.51,2.632,6.688,2.007,8.996-1.91
			c1.035-1.754,3.041-4.263,4.51-4.194c4.555,0.206,5.691-2.491,6.803-5.624c-5.35-7.633-15.709-12.003-14.443-23.787
			c1.95,0.088,3.254,0.148,6.019,0.27c-2.189-2.84-3.868-4.561-5.001-6.581c-1.857-3.306-4.924-6.928-4.682-10.205
			c0.473-6.316-2.781-5.464-7.428-5.511c2.606,8.72,3.344,16.855-2.479,24.416c-1.394-0.262-3.084-0.575-5.315-0.986
			c-0.891,8.274,5.588,3.329,7.59,4.604c1.631,6.026,3.102,11.451,4.664,17.257c0.362-0.512,0.656-0.934,0.963-1.351
			c0.383-0.517,0.779-1.03,1.235-1.627c3.544,5.144,3.531,5.086-2.058,6.28c-1.708,0.359-3.288,1.438-4.992,1.662
			c-4.464,0.593-11.36,2.853-12.953,0.901C210.027,340.97,207.118,343.624,204.243,343.13z"/>
		<path fill-rule="evenodd" clip-rule="evenodd" fill="#38404C" d="M165.494,279.704c4.332-0.208,7.586-0.365,11.893-0.571
			c4.818,5.213,7.289,4.633,12.447-3.76C181.519,272.942,170.562,274.477,165.494,279.704z"/>
		<path fill-rule="evenodd" clip-rule="evenodd" fill="#38404C" d="M184.181,269.646c1.887,0.389,3.476,0.715,5.061,1.043
			c0.023,0.234,0.038,0.473,0.057,0.705c-2.021,0.467-4.035,0.936-4.83,1.119c4.978,1.586,10.815,3.449,17.053,5.441
			C200.844,267.49,193.283,263.955,184.181,269.646z"/>
		<path fill-rule="evenodd" clip-rule="evenodd" fill="#38404C" d="M119.226,295.748c0.341-7.818,0.646-14.67,0.941-21.509
			C116.53,275.665,115.595,284.752,119.226,295.748z"/>
		<path fill-rule="evenodd" clip-rule="evenodd" fill="#38404C" d="M145.959,361.84c-0.007-0.017-0.014-0.034-0.02-0.05
			c-0.032,0.062-0.057,0.125-0.09,0.189c-0.003,0.004-0.006,0.008-0.009,0.012l0.124-0.141c0.792,2.227,1.589,4.447,2.385,6.668
			c0.239-0.096,0.478-0.191,0.72-0.284c-0.266-1.849-0.528-3.702-0.711-4.977c2.072-0.878,3.683-1.562,5.285-2.241
			c-0.749-2.358-1.493-4.703-2.018-6.359C149.426,357.439,147.691,359.644,145.959,361.84z"/>
		<path fill-rule="evenodd" clip-rule="evenodd" fill="#38404C" d="M153.643,361.017c0.016,0.051,0.032,0.102,0.048,0.152
			c0.024,0.026,0.049,0.053,0.074,0.08c-0.009-0.091-0.018-0.182-0.027-0.271C153.706,360.99,153.674,361.004,153.643,361.017z"/>
		<path fill-rule="evenodd" clip-rule="evenodd" fill="#38404C" d="M139.585,345.903c2.119,5.297,4.241,10.592,6.354,15.887
			C149.521,354.498,141.711,351.184,139.585,345.903z"/>
		<path fill-rule="evenodd" clip-rule="evenodd" fill="#38404C" d="M214.112,335.841c3.493-2.265,6.981-4.529,10.475-6.791
			c-0.23-0.543-0.461-1.084-0.694-1.628c-2.884,0.956-5.772,1.916-9.763,3.235c2.121,0.696,2.857,0.94,3.948,1.294
			c-1.866,0.977-3.318,1.739-4.771,2.497C213.575,334.913,213.845,335.377,214.112,335.841z"/>
		<path fill-rule="evenodd" clip-rule="evenodd" fill="#38404C" d="M204.972,320.63c4.438-1.035,7.629-1.782,11.143-2.602
			C211.552,314.374,208.915,314.825,204.972,320.63z"/>
		<path fill-rule="evenodd" clip-rule="evenodd" fill="#38404C" d="M221.895,365.786c0.106-0.538,0.204-1.076,0.307-1.61
			c-3.804-0.824-7.612-1.644-11.415-2.466c-0.141,0.738-0.281,1.484-0.414,2.227C214.215,364.552,218.057,365.169,221.895,365.786z"
			/>
		<path fill-rule="evenodd" clip-rule="evenodd" fill="#38404C" d="M332.38,424.723c-17.679-10.474-39.278-16.878-59.175-24.646
			c-0.224-0.087-0.45-0.17-0.677-0.252c-3.022-4.588-13.96-23.095-4.924-38.463c5.903-10.049,9.157-21,10.167-32.654
			c0.754-8.758,2.027-17.471,2.812-26.225c0.95-10.542,2.211-21.109,2.232-31.667c0.013-6.211-2.39-12.389-3.225-18.648
			c-1.444-10.847-2.232-21.788-3.859-32.605c-0.848-5.65-1.998-11.592-4.617-16.543c-2.846-5.376-7.374-9.604-10.312-15.398
			c-2.381-4.706-3.169-11.868-9.831-14.714c-2.011-0.852-2.56-5.109-3.787-7.798c-1.665-3.658-4.11-4.712-7.028-2.611
			c-4.57-3.621-9.056-7.176-13.793-10.929c-0.566,0.828-1.887,2.752-3.211,4.674c-1.227-0.544-3.059-1.953-3.681-1.541
			c-5.03,3.364-7.676-1.111-10.436-3.392c-4.213-3.491-5.29-2.022-5.273,3.797c-2.262-1.481-3.706-2.429-6.364-4.172
			c-2.596,0.139-6.98,0.37-11.483,0.605c0-0.913,0-1.671,0-1.814c-6.355,1.77-12.828,2.921-18.733,5.414
			c-5.318,2.243-10.376,5.509-14.917,9.123c-9.878,7.863-16.825,18.29-24.071,28.518c-7.616,10.745-8.321,23.157-9.064,35.25
			c-0.651,10.648,1.216,21.464,2.181,32.186c0.251,2.77,0.545,6.07,2.143,8.067c2.647,3.317,6.368,5.774,9.993,8.9
			c0.58-2.854,1.755-6.069,1.766-9.286c0.02-5.213-0.833-10.42-1.071-15.638c-0.063-1.351,0.777-2.744,1.206-4.116
			c0.358,0.103,0.72,0.209,1.082,0.313c-0.098,1.391-0.196,2.78-0.294,4.173c2.935-7.322,4.587-14.86,6.947-22.173
			c1.878-5.822,5.678-11.176,6.734-17.076c1.776-9.922,7.297-16.238,15.846-20.375c2.015-0.973,4.779-1.336,6.947-0.856
			c5.557,1.225,10.909,1.431,16.555,0.3c9.479-1.895,18.804-1.134,27.553,3.541c0.622,0.333,1.747,0.424,2.305,0.084
			c4.689-2.852,8.136-1.451,11.011,3.232c0.435-1.043,0.788-1.891,1.666-3.991c1.405,3.449,2.181,5.984,3.424,8.274
			c3.583,6.606,7.331,13.129,11.062,19.646c0.771,1.355,1.614,2.74,2.709,3.824c4.617,4.589,9.324,9.091,10.074,16.08
			c0.383,3.503,0.69,7.014,1.158,11.876c-4.626,2.005-10.197,4.674-15.965,6.805c-2.368,0.874-5.775-0.296-7.625,1.007
			c-3.398,2.402-6.423,5.662-8.731,9.142c-1.095,1.66-0.188,4.651-0.188,7.044c0.558,0.129,1.12,0.26,1.674,0.389
			c-0.933,0.432-1.87,0.861-2.769,1.278c6.419,6.876,9.524,8.098,15.406,6.528c-7.334-3.431-7.812-4.726-3.99-10.891
			c5.018,5.396,7.965,5.297,14.504-1.198c2.287,2.97,4.493,5.833,7.607,9.876c1.972-2.019,4.132-4.238,6.41-6.57
			c-1.269-0.766-2.04-1.23-3.31-2.004c2.121-1.004,3.634-1.723,5.32-2.521c1.419,4.492,3.344,8.425,3.778,12.516
			c0.571,5.354,2.019,12.424-0.635,15.889c-4.013,5.224-3.642,10.534-4.686,15.932c-0.729,3.744-0.924,7.606-1.78,11.319
			c-1.883,8.15-4.085,16.227-6.062,24.359c-1.031,4.233-6.355,8.162-10.973,7.852c-4.646,9.619-10.645,18.313-18.295,24.938
			c-2.641,0.841-5.104,1.62-7.548,2.4c0.132,0.62,0.269,1.24,0.405,1.859c-10.224-1.232-20.451-2.463-30.717-3.697
			c0.307-0.541,0.69-1.246,1.201-2.16c-1.648,0-3.158,0-4.744,0c-0.478-3.952-0.925-7.646-1.408-11.727
			c-0.705-0.039-4.078,0.744-5.024-0.428c-4.615-5.751-8.881-0.349-12.768,0.506c-2.507,0.555-3.669,0.658-5.182-0.996
			c-3.432-3.732-6.847-7.475-10.269-11.213c0.31,3.133,0.608,6.244,0.842,8.652c2.087,0.938,3.791,1.709,5.5,2.484
			c-0.626,0.787-1.25,1.583-2.16,2.734c1.878,1.471,3.806,2.968,5.712,4.494c0.647,0.518,1.844,1.461,1.75,1.627
			c-2.07,3.699,1.476,4.662,3.19,6.148c3.331,2.893,7.203,5.158,10.509,8.067c9.733,8.571,21.689,12.547,33.612,16.61
			c0.703,0.244,1.822-0.952,2.684-0.854c1.499,0.166,3.229,0.479,4.332,1.379c0.886,0.723,0.992,2.408,1.717,4.432
			c6.641-3.062,15.956-2.039,22.068-9.863c1.167,0.814,2.556,1.779,3.996,2.786c1.287-0.739,2.501-1.435,3.752-2.153
			c0.199,2.322,0.421,4.643,0.684,6.962c-9.452,16.538-37.418,58.659-49.307,75.938c4.472,0,41.389-37.779,53.883-50.829
			c2.513,13.125,3.068,26.758,4.001,40.165c0.482,6.92,0.069,12.859-0.326,19.841c0,0,135.711,0.289,138.774,0
			C394.773,484.745,344.382,431.833,332.38,424.723z M241.63,270.213c0.017-0.811,0.042-1.619,0.063-2.428
			c5.647,0.23,11.101-4.906,16.876-1.03c0.043,0.772,0.081,1.542,0.124,2.314C253.002,269.45,247.315,269.832,241.63,270.213z"/>
	</g>
	<path fill-rule="evenodd" clip-rule="evenodd" fill="#38404C" d="M197.646,487.738c-0.788-1.959-39.375-63.519-40.185-65.468
		c-4.92-11.834-12.771-22.412-15.664-35.114c0.349-4.37,0.901-8.737,1.604-13.103c0.541-3.363,1.282-6.699,2.044-10.646
		c-1.15,0.647-1.678,0.806-2.006,1.153c-0.831,0.908-1.614,1.869-2.343,2.87c-0.085,0.118-0.173,0.231-0.258,0.349
		c-2.967,2.843-5.141,6.084-7.879,8.738c-1.702,1.646-3.376,3.347-5.056,5.048c-4.572,3.665-9.686,6.672-15.516,8.86
		c-11.552,4.338-45.02,10.821-75.097,29.889c-39.756,35.6-37.259,79.556-37.259,79.556h183.025
		c-4.699-12.996-9.379-24.944-14.146-37.912C182.018,474.745,195.3,487.738,197.646,487.738z"/>
</g>
</svg>
