<?xml version="1.0" encoding="utf-8"?>
<!-- Generator: Adobe Illustrator 16.0.0, SVG Export Plug-In . SVG Version: 6.00 Build 0)  -->
<!DOCTYPE svg PUBLIC "-//W3C//DTD SVG 1.1//EN" "http://www.w3.org/Graphics/SVG/1.1/DTD/svg11.dtd">
<svg version="1.1" id="Ebene_1" xmlns="http://www.w3.org/2000/svg" xmlns:xlink="http://www.w3.org/1999/xlink" x="0px" y="0px"
	 width="500px" height="500px" viewBox="0 0 500 500" enable-background="new 0 0 500 500" xml:space="preserve">
<g>
	<path fill-rule="evenodd" clip-rule="evenodd" fill="#38404C" d="M183.674,499c-4.753-13.248-9.483-26.504-14.318-39.719
		c-5.241-14.308-10.081-28.805-16.106-42.773c-6.749-15.629-50.66-50.184-44.882-68.738c-3.174,2.939-13.149,18.953-16.008,21.736
		c-6.693,6.529-12.015,6.164-19.812,10.981c-7.337,4.534-12.936,2.218-41.431,23.374C16.317,419.252-3.613,478.822,1.957,499
		H183.674z"/>
	<path fill-rule="evenodd" clip-rule="evenodd" fill="#38404C" d="M250.672,388.225c0.992,14.666,1.67,29.197,5.228,43.762
		c3.643,14.922,4.218,30.674,5.292,46.115c0.479,6.924,0.067,13.916-0.326,20.898h140.13c-4.21-15.127-15.884-66.795-36.26-83.745
		c-10.722-8.919-58.444-29.041-78.351-36.811c-8.146-3.179-45.271-19.856-48.904-31.024c-0.443,0.383,13.63,37.963,13.187,38.347
		C250.667,386.584,250.62,387.406,250.672,388.225z"/>
	<g>
		<path fill="#38404C" d="M12.5,499h363.193c0.646-0.664,1.213-1.426,1.68-2.213c0.46-0.773,0.765-1.383,1.828-1.197
			c0.256,0.049,0.716-0.391,0.886-0.713c0.849-1.582,1.031-1.646,2.697-1.004c0.29,0.107,0.907-0.045,1.053-0.275
			c0.362-0.584,0.55-1.283,0.817-1.959c-1.001-0.58-2.348-0.096-3.221,0.686c-0.597,0.531-1.807,0.838-2.561,0.617
			c-0.853-0.242-0.66-1.193-0.194-2.002c0.607-1.055,0.263-1.471-0.786-2.141c-0.575-0.369-1.001-1.191-1.171-1.889
			c-0.12-0.475,0.319-1.094,0.608-1.943c0.903,1.898,1.513,2.084,3.056,1.271c0.222-0.117,0.442-0.24,0.682-0.293
			c0.81-0.186,0.933-0.645,0.503-1.273c-0.508-0.75-0.265-1.326,0.336-1.854c0.286-0.252,0.609-0.488,0.784-0.807
			c0.26-0.473,0.405-1,0.601-1.506c-0.617-0.074-1.273-0.291-1.849-0.164c-0.393,0.088-0.682,0.656-1.002,1.02
			c-0.174,0.188-0.311,0.391-0.617,0.793c0-0.484,0.06-0.711-0.013-0.875c-0.256-0.576-0.562-1.129-0.854-1.693
			c-0.277,0.424-0.539,0.873-0.85,1.27c-0.218,0.271-0.514,0.479-0.771,0.719c-0.226-0.26-0.561-0.486-0.669-0.785
			c-0.362-1.006-0.299-1.902,0.579-2.727c0.537-0.508,1.159-1.193,0.584-2.232c-0.247,0.256-0.392,0.451-0.571,0.588
			c-0.426,0.328-0.933,0.936-1.278,0.861c-0.479-0.107-1.12-0.707-1.176-1.16c-0.068-0.584,0.175-1.465,0.605-1.797
			c1.159-0.891,1.5-1.521,1.061-2.902c-0.379-1.191-0.175-1.506,1.185-1.809c0.285,0.77,0.516,1.576,0.887,2.305
			c0.153,0.305,0.604,0.586,0.949,0.627c0.196,0.018,0.452-0.469,0.674-0.73c0.26-0.291,0.498-0.607,0.771-0.891
			c0.264-0.277,0.558-0.529,0.848-0.797c-0.413-0.213-0.814-0.605-1.228-0.617c-0.692-0.025-1.112-0.115-1.116-0.93
			c0-0.299-0.341-0.58-0.409-0.893c-0.319-1.541-1.376-0.801-2.177-0.691c-0.869,0.113-1.228,0.668-1.228,1.584
			c0,0.771-0.226,1.547-0.357,2.314s0.085,1.732-0.294,2.283c-0.354,0.502-1.351,0.557-2.313,0.898
			c0.447,0.973,0.931,2.119,1.504,3.227c0.511,0.955,0.238,2.594-0.69,3.129c-0.938,0.541-1.935,0.969-2.914,1.459
			c-1.129-1.393-1.129-1.393-2.885-0.434c-0.294,0.156-0.644,0.283-0.835,0.527c-0.265,0.332-0.588,0.801-0.541,1.168
			c0.132,0.971-0.205,1.568-1.13,1.758c-0.911,0.18-1.785,0.158-1.823-1.367c-1.359,1.109-2.488,2.018-2.189,3.826
			c-0.277-0.025-0.465,0.01-0.593-0.059c-1.223-0.643-2.211-0.367-3.119,0.648c-0.4,0.455-0.924,0.889-1.482,1.111
			c-0.469,0.184-1.057,0.041-1.594,0.041c0.153-0.484,0.18-1.09,0.486-1.418c0.56-0.592,1.351-0.967,1.955-1.525
			c1.082-1.01,2.574-1.736,2.512-3.588c-0.019-0.723,0.377-0.752,1.008-0.424c0.384,0.189,1.014,0.189,1.402-0.002
			c0.877-0.434,1.61-1.193,2.505-1.529c0.895-0.34,1.214-0.889,1.394-1.721c0.063-0.309,0.366-0.576,0.558-0.863
			c0.26,0.273,0.541,0.531,0.784,0.82c0.103,0.121,0.081,0.354,0.191,0.451c0.324,0.285,0.674,0.713,1.04,0.727
			c0.234,0.012,0.669-0.574,0.707-0.926c0.106-1.031,0.4-1.82,1.772-2.027c-1.448-0.471-1.576-1.373-1.244-2.506
			c0.043-0.139-0.35-0.568-0.558-0.58c-0.435-0.035-0.896,0.191-1.334,0.18c-0.498-0.014-1.116-0.035-1.448-0.322
			c-0.247-0.225-0.167-0.863-0.171-1.318c0-0.432,0.081-0.865,0.128-1.301c-0.196-0.049-0.388-0.104-0.584-0.156
			c-0.334,0.848-0.801,1.666-0.954,2.539c-0.174,1.012-0.64,1.568-1.599,1.775c0.006,0.014,0.009,0.025,0.014,0.039
			c-0.009,0.006-0.019,0.008-0.026,0.012c0.108,1.029-0.104,1.807-1.068,2.516c-0.75,0.549-1.244,1.342-2.225,1.764
			c-0.732,0.307-1.086,1.457-1.645,2.199c-1.129,1.48-2.241,1.426-3.323-0.154c0.775-1.201,1.517-2.445,2.373-3.605
			c0.234-0.311,0.818-0.541,1.231-0.516c1.432,0.098,2.607-0.199,3.438-1.508c0.226-0.352,0.794-0.477,1.218-0.695
			c-0.002-0.016-0.002-0.029-0.004-0.045c0.007-0.002,0.011-0.006,0.017-0.006c-0.645-1.752-0.658-3.436,0.614-4.93
			c-1.359-0.973-2.245-0.777-3.229,0.285c-0.579,0.625-1.438,1.012-2.19,1.467c-0.736,0.447-1.87,0.682-2.155,1.312
			c-0.414,0.924-1.015,1.014-1.734,1.082c-2.02,0.193-3.543,1.326-4.902,2.66c-0.956,0.949-1.565,1.199-2.431,0.494
			c-1.491-1.223-1.973-2.199-1.035-3.18c0.247-0.256,0.234-0.746,0.366-1.125c0.166-0.477,0.337-0.959,0.546-1.426
			c0.132-0.297,0.409-0.547,0.477-0.85c0.605-2.521,0.912-2.77,3.532-2.885c0.252-0.01,0.49-0.287,1.04-0.631
			c-1.803-0.416-1.423-1.338-0.941-2.193c0.341-0.609,0.895-1.098,1.235-1.703c0.725-1.314,1.636-2.611,1.973-4.036
			c0.269-1.138,0.686-2.165,1.917-2.156c0.227,0.005,0.584,0.511,0.635,0.82c0.12,0.778,0.106,1.574,0.153,2.567
			c-0.148,0.085-0.647,0.272-0.988,0.609c-0.153,0.158-0.008,0.617,0,0.936c1.04-0.084,2.118-0.039,3.106-0.309
			c0.626-0.174,1.159-0.781,1.653-1.275c0.256-0.246,0.55-0.822,0.438-0.992c-0.196-0.292-0.682-0.516-1.065-0.541
			c-0.549-0.039-1.111,0.127-1.605,0.205c-0.162-0.764-0.133-1.49-0.452-1.997c-1.201-1.923-0.984-3.069,0.954-4.263
			c0.32-0.195,0.648-0.395,0.912-0.652c1.316-1.291,1.287-1.27,2.71-0.183c0.392,0.298,1.061,0.613,1.419,0.468
			c0.366-0.145,0.651-0.848,0.686-1.32c0.03-0.475-0.226-1.027-0.494-1.446c-0.426-0.647-1.372-1.228-1.351-1.813
			c0.013-0.536,1.014-1.039,1.568-1.567c1.973-1.888,3.852-3.888,5.945-5.614c0.999-0.826,2.389-1.248,3.671-1.638
			c0.963-0.285,1.594-0.958,1.078-1.819c-0.575-0.954-1.278-1.861-2.092-2.607c-0.58-0.541-1.402-0.922-2.178-1.143
			c-1.879-0.531-3.673-0.428-5.126,1.15c-0.575,0.633-1.21,1.226-1.776,1.875c-0.72,0.827-1.453,0.806-2.147-0.038
			c-0.413-0.509-0.856-1.059-1.406-1.372c-0.413-0.23-1.026-0.108-1.547-0.145c-0.072,0.209-0.14,0.422-0.204,0.633
			c0.813,0.554,1.636,1.093,2.441,1.664c0.311,0.219,0.833,0.537,0.806,0.76c-0.103,1.012-0.18,2.052-1.449,2.495
			c-0.664,0.234-1.286,0.782-1.764,1.329c-0.835,0.961-1.504,2.066-2.318,3.043c-1.304,1.559-1.273,1.42-3.021,0.596
			c-1.304-0.617-0.972-1.61-0.878-2.533c0.026-0.258,0.861-0.718,0.997-0.624c1.129,0.818,1.743-0.056,2.441-0.644
			c0.588-0.498,1.798-0.803,1.163-1.814c-0.242-0.381-1.397-0.191-2.348-0.285c-0.008-0.158,0-0.646-0.102-1.113
			c-0.103-0.477-0.32-0.922-0.49-1.38c-0.366,0.3-0.763,0.573-1.087,0.925c-0.175,0.2-0.226,0.525-0.311,0.807
			c-0.499,1.613-0.955,2.861-3.213,3.045c-1.632,0.137-2.854,0.494-4.035-0.952c-0.541-0.667-1.41-1.04-0.997-2.153
			c0.086-0.227-0.174-0.584-0.272-0.883c-0.285,0.128-0.626,0.188-0.844,0.384c-0.92,0.843-1.18,1.913-1.086,3.06
			c0.545,0.029,1.163-0.111,1.351,0.11c0.792,0.925,1.7,1.807,1.477,3.262c-0.232,1.517,0.296,2.198,1.762,2.431
			c0.767,0.121,1.099,0.516,1.158,1.219c0.06,0.775-0.302,1.261-1.064,1.463c-0.521,0.137-1.125,0.196-1.525,0.506
			c-1.138,0.881-2.126,0.482-3.226-0.068c-0.478-0.238-1.1-0.184-1.651-0.262c0.135,0.513,0.182,1.08,0.437,1.531
			c0.465,0.833,1.049,1.602,1.59,2.398c-0.098,0.111-0.191,0.232-0.29,0.342c-0.664-0.15-1.338-0.273-1.998-0.465
			c-1.464-0.426-1.837-1.365-1.228-2.757c0.23-0.521,0.23-1.146,0.337-1.722c-0.17-0.068-0.345-0.141-0.524-0.209
			c-0.354,0.456-0.779,0.865-1.039,1.368c-0.682,1.316-1.027,2.923-1.99,3.931c-0.945,0.978-0.984,2.759-2.863,3.023
			c-1.329,0.18-2.582,0.963-3.834,1.461c-0.818-1.598-0.678-2.068,0.558-2.752c0.882-0.495,1.854-0.93,1.812-2.062
			c-0.469-0.328-1.091-0.733-1.062-1.078c0.052-0.665,0.379-1.377,0.793-1.909c0.238-0.302,0.869-0.29,1.325-0.419
			c0.226-1.244,0.37-2.436-0.861-3.281c-0.085-0.062-0.179-0.222-0.166-0.322c0.2-1.346,0.23-2.752,0.665-4.018
			c0.558-1.645,0.345-3.34-0.768-4.708c-0.464-0.571-0.651-1.405-0.86-2.147c-0.068-0.249,0.115-0.725,0.328-0.842
			c0.196-0.105,0.613,0.066,0.865,0.218c0.325,0.189,0.592,0.485,0.933,0.784c0.64-1.792,0.319-2.461-1.938-4.311
			c0.077-0.094,0.141-0.225,0.236-0.264c1.72-0.671,2.942-1.985,4.021-3.361c0.417-0.535,0.63-1.562,0.417-2.182
			c-0.622-1.769,0.856-2.757,1.283-4.111c0.051-0.18,0.511-0.358,0.762-0.333c0.993,0.103,2.109,0.036,2.928,0.495
			c1.154,0.646,2.263,0.344,3.392,0.318c0.86-0.017,1.227-0.877,0.528-1.348c-1.428-0.961-2.373-2.785-4.504-2.638
			c-0.366,0.028-0.813-0.591-1.15-0.974c-0.068-0.072,0.205-0.644,0.332-0.646c1.442-0.032,2.885-0.005,4.334,0.032
			c0.127,0.004,0.251,0.204,0.385,0.285c0.757,0.471,1.469,1.027,2.27,1.381c1.005,0.434,2.101,0.671,3.132,1.068
			c0.724,0.281,1.401,0.693,2.104,1.034c0.272,0.13,0.671,0.386,0.801,0.296c0.23-0.166,0.452-0.611,0.375-0.838
			c-0.085-0.255-0.481-0.457-0.784-0.578c-0.673-0.275-1.423-0.403-2.062-0.744c-1.087-0.57-2.033-1.504-3.162-1.854
			c-1.883-0.572-3.404-1.67-5.034-2.667c-2.149-1.317-4.42-2.454-6.679-3.588c-1.436-0.716-2.959-1.274-4.431-1.931
			c-1.857-0.819-3.741-1.584-5.552-2.509c-2.292-1.179-4.513-2.505-6.779-3.737c-0.311-0.172-0.729-0.145-1.082-0.238
			s-0.81-0.137-1.01-0.375c-0.562-0.658-1.095-0.596-1.576-0.033c-0.997,1.158-1.969,0.803-3.081,0.166
			c-0.435-0.256-1.052-0.213-1.593-0.252c-0.963-0.068-2.054,0.173-2.872-0.195c-1.095-0.494-1.985-1.445-3.072-2.282
			c-0.17,0.206-0.588,0.539-0.763,0.968c-0.354,0.848-0.984,0.82-1.495,0.432c-0.605-0.449-0.993-1.182-1.551-1.695
			c-0.341-0.305-0.882-0.637-1.274-0.582c-0.562,0.09-1.525,0.535-1.521,0.808c0.034,1.249,0.099,2.605,0.602,3.716
			c1.116,2.441,3.404,4.337,3.332,7.328c-0.005,0.074,0.06,0.16,0.11,0.217c0.844,0.785,1.572,1.807,2.565,2.293
			c1.67,0.801,2.198,2.041,2.121,3.703c-0.051,0.943,0.218,1.593,1.15,1.97c0.281,0.112,0.469,0.62,0.575,0.978
			c0.354,1.193,0.38,2.591,1.04,3.55c0.929,1.345,1.636,2.663,1.802,4.282c0.133,1.235-0.094,2.604,1.197,3.473
			c0.196,0.127,0.192,0.536,0.333,0.79c0.328,0.613,0.732,1.19,1.039,1.813c0.192,0.396,0.333,0.841,0.388,1.281
			c0.205,1.547,0.371,3.106,0.528,4.662c0.068,0.664,0.256,1.376,0.094,1.989c-0.639,2.488,0.166,5.561,1.9,6.736
			c1.334,0.896,2.719,1.713,4.006,2.659c0.562,0.417,1.129,1.003,1.384,1.633c0.474,1.145,0.784,2.367,1.031,3.586
			c0.106,0.49-0.076,1.067-0.2,1.578c-0.089,0.383-0.323,0.727-0.562,1.256c0.95,0.105,2.093-0.021,1.812,1.227
			c-0.099,0.486-0.78,0.838-1.197,1.25c-0.111-0.082-0.234-0.168-0.358-0.258c-0.025,0.32-0.2,0.744-0.06,0.938
			c1.069,1.441,0.072,2.457-0.647,3.535c-0.299,0.445-0.613,0.875-0.946,1.297c-0.209,0.26-0.481,0.699-0.686,0.68
			c-0.294-0.031-0.771-0.377-0.797-0.633c-0.063-0.562,0.094-1.15,0.184-1.723c0.11-0.701,0.421-1.418,0.336-2.09
			c-0.149-1.164-0.609-2.297-0.788-3.465c-0.137-0.891-0.545-1.331-1.41-1.457c-0.277-0.038-0.593-0.137-0.797-0.319
			c-0.66-0.614-1.235-0.427-2.023-0.117c-3.277,1.28-4.095,0.976-5.139-1.683c-0.018-0.032-0.056-0.054-0.145-0.147
			c-1.177,0.392-1.445-0.478-1.666-1.354c-0.103-0.396-0.009-0.844-0.12-1.24c-0.307-1.053-0.357-2.506-1.082-3.055
			c-2.607-1.967-2.42-4.985-3.285-7.602c-0.102-0.303,0.013-0.669-0.055-0.992c-0.12-0.607-0.128-1.352-0.486-1.771
			c-0.686-0.803-0.57-1.527-0.319-2.415c0.311-1.1,0.49-2.237,0.635-3.368c0.03-0.23-0.281-0.592-0.528-0.737
			c-1.815-1.08-2.564-3.435-1.683-5.44c0.817-1.875,0.507-3.627-0.831-4.688c-0.869-0.686-1.576-3.17-1.338-4.256
			c0.166-0.78,0.183-1.607,0.153-2.408c-0.038-0.732-0.222-1.459-0.35-2.182c-0.166-0.926-0.042-2.117-0.575-2.723
			c-1.129-1.281-0.925-2.607-0.945-4.072c-0.021-1.66-0.405-3.324-0.687-4.973c-0.141-0.898-0.383-1.781-0.558-2.672
			c-0.141-0.711-0.273-1.423-0.367-2.139c-0.255-1.934-1.874-3.617-1.035-5.752c0.047-0.123-0.056-0.314-0.106-0.473
			c-0.264-0.865-0.523-1.724-0.818-2.576c-0.188-0.539-0.319-1.169-0.686-1.565c-1.475-1.589-1.444-3.709-2.232-5.511
			c1.504-0.77,1.67-1.311,0.49-2.02c-1.846-1.098-3.759-2.129-5.739-2.917c-3.141-1.246-6.447-1.021-9.74-0.682
			c-0.474,0.044-0.963-0.157-1.449-0.247c-0.635-0.128-1.278-0.379-1.9-0.346c-0.895,0.047-1.32-0.209-1.405-1.131
			c-0.103-1.074-0.814-1.531-1.846-1.679c-0.639-0.087-1.273-0.292-1.874-0.536c-1.291-0.527-2.54-1.172-3.839-1.652
			c-1.905-0.703-3.678-1.499-4.653-3.472c-0.161-0.333-0.92-0.725-1.163-0.603c-1.444,0.696-1.845-0.194-2.267-1.256
			c-0.145-0.345-0.469-0.805-0.763-0.841c-0.303-0.04-0.771,0.288-0.979,0.583c-0.273,0.391-0.443,0.899-0.512,1.381
			c-0.166,1.062-0.141,2.162-0.384,3.207c-0.251,1.099-0.916,1.369-1.708,0.635c-0.941-0.879-1.7-1.961-2.476-3.004
			c-0.665-0.893-1.061-2.113-1.913-2.715c-1.538-1.086-1.904-2.803-2.607-4.265c-0.737-1.521-0.755-3.388-1.142-5.094
			c-0.137-0.586-0.405-1.144-0.665-1.698c-0.946-2.066-2.122-4.049-1.39-6.5c0.422-1.45,0.562-1.727,2.062-1.369
			c4.21,0.999-0.57-0.974-1.27-1.164c-0.034-2.254,0.579-2.893,2.714-2.994c0.362-0.014,0.741-0.099,1.062-0.248
			c2.066-0.984,4.047-2.177,6.178-2.95c3.408-1.233,5.561-3.817,7.486-6.579c2.595-3.717,4.955-7.601,7.396-11.429
			c2.88-4.524,3.992-9.661,5.139-14.798c0.345-1.576,0.813-3.125,1.167-4.703c0.128-0.553,0.094-1.146,0.128-1.722
			c-0.137-0.013-0.272-0.026-0.409-0.038c-0.098,0.209-0.229,0.412-0.272,0.631c-0.247,1.346-0.375,2.727-0.725,4.047
			c-0.92,3.514-1.93,7.01-2.923,10.503c-0.06,0.216-0.272,0.507-0.456,0.546c-1.666,0.34-1.96,1.869-2.688,3.02
			c-1.282,2.041-2.676,4.176-5.146,4.63c-2.744,0.505-3.43,2.488-4.18,4.562c-0.281,0.801,0.229,1.227,1.031,0.891
			c0.916-0.384,1.768-0.912,2.671-1.321c0.413-0.179,0.895-0.213,1.343-0.313c-0.047,0.424,0.038,0.932-0.171,1.264
			c-1.129,1.832-2.301,3.643-3.515,5.42c-0.465,0.676-0.95,1.47-1.632,1.821c-1.952,1.01-3.993,1.847-6.025,2.688
			c-0.877,0.364-1.841,0.456-2.479-0.469c-0.49-0.718-0.013-1.728,1.035-2.367c0.247-0.152,0.533-0.221,0.793-0.357
			c0.66-0.339,1.363-0.625,1.964-1.053c1.27-0.916,1.304-1.576,0.256-2.748c-1.453-1.632-1.632-3.639-0.69-5.596
			c0.315-0.646,0.516-1.66,0.218-2.212c-0.546-0.995-0.227-1.832-0.094-2.759c0.195-1.387,0.43-2.771,0.498-4.165
			c0.103-2.062,0.209-4.062,1.7-5.724c0.55-0.616,0.938-0.633,1.385-0.057c0.451,0.584,0.75,1.311,1.27,1.824
			c1.729,1.713,3.388,3.408,3.114,6.174c-0.076,0.768,0.524,1.262,1.338,0.58c0.474-0.405,0.972-0.807,1.334-1.296
			c2.326-3.123,4.602-6.28,5.514-10.166c0.072-0.303,0.141-0.802-0.013-0.925c-1.031-0.884-2.126-1.691-3.2-2.52
			c-0.35-0.277-1.006-0.609-0.976-0.829c0.068-0.438,0.426-1.048,0.81-1.202c1.261-0.498,1.533-1.542,1.811-2.65
			c0.269-1.082,0.507-2.186,0.895-3.229c0.171-0.436,0.768-1.078,1.053-1.02c0.451,0.092,0.887,0.636,1.163,1.088
			c0.2,0.318,0.162,0.801,0.179,1.209c0.034,0.961,0,1.926,0.068,2.877c0.021,0.274,0.307,0.527,0.465,0.787
			c0.251-0.176,0.639-0.298,0.732-0.536c0.537-1.308,1.15-2.608,1.453-3.97c0.716-3.25,1.3-6.527,1.879-9.801
			c0.137-0.768,0.137-1.581,0.072-2.365c-0.076-1.01-0.745-1.444-1.661-1.074c-1.799,0.729-3.592,1.49-5.297,2.41
			c-1.661,0.889-3.233,1.953-4.806,3.008c-0.712,0.484-1.061,0.35-1.201-0.447c-0.064-0.361-0.073-0.739-0.073-1.114
			c0.026-1.96,1.572-2.914,2.715-4.147c0.409-0.441,0.911-0.95,1.018-1.502c0.371-1.871,0.648-3.773,0.836-5.676
			c0.426-4.465,0.801-8.937,1.154-13.408c0.341-4.27,1.338-8.504,0.835-12.817c-0.413-3.597-1.172-7.161-1.453-10.766
			c-0.604-7.627-3.246-14.544-7.196-20.949c-2.011-3.253-3.596-6.64-4.93-10.187c-1.159-3.075-3.285-5.513-5.543-7.776
			c-2.016-2.016-4.333-3.726-6.489-5.607c-1.623-1.423-3.152-2.943-4.798-4.344c-1.827-1.566-3.843-2.939-5.581-4.597
			c-3.55-3.388-8.011-5.323-12.109-7.823c-2.548-1.55-5.39-2.561-7.767-4.457c-2.761-2.197-6.021-3.317-9.536-3.755
			c-1.436-0.178-2.978-0.372-4.235-1.015c-2.97-1.538-6.123-1.753-9.335-1.878c-2.101-0.087-4.099,0.05-6.063,1.06
			c-1.376,0.709-2.97,1.104-4.517,1.36c-6.012,1.013-11.892,2.418-17.503,4.915c-4.878,2.173-9.412,4.79-13.025,8.82
			c-0.464,0.517-1.048,0.972-1.662,1.309c-2.859,1.577-5.705,3.161-8.104,5.44c-0.605,0.576-1.44,0.943-2.224,1.285
			c-1.568,0.687-3.166,1.293-3.826,3.107c-0.102,0.281-0.421,0.503-0.686,0.699c-2.633,1.995-5.416,3.825-7.87,6.013
			c-2.037,1.806-3.856,3.91-5.467,6.104c-1.265,1.728-2.113,3.765-3.034,5.714c-0.899,1.878-1.662,3.812-2.462,5.737
			c-0.286,0.684-0.58,1.375-0.729,2.091c-0.26,1.252-0.357,2.542-0.63,3.793c-0.469,2.143-1.862,4.078-1.487,6.419
			c0.008,0.083-0.009,0.171-0.034,0.251c-0.567,2.246-1.167,4.494-1.704,6.747c-0.618,2.58-1.381,5.143-1.726,7.766
			c-0.708,5.449-1.061,10.934-2.501,16.28c-0.311,1.172-0.2,2.586,0.149,3.762c0.435,1.466,1.299,2.809,1.998,4.193
			c0.856,1.708,0.217,2.982-1.418,3.74c-1.786,0.831-3.17,0.644-4.479-0.741c-0.141-0.146-0.341-0.243-0.528-0.331
			c-1.086-0.491-1.981,0.045-1.887,1.242c0.051,0.721,0.443,1.406,0.601,2.129c0.358,1.664,0.648,3.342,1.022,5.008
			c0.073,0.32,0.405,0.825,0.605,0.82c0.337-0.006,0.75-0.291,0.98-0.584c0.315-0.424,0.421-1.012,0.75-1.424
			c0.35-0.432,0.886-1.076,1.266-1.027c0.771,0.098,1.355,0.631,1.419,1.623c0.141,2.105,0.413,4.203,0.613,6.311
			c0.039,0.494,0.047,1.004-0.025,1.495c-0.396,2.957-0.891,5.901-1.219,8.866c-0.115,1.129,0.034,2.34,0.315,3.445
			c0.115,0.469,1.21,1.178,1.316,1.098c0.899-0.733,2.13-1.49,2.399-2.479c0.613-2.26,0.771-4.65,1.052-6.996
			c0.167-1.408,0.23-2.826,0.328-4.243c0.375,0.159,0.541,0.325,0.55,0.505c0.098,1.559,0.92,2.459,2.352,3.059
			c1.862,0.771,2.918,2.297,3.302,4.268c0.17,0.901,0.311,1.805,0.469,2.707c0.767,4.479,1.491,8.957,3.443,13.137
			c1.623,3.471,3.869,6.254,7.392,7.98c3.354,1.645,6.894,2.481,10.554,2.918c7.362,0.883,14.397,0.068,20.673-4.31
			c1.095-0.757,2.16-1.565,3.52-2.554c-0.669,1.729-1.15,3.088-1.708,4.418c-0.575,1.336-1.159,2.642,0.106,4.227
			c0.26-0.66,0.477-1.133,0.626-1.623c0.43-1.432,0.699-2.926,1.282-4.291c1.252-2.939,2.799-5.752,3.984-8.715
			c1.738-4.324,3.285-8.713,4.84-13.106c0.383-1.089,0.946-1.817,2.092-1.771c1.738,0.066,3.49,0.164,5.203,0.476
			c1.662,0.3,2.599,1.48,2.744,2.829c0.141,1.314,0.52,2.611,0.584,3.926c0.072,1.556,0.946,3.09,0.119,4.704
			c-0.102,0.209,0.481,0.812,0.81,1.177c0.255,0.278,0.758,0.4,0.891,0.709c0.865,2.025,1.921,4.02,2.416,6.137
			c0.831,3.582,2.284,6.912,3.571,10.303c0.366,0.963,0.456,1.451-0.733,1.637c-0.912,0.143-1.022,0.718-0.516,1.461
			c0.251,0.362,0.52,0.75,0.63,1.168c0.46,1.67,0.903,3.354,1.27,5.045c0.243,1.129,0.452,2.279,0.499,3.43
			c0.017,0.413-0.503,1.21-0.78,1.201c-1.542-0.004-3.089-0.137-4.623-0.35c-0.78-0.108-1.538-0.694-2.271-0.633
			c-0.822,0.072-1.563,0.727-2.484,0.241c-0.158-0.077-0.588,0.136-0.733,0.339c-0.699,0.916-1.662,0.986-2.684,0.994
			c-0.401,0.005-0.793,0.152-1.189,0.252c-1.376,0.357-2.74,0.779-4.133,1.046c-0.528,0.097-1.24-0.017-1.674-0.313
			c-2.208-1.531-4.887-1.521-7.312-2.352c-0.49-0.164-1.078-0.092-1.615-0.06c-1.133,0.062-2.267,0.198-3.404,0.251
			c-1.014,0.047-1.47,0.562-1.188,1.534c0.128,0.474,0.294,1.048,0.647,1.319c1.836,1.403,2.706,3.77,4.866,4.859
			c0.256,0.134,0.32,0.709,0.417,1.088c0.085,0.309,0.085,0.646,0.149,0.959c0.477,2.196,2.816,3.729,2.151,6.389
			c-0.217,0-0.515,0-0.818,0c0.379,0.348,0.933,0.613,1.005,0.977c0.132,0.682,0.435,0.67,1.006,0.758
			c0.626,0.094,1.193,0.559,1.79,0.86c0.366,0.188,0.733,0.526,1.108,0.537c3.314,0.036,6.625,0.021,10.042,0.021
			c-0.094,0.459-0.149,0.764-0.162,0.834c1.095-0.051,2.105-0.104,3.366-0.168c-1.176-0.921-0.379-1.629,0.068-2.246
			c0.145-0.2,0.869,0.013,1.244,0.034c0.128,0.895-1.487,1.316-0.243,1.888c0.541,0.247,1.461-0.326,2.25-0.537
			c-0.234-0.357-0.396-0.594-0.528-0.788c0.75-0.167,1.415-0.317,2.083-0.467c-0.03-0.168-0.064-0.33-0.094-0.496
			c-0.673,0-1.351,0-2.032,0c-0.009-0.085-0.021-0.171-0.039-0.256c0.264-0.128,0.516-0.255,0.848-0.426
			c-0.32-0.651-0.631-1.311-0.916-1.913c1.418-1.266,2.795-2.497,4.38-3.914c-1.93-0.293-2.211-0.846-1.474-2.162
			c0.153-0.279,0.443-0.473,0.652-0.732c1.274-1.543,2.868-2.807,3.426-4.908c0.29-1.092,0.038-2.65,1.687-3.111
			c0.119-0.035,0.115-0.682,0.089-1.031c-0.042-0.536-0.226-1.064-0.226-1.593c0-0.236,0.269-0.604,0.499-0.682
			c1.397-0.474,1.585-0.884,0.571-1.989c-1.014-1.1-1.018-2.212-0.43-3.426c0.371-0.771,0.882-1.168,1.785-0.642
			c0.746,0.431,1.568,0.901,2.105,0.063c1.04,0.382,1.926,0.717,2.825,1.047c0.899-1.115,1.691-0.977,2.957,0.527
			c1.048-0.262,1.206-1.137,1.074-1.947c-0.034-0.209-1.083-0.285-1.666-0.345c-0.324-0.03-0.656,0.122-0.984,0.162
			c-1.04,0.114-2.54-1.187-2.552-2.369c1.1,0.358,2.139,0.745,3.208,1.04c5.552,1.537,11.197,1.67,16.855,0.898
			c4.095-0.556,7.679-2.173,10.234-5.615c2.787-3.762,4.619-7.968,6.025-12.407c0.469-1.483,1.069-2.97,1.87-4.3
			c0.98-1.636,1.981-1.467,2.897,0.111c0.656,1.125,1.479,2.18,2.377,3.119c0.712,0.748,0.844,1.256,0.047,1.922
			c-0.285,0.225-0.601,0.408-0.958,0.651c0.17,0.307,0.238,0.673,0.443,0.775c0.971,0.487,0.813,1.176,0.498,1.985
			c-0.298,0.777-0.469,1.602-0.775,2.369c-0.145,0.359-0.49,0.639-0.733,0.952c-0.413,0.542-0.796,1.118-1.244,1.628
			c-0.647,0.727-0.272,1.268,0.209,1.855c0.103,0.127,0.124,0.426,0.052,0.584c-0.768,1.725-1.231,3.686-3.469,4.273
			c-0.281,0.072-0.609,0.865-0.541,1.261c0.149,0.812-0.013,1.408-0.682,1.839c-0.741,0.492-0.873,1.051-0.618,1.92
			c0.137,0.469-0.208,1.086-0.375,1.625c-0.136,0.398-0.328,0.775-0.498,1.165c-0.153,0.362-0.298,0.729-0.443,1.095
			c-0.183,0.447-0.597,0.948-0.498,1.33c0.396,1.591-0.486,2.647-1.44,3.619c-0.29,0.296-1.048,0.411-1.462,0.256
			c-0.929-0.339-1.602-0.178-1.946,0.748c-0.099,0.271-0.141,0.553-0.243,0.996c-0.767-0.038-1.513-0.085-2.229-0.119
			c-0.656,0.428-1.347,0.887-2.156,1.419c0.371,0.422,0.768,0.867,1.168,1.319c0.315-0.232,0.55-0.416,0.941-0.715
			c0.218,0.742,0.281,1.39,0.588,1.896c0.64,1.057,0.431,1.873-0.281,2.811c-0.276,0.375-0.188,1.156-0.038,1.689
			c0.191,0.684,0.2,1.176-0.571,1.333c-0.498,0.108-1.035,0.115-1.542,0.073c-0.716-0.057-0.891,0.174-0.703,0.869
			c0.546,2.062,0.213,3.924-1.359,5.475c-0.204,0.207-0.489,0.647-0.413,0.75c0.191,0.264,0.588,0.596,0.848,0.559
			c1.27-0.188,1.428,0.457,1.096,1.318c-0.584,0.377-1.002,0.867-1.458,1.316c-0.302,0.291-0.736,0.799-0.954,0.73
			c-0.379-0.128-0.75-0.58-0.898-0.976c-0.286-0.759-0.346-1.594-0.623-2.348c-0.145-0.386-0.549-0.673-0.835-1.005
			c-0.094,0.059-0.195,0.114-0.289,0.178c0.285,1.068,0.566,2.139,0.907,3.443c-0.647-0.222-0.984-0.393-1.338-0.439
			c-0.379-0.047-0.779,0.025-1.167,0.045c0.025,0.386-0.047,0.814,0.089,1.152c0.763,1.9,0.328,3.375-1.457,4.719
			c-1.087-0.961-0.345-1.83,0.247-2.545c0.759-0.912,0.2-1.366-0.451-1.773c-0.81-0.518-1.193,0.082-1.504,0.723
			c-0.592,1.21-0.861,1.197-1.862,0.245c-0.503-0.479-1.342-1.169-1.828-1.038c-2.531,0.701-4.142-1.472-6.404-1.713
			c0.239-0.37,0.4-0.615,0.524-0.812c-1.517-0.938-3.089,1.418-4.58-0.363c-0.149,0.407-0.256,0.727-0.345,0.955
			c-2.497-0.299-4.896-0.592-6.928-0.834c-0.903,0.666-1.632,1.207-2.229,1.65c-0.605-0.385-1.014-0.648-1.419-0.902
			c-0.132,0.16-0.272,0.326-0.405,0.486c0.592,0.641,1.193,1.282,1.688,1.812c-0.635,0.297-1.27,0.615-1.922,0.889
			c-0.222,0.092-0.485,0.096-0.737,0.092c-2.991-0.039-6,0.085-8.969-0.196c-2.407-0.228-4.763-0.558-7.153,0.099
			c-0.32,0.087-0.746-0.213-1.129-0.326c-1.385-0.398-2.748-0.857-4.15-1.17c-0.856-0.191-1.76-0.162-2.642-0.222
			c-0.17-0.017-0.337,0.005-0.49,0.009c-0.895,0.013-1.793,0.104-2.671,0.013c-1.734-0.177-3.489-0.298-5.151-0.747
			c-1.44-0.389-3.063-0.897-4.048-1.905c-0.759-0.769-1.338-1.843-2.28-2.501c-0.635-0.445-1.474-1.025-2.13-0.932
			c-1.973,0.286-3.438-0.83-5.04-1.525c-0.354-0.161-0.345-1.135-0.537-1.723c-0.042-0.137-0.23-0.232-0.358-0.33
			c-0.558-0.436-1.091-0.904-1.687-1.278c-0.401-0.254-0.882-0.441-1.351-0.534c-0.532-0.107-1.095-0.05-1.632-0.127
			c-1.397-0.186-2.778-0.532-4.175-0.583c-1.657-0.056-2.083,0.518-1.969,2.113c0.017,0.285,0.013,0.588-0.055,0.869
			c-0.333,1.325,0.217,2.235,1.283,2.968c0.916,0.619,1.926,1.188,2.637,2.002c0.516,0.592,0.72,0.773,1.568,0.548
			c1.172-0.323,2.607-1.261,3.664,0.196c0.767,1.062,1.986,1.453,2.996,1.636c2.706,0.499,5.181,1.329,7.392,3.004
			c1.21,0.923,2.586,1.466,4.184,1.228c0.315-0.043,0.652,0.08,0.972,0.159c4.721,1.14,9.459,2.184,14.128,3.471
			c2.066,0.566,4.159,0.801,6.229,0.933c2.462,0.156,4.955-0.266,7.435-0.334c1.777-0.047,3.575,0.219,5.343,0.078
			c1.858-0.141,3.243,1.359,5.177,1.09c1.598-0.229,3.34,0.523,4.93,0.287c1.197-0.18,2.165,0.098,3.238,0.285
			c0.511,0.088,1.061,0.023,1.576-0.09c1.095-0.232,2.177-0.549,3.264-0.82c0.456-0.112,0.976-0.383,1.372-0.258
			c1.261,0.408,2.437-0.105,3.643-0.164c0.29-0.012,0.58,0.062,0.874,0.097c-0.175,0.247-0.298,0.541-0.516,0.72
			c-0.175,0.146-0.46,0.158-0.724,0.232c0.277,0.229,0.537,0.439,0.912,0.75c-1.521,0.692-0.661,1.789-0.396,2.555
			c0.184,0.516,1.159,0.752,1.93,1.205c0.128,1.679-2.659,0.729-2.684,2.459c-2.339-0.094-3.349,1.859-2.275,4.555
			c-0.477-0.025-0.899-0.054-1.035-0.061c-0.648,1.006-1.057,2.391-1.807,2.612c-0.839,0.256-1.985-0.546-3.008-0.886
			c-0.063,0.359,0,0.891-0.188,1.006c-0.886,0.523-1.312,1.932-2.786,1.424c-0.345-0.123-0.853,0.263-1.304,0.324
			c-0.371,0.045-0.869,0.096-1.129-0.1c-0.941-0.727-1.636-0.17-2.152,0.451c-0.754,0.916-0.788,2.221-2.19,2.902
			c-0.707,0.336-0.924,2.119-0.946,3.259c-0.017,0.784-0.315,0.921-0.831,1.095c-0.29,0.103-0.601,0.154-0.903,0.227
			c0.017,0.127,0.047,0.256,0.081,0.383c0.588-0.148,1.185-0.298,1.777-0.443c-0.051,0.092-0.102,0.188-0.149,0.281
			c0.652,0.389,1.312,1.115,1.956,1.092c1.052-0.033,1.457,0.209,1.316,1.188c0.648,0.211,1.223,0.542,1.824,0.567
			c0.554,0.021,1.295-0.119,1.624-0.481c0.221-0.238,0.021-1.109-0.256-1.518c-1.01-1.465-2.458-1.254-3.928-0.854
			c-0.09,0.027-0.209-0.036-0.405-0.081c0.243-0.352,0.43-0.637,0.652-0.948c-0.409-0.17-0.725-0.307-1.278-0.541
			c0.622-0.272,1.01-0.443,1.389-0.605c0.869,1.475,2.343,0.906,3.481,1.289c0.085,0.032,0.315-0.37,0.477-0.568
			c-0.647-0.477-1.27-0.986-1.947-1.424c-0.269-0.174-0.874-0.129-0.912-0.276c-0.089-0.409-0.098-0.99,0.128-1.265
			c0.43-0.514,1.052-0.859,1.968-1.561c-0.174,2.383,0.588,3.711,3.051,3.81c-0.601,0.422-1.005,0.708-1.444,1.022
			c0.008,0.111-0.03,0.297,0.039,0.435c0.23,0.454,0.404,1.044,0.788,1.266c0.226,0.136,0.805-0.328,1.214-0.546
			c0.141-0.076,0.26-0.328,0.362-0.314c0.418,0.051,0.929,0.059,1.214,0.307c0.248,0.2,0.234,0.709,0.337,1.086
			c-0.35,0.086-0.725,0.299-1.048,0.243c-0.763-0.128-1.15,0.149-1.155,0.882c-0.004,0.439,0.137,0.878,0.243,1.438
			c-1.308,0-2.207,0.531-2.48,1.92c-0.06,0.29-0.485,0.588-0.805,0.737c-1.325,0.614-1.683,1.688-1.645,3.034
			c0.008,0.281-0.192,0.729-0.414,0.83c-1.427,0.635-3.14,0.75-3.903,2.49c-0.136,0.309-0.758,0.42-1.18,0.566
			c-0.349,0.12-0.763,0.082-1.082,0.237c-1.278,0.604-1.461,0.554-2.032-0.81c-0.341,0.023-0.669,0.047-1.317,0.085
			c0.49-0.536,0.771-0.843,1.125-1.241c-0.422-0.494-0.822-0.975-1.283-1.516c-0.903,0.984,0.286,2.78-1.465,3.2
			c0,0,0.038,0.089,0.021,0.122c-0.132,0.248-0.264,0.504-0.4,0.752c-0.158-0.261-0.422-0.504-0.443-0.768
			c-0.081-1.189-0.767-1.221-1.657-0.95c-0.4,0.117-0.797,0.224-1.333,0.377c0.213-0.905,0.379-1.567,0.537-2.235
			c-0.409-0.021-0.566,0.041-0.647,0.158c-1.858,2.621-3.238,2.991-6.123,1.709c-0.256-0.115-0.831,0-0.989,0.209
			c-0.426,0.57-0.686,1.27-1.074,1.881c-0.174,0.275-0.486,0.469-0.647,0.619c-0.622-0.6-1.121-1.082-1.802-1.746
			c0.042,1.496-0.413,1.811-1.436,1.351c-0.336-0.157-0.635-0.411-0.984-0.528c-0.507-0.175-1.04-0.271-1.564-0.395
			c0.017-0.036,0.034-0.068,0.051-0.102c-1.036-0.426-2.071-0.846-3.119-1.276c-0.166,0.398-0.29,0.692-0.545,1.291
			c-0.179-0.741-0.272-1.146-0.405-1.675c-0.473,0.131-0.873,0.238-1.368,0.371c0.29,0.579,0.588,0.971,0.644,1.397
			c0.025,0.251-0.29,0.712-0.541,0.792c-0.614,0.201-1.287,0.337-1.917,0.295c-0.558-0.035-1.159-0.252-1.627-0.559
			c-0.984-0.644-1.883-1.412-2.859-2.086c-0.162-0.113-0.495,0.025-0.75,0.045c-0.03,0.096-0.064,0.191-0.098,0.285
			c0.575,0.371,1.138,0.744,1.627,1.057c-0.485,0.438-0.813,0.863-1.248,1.089c-0.431,0.224-0.955,0.249-1.449,0.364
			c-0.269-1.576-0.63-1.955-1.453-1.709c-1.747,0.537-2.931-0.157-3.344-1.947c-0.043-0.188-0.137-0.453-0.277-0.52
			c-1.738-0.775-2.697-2.699-4.636-3.203c-0.174-0.047-0.281-0.369-0.417-0.567c-0.371-0.536-0.741-1.069-1.138-1.645
			c0.708-0.409,0.835-1.019,0.098-1.495c-1.065-0.68-2.211-1.215-3.459-1.889c-0.239-0.662-0.55-1.531-0.87-2.396
			c-0.507-0.15-1.15-0.471-1.15-0.781c0-1.197-0.882-1.572-1.585-2.203c-0.498-0.441-0.912-1.146-1.04-1.795
			c-0.158-0.744-0.013-1.57,0.103-2.351c0.132-0.925-0.277-1.425-1.1-1.685c-0.277-0.092-0.579-0.096-0.848-0.203
			c-0.967-0.404-1.04-1.259-0.899-2.103c0.055-0.347,0.49-0.933,0.699-0.909c1.151,0.13,1.229-0.541,1.231-1.348
			c-0.408,0.044-0.815,0.062-1.21,0.135c-1.044,0.203-1.598-0.246-2.02-1.199c-0.277-0.613-0.895-1.069-1.316-1.623
			c-0.272-0.367-0.741-0.865-0.656-1.172c0.311-1.15-0.558-1.77-0.997-2.564c-0.132-0.234-0.618-0.273-0.941-0.402
			c-0.009,0.33-0.025,0.658-0.042,0.986c-0.017,0.383-0.043,0.76-0.064,1.141c-0.328-0.309-0.686-0.592-0.95-0.941
			c-0.128-0.166-0.081-0.46-0.106-0.688c-2.037-0.054-2.216-0.045-2.314-1.888c-0.085-1.562-0.848-2.512-1.79-3.606
			c-0.912-1.068-1.436-2.467-2.232-3.898c0,0.727-0.03,1.418,0.013,2.106c0.043,0.616,0.307,1.251,0.217,1.841
			c-0.469,3.107-1.052,6.193-0.294,9.338c0.251,1.064,0.358,2.07-0.997,2.577c-0.26,0.096-0.311,0.651-0.52,0.954
			c-0.409,0.602-0.861,1.176-1.287,1.754c-0.154-0.066-0.307-0.131-0.46-0.196c-0.072-0.846,0.132-1.877-0.29-2.493
			c-0.839-1.229-0.464-2.426-0.264-3.592c0.396-2.226-0.251-3.185-2.51-3.304c-1.862-0.094-3.204,1.44-3.051,3.294
			c0.179,2.275,0.298,4.582-1.312,6.58c0.2,0.178,0.485,0.309,0.541,0.51c0.222,0.756,0.583,1.559,0.49,2.287
			c-0.081,0.525-2.629,0.119-2.867-0.529c-0.405-1.076-0.886-2.18-0.984-3.301c-0.23-2.447-0.124-4.921-0.371-7.357
			c-0.251-2.54-0.741-5.054-1.159-7.572c-0.085-0.527-0.183-1.1-0.438-1.547c-0.251-0.426-0.729-0.727-1.108-1.086
			c-0.286,0.359-0.665,0.678-0.852,1.082c-0.213,0.481-0.311,1.031-0.358,1.56c-0.128,1.368-0.899,2.202-2.105,2.683
			c-0.545,0.206-1.116,0.385-1.691,0.453c-2.356,0.271-3.784,1.675-4.823,3.688c-1.193,2.297-3.566,2.701-5.628,1.094
			c-0.277-0.211-0.81-0.33-1.108-0.207c-0.23,0.098-0.272,0.635-0.4,0.982c-0.098,0.238-0.175,0.5-0.315,0.725
			c-1.091,1.811-2.77,2.926-4.623,3.812c-0.805,0.379-1.073,1.002-0.882,1.848c0.256,1.088,0.137,2.088-0.405,3.111
			c-0.626,1.202-1.099,2.493-1.551,3.784c-0.856,2.427-1.627,4.878-2.48,7.308c-0.383,1.092-1.073,2.109-1.291,3.229
			c-0.421,2.201-2.096,4.049-1.798,6.443c0.013,0.068-0.047,0.166-0.102,0.221c-1.811,1.73-1.836,4.363-3.166,6.345
			c-0.158,0.222,0.047,0.69,0.077,1.035c0.256-0.054,0.512-0.119,0.767-0.166c0.298-0.047,0.588-0.063,0.886-0.094
			c0.021,0.375,0.124,0.773,0.039,1.134c-0.094,0.383-0.371,0.727-0.545,1.097c-0.661,1.417-1.334,2.823-1.947,4.255
			c-0.831,1.919-2.207,3.744-0.708,6.012c0.307,0.462,0.192,1.776-0.162,1.994c-1.624,0.994-1.734,2.469-1.76,4.068
			c-0.004,0.4-0.06,0.84-0.239,1.181c-0.694,1.312-0.98,2.616-0.392,4.06c0.158,0.385,0.171,0.947,0.009,1.317
			c-0.831,1.896-1.116,3.854-1.065,5.918c0.026,0.927,0.375,2.106-0.775,2.692c-1.44,0.729-2.041,1.82-1.811,3.414
			c0.366,2.582-1.594,4.058-2.851,5.859c-0.085,0.117-0.383,0.092-0.592,0.115c-0.49,0.066-0.993,0.088-1.483,0.189
			c-0.882,0.201-1.061,0.771-0.464,1.42c0.141,0.152,0.388,0.246,0.448,0.417c0.119,0.323,0.281,0.78,0.145,1.003
			c-0.119,0.196-0.652,0.241-0.971,0.182c-1.104-0.209-1.389-0.98-1.376-2.028c0.013-0.726-0.158-1.457-0.243-2.194
			c-0.073-0.682-0.23-1.371-0.183-2.045c0.06-0.932,0.558-1.922,0.366-2.775c-0.277-1.285,0.29-2.09,1.138-2.654
			c1.108-0.74,1.197-1.703,0.835-2.719c-0.29-0.808-0.183-1.276,0.439-1.83c1.099-0.977,1.159-2.201,0.008-3.051
			c-1.184-0.873-0.903-1.832-0.643-2.944c0.141-0.599,0.239-1.343,0.017-1.87c-0.362-0.836-0.026-1.274,0.537-1.691
			c1.15-0.865,1.589-2.961,0.533-3.781c-1.197-0.936-1.487-2.006-1.355-3.348c0.175-1.746,0.17-3.549,0.635-5.223
			c0.35-1.266,0.955-2.376,0.716-3.799c-0.106-0.672,0.456-1.462,0.75-2.192c0.336-0.831,0.729-1.651,1.069-2.488
			c0.196-0.503,0.23-1.091,0.507-1.53c1.606-2.52,3.251-5.014,4.913-7.494c0.494-0.741,0.669-1.314-0.056-2.084
			c-0.924-0.992-0.669-1.996,0.341-2.86c2.041-1.749,4.031-3.562,6.021-5.37c0.303-0.273,0.528-0.638,0.746-0.989
			c0.993-1.624,1.964-3.269,2.961-4.888c0.375-0.604,1.312-1.277,0.439-1.883c-1.07-0.734-1.078,0.576-1.521,1.119
			c-1.052,1.32-2.156,2.601-3.323,3.824c-0.682,0.713-1.432,1.465-2.296,1.891c-2.258,1.117-4.568,2.154-6.911,3.068
			c-2.825,1.09-5.718,2.002-8.573,3.021c-0.946,0.343-1.666,0.95-1.806,2.041c-0.085,0.716-0.064,1.47-0.294,2.135
			c-0.797,2.312-1.73,4.567-2.51,6.89c-0.447,1.312-0.92,2.697-0.955,4.057c-0.025,1.542-0.452,2.85-1.223,4.105
			c-1.342,2.179-3.093,4.162-3.396,6.855c-0.008,0.112-0.124,0.211-0.174,0.325c-0.559,1.363-1.142,2.721-1.653,4.103
			c-0.72,1.929-1.355,3.887-2.088,5.812c-0.166,0.447-0.528,0.852-0.877,1.199c-0.98,0.961-1.977,1.873-1.947,3.432
			c0.008,0.469-0.23,0.979-0.469,1.406c-0.644,1.195-1.312,2.387-2.032,3.527c-0.639,1.013-1.385,1.959-2.049,2.953
			c-1.155,1.709-2.433,3.354-3.358,5.178c-0.715,1.414-0.699,1.621-2.203,1.174c-0.891-0.268-1.602,0.359-1.393,1.26
			c0.085,0.348,0.277,0.67,0.43,1.021c-0.571,0.17-1.159,0.199-1.551,0.485c-1.078,0.771-2.058,1.671-3.106,2.472
			c-0.341,0.264-0.775,0.455-1.201,0.556c-0.686,0.155-3.229,2.474-3.34,3.165c-0.047,0.236-0.064,0.539,0.042,0.736
			c0.558,0.967,0.098,1.682-0.405,2.51c-0.511,0.83-1.069,1.799-1.095,2.713c-0.051,2.045,0.269,4.088,0.324,6.141L12.5,499z
			 M374.894,483.746c0.038-0.283,0-0.66,0.166-0.83c0.29-0.297,0.703-0.465,1.065-0.684c0.153,0.297,0.388,0.586,0.43,0.9
			c0.234,1.619-1.277,2.119-2.023,3.387C374.678,485.365,374.787,484.557,374.894,483.746z M351.504,490.375
			c0.402-0.018,1.242,0.871,1.17,1.174c-0.238,0.967-1.087,1.025-2.092,0.744C351.051,491.625,350.173,490.412,351.504,490.375z
			 M339.538,462.586c-0.746-0.33-1.496-0.66-2.476-1.092C338.426,460.764,339.116,461.068,339.538,462.586z M332.248,417.274
			c0.945,0.005,1.894-0.03,2.816,0.137c0.255,0.047,0.545,0.687,0.57,1.065c0.072,1.12-0.617,1.418-1.56,1.263
			c-1.142-0.009-2.054-0.96-1.998-2.04C332.09,417.545,332.196,417.271,332.248,417.274z M328.882,460.248
			c1.005-0.805,1.563,0.303,2.249,0.633c-0.272,0.68-0.468,1.174-0.664,1.664c-0.285,0.725-1.15,0.881-1.7,0.307
			C327.944,462.008,327.923,461.023,328.882,460.248z M323.867,413.896c0.635-0.593,1.312-1.696,1.836-1.631
			c1.044,0.137,2.07,0.824,2.957,1.492c0.188,0.139-0.098,1.425-0.503,1.721c-1.273,0.939-1.572,1.745-0.882,3.291
			c0.188,0.427,0.516,1.087,0.341,1.33c-0.471,0.647-1.159,1.146-1.798,1.652c-0.077,0.068-0.447-0.109-0.593-0.266
			c-1.704-1.783-1.946-3.805-0.895-6.08c0.35,0.02,0.737,0.036,1.116,0.053c0.068-0.115,0.133-0.238,0.205-0.357
			C325.153,414.766,324.659,414.428,323.867,413.896z M315.652,488.242c-0.039,0.309-0.555,0.562-0.853,0.838
			c-0.447-0.6-0.997-1.154-1.286-1.818c-0.081-0.201,0.558-0.771,0.941-1.064c0.238-0.186,0.617-0.18,1.078-0.291
			C315.588,486.785,315.741,487.525,315.652,488.242z M316.436,475.328c0.196-0.018,0.656,0.541,0.605,0.672
			c-0.256,0.598-0.644,1.143-1.185,2.035c-0.362-0.693-0.647-1.004-0.669-1.332C315.132,475.873,315.644,475.387,316.436,475.328z
			 M314.322,481.457c0.669,0.143,1.278,1.045,1.688,1.748c0.247,0.424-1.589,1.611-2.483,1.342
			c-0.533-0.156-0.861-0.982-1.543-1.824C312.964,482.152,313.743,481.33,314.322,481.457z M257.071,375.029
			c0.844-0.545,1.457-1.453,2.173-2.199c0.856-0.885,1.623-0.771,2.552,0.047c0.908,0.793,2.028,1.343,3.009,2.051
			c1.031,0.738,2.011,1.546,3.024,2.312c0.887,0.674,1.76,1.359,2.681,1.978c1.304,0.878,2.642,1.704,3.975,2.54
			c1.402,0.873,3.345,0.461,4.273-0.9c0.094-0.141,0.141-0.344,0.265-0.41c0.593-0.318,1.181-0.646,1.803-0.846
			c0.141-0.039,0.669,0.516,0.626,0.621c-0.29,0.65-0.571,1.59-1.1,1.797c-1.091,0.422-1.397,1.144-1.602,2.139
			c-0.426,2.047-3.234,4.25-5.364,4.256c-1.347,0.012-2.254-0.662-2.91-1.793c-0.984-1.682-1.798-3.518-3.063-4.943
			c-1.696-1.904-3.703-3.559-5.697-5.162c-1.035-0.826-1.887-0.421-2.709,0.654c-0.328,0.429-0.955,0.752-1.487,0.829
			c-0.238,0.04-0.763-0.599-0.853-0.999C256.53,376.35,256.13,375.639,257.071,375.029z M250.876,374.889
			c0.047,0.245,0.09,0.486,0.141,0.729c-0.409,0.056-0.818,0.113-1.223,0.168c-0.034-0.193-0.072-0.385-0.115-0.581
			C250.075,375.1,250.479,374.998,250.876,374.889z M191.405,195.407c-0.23,1.384-0.609,1.548-1.734,0.712
			C190.322,195.853,190.808,195.652,191.405,195.407z M188.094,195.951c0.128,0.166,0.26,0.326,0.379,0.49
			c-0.413,0.306-0.831,0.617-1.257,0.921c-0.085-0.166-0.273-0.451-0.239-0.483C187.327,196.542,187.715,196.257,188.094,195.951z
			 M179.709,189.646c0.307,0.085,0.566,0.336,1.086,0.684c-0.516,0.25-0.814,0.531-1.022,0.47c-0.234-0.067-0.46-0.409-0.542-0.674
			C179.198,190.016,179.598,189.611,179.709,189.646z M179.5,206.632c-1.265,0.174-2.526,0.347-3.796,0.525
			c-0.021-0.147-0.042-0.293-0.072-0.442c1.266-0.167,2.54-0.334,3.805-0.502C179.458,206.35,179.479,206.492,179.5,206.632z
			 M175.375,192.184c0.92,0.42,1.487-0.163,2.08-1.103c0.191,0.996,0.388,1.619,0.388,2.237c0,0.221-0.431,0.533-0.729,0.656
			c-1.078,0.446-1.461-0.625-2.113-1.075C174.971,192.874,175.363,192.176,175.375,192.184z M166.458,198.649
			c0.081,0.087,0.158,0.177,0.239,0.267c0.046-0.23,0.093-0.465,0.157-0.81c0.392,0.31,0.729,0.576,0.938,0.752
			c0.426-0.871,0.729-1.778,1.278-2.515c0.383-0.519,1.095-0.792,1.657-1.184c0.792-0.556,1.508-1.323,2.386-1.61
			c0.967-0.324,2.045-0.12,2.642,1.406c-1.155-0.117-2.152-0.21-3.2-0.313c1.351,1.976-0.912,2.776-1.577,4.104
			c-0.188,0.362-1.146,0.333-1.811,0.341c-0.545,0.572-0.435,1.917-1.7,1.86c-0.895-0.039-1.772-0.44-2.927-0.747
			C165.376,199.525,165.913,199.087,166.458,198.649z M175.167,199.455c-1.27,0.5-2.313,0.908-3.354,1.315
			C172.491,199.035,173.479,198.664,175.167,199.455z M152.649,205.293c0.371,0.172,0.652,0.532,0.976,0.814
			c-0.324,0.261-0.643,0.733-0.976,0.743c-0.4,0.013-0.869-0.307-1.189-0.605c-0.2-0.187-0.174-0.598-0.319-1.201
			C151.814,205.146,152.27,205.124,152.649,205.293z M134.604,199.341c-1.491,0.873-2.974,1.745-4.657,2.735
			C130.642,200.267,132.585,199.208,134.604,199.341z M160.894,304.182c-0.733,3.673-2.659,6.686-5.253,9.329
			c-0.405,0.415-0.592,1.04-0.95,1.519c-0.337,0.452-0.703,0.92-1.159,1.229c-4.503,3.019-9.467,4.147-14.874,4.003
			c-3.707-0.094-7.29-0.588-10.784-1.772c-1.057-0.358-2.113-0.82-3.046-1.417c-0.801-0.507-2.101-0.686-1.917-2.141
			c0.017-0.123-0.265-0.299-0.426-0.439c-2.424-2.155-3.75-4.955-4.576-8.018c-1.146-4.262-1.683-8.582-0.89-12.975
			c0.123-0.68,0.52-1.306,0.792-1.955c0.537,0.457,1.091,0.911,1.619,1.38c0.217,0.19,0.375,0.528,0.609,0.584
			c1.01,0.241,1.619,0.737,1.675,1.855c0.008,0.224,0.443,0.603,0.677,0.611c1.636,0.023,2.978,1.347,4.828,0.767
			c0.856-0.268,2.045,0.533,3.08,0.861c0.503,0.155,1.048,0.264,1.496,0.532c0.507,0.307,0.92,0.765,1.38,1.155
			c-0.341,0.355-0.626,0.906-1.044,1.037c-1.291,0.411-2.637,0.646-3.954,0.982c-0.49,0.127-0.946,0.35-1.423,0.527
			c0.043,0.126,0.094,0.252,0.137,0.375c1.542-0.213,3.08-0.504,4.631-0.619c1.38-0.105,2.791-0.29,3.954,0.943
			c0.375,0.383,1.278,0.217,1.909,0.398c2.288,0.662,4.567,0.701,6.89,0.175c1.764-0.398,3.549-0.696,5.326-1.003
			c0.315-0.057,0.716-0.039,0.976,0.114c0.328,0.188,0.708,0.521,0.784,0.853c0.055,0.226-0.315,0.703-0.592,0.826
			c-0.831,0.36-1.18,0.93-1.316,1.807c-0.047,0.328-0.58,0.838-0.891,0.844c-1.453,0.025-2.373,0.947-3.323,1.807
			c-0.55,0.502-0.511,1.1,0.111,1.608c0.281,0.228,0.502,0.546,0.809,0.718c0.281,0.166,0.763,0.362,0.959,0.234
			c1.517-0.938,2.991-1.951,4.478-2.939c0.272-0.178,0.554-0.434,0.852-0.48c2.752-0.44,4.103-2.736,5.978-4.354
			c0.494-0.433,1.432-0.402,2.168-0.426C160.685,302.717,160.991,303.713,160.894,304.182z M137.779,283.981
			c-2.22,0.319-4.431,0.75-6.638,1.163c-0.302,0.061-0.613,0.252-0.839,0.465c-0.49,0.467-0.835,0.52-1.342-0.034
			c-1.048-1.134-1.082-1.134,0.362-2.306c-1.751,0.342-3.289,0.539-4.755,0.951c-1.449,0.4-2.846,1.018-4.261,1.547
			c-0.094-0.12-0.192-0.234-0.286-0.348c0.614-0.58,1.159-1.279,1.871-1.703c2.369-1.418,5.023-2.066,7.746-2.127
			c6.532-0.147,13.063,0.006,19.519,1.258c0.388,0.077,0.788,0.162,1.159,0.414c-1.691-0.084-3.396-0.053-5.066-0.29
			C142.645,282.605,140.263,283.623,137.779,283.981z M142.249,294.199c-0.021,0.115-0.039,0.221-0.06,0.34
			c-0.959,0.293-1.917,0.614-2.885,0.855c-0.213,0.053-0.618-0.105-0.737-0.293c-0.695-1.144-1.619-1.023-2.655-0.545
			c-0.486-0.869-0.238-1.282,0.742-1.152C138.521,293.649,140.382,293.933,142.249,294.199z M223.173,322.566
			c-1.892,1.623-4.261,2.51-6.72,2.809c-2.705,0.328-5.479,0.746-8.159,0.483c-4.009-0.386-8.061-0.97-11.755-2.812
			c-0.695-0.344-1.3-0.865-1.926-1.341c-1.235-0.941-2.573-1.794-3.634-2.905c-1.027-1.065-1.951-2.324-2.518-3.669
			c-0.358-0.854,0-2.011,0.068-3.032c0.017-0.325,0.294-0.789,0.158-0.935c-1.368-1.56,0.456-2.368,0.758-3.523
			c0.767,1.27,2.015,1.579,3.148,2.079c0.29,0.133,0.725,0.541,0.682,0.732c-0.179,0.84,0.392,0.973,0.929,1.228
			c0.716,0.347,1.385,0.839,2.13,1.112c0.886,0.328,1.819,0.572,2.752,0.718c1.176,0.177,1.432,0.505,0.941,1.455
			c-0.132,0.249-0.128,0.569-0.183,0.853c0.379-0.012,0.81,0.094,1.121-0.061c0.984-0.48,1.917-1.053,3.093-1.713
			c0.213-0.307,0.63-0.877,1.022-1.461c0.196-0.281,0.354-0.592,0.528-0.887c-0.358-0.148-0.711-0.328-1.078-0.422
			c-0.268-0.063-0.566-0.01-0.656-0.305c-0.512-0.459-1.01-0.93-1.538-1.378c-1.146-0.988-2.31-1.964-3.656-3.11
			c0.511-0.215,0.724-0.395,0.839-0.346c0.971,0.393,1.9,0.572,2.803-0.166c0.085-0.074,0.32-0.012,0.481,0.033
			c2.058,0.586,4.116,1.182,6.183,1.766c0.788,0.221,1.666,0.688,1.79-0.771c0.017-0.158,0.686-0.328,1.065-0.366
			c1.84-0.188,3.681-0.328,5.599-0.499c-0.03-0.57-0.047-0.92-0.073-1.439c0.35,0.06,0.669,0.047,0.938,0.166
			c1.803,0.805,3.597,1.645,5.403,2.465c0.221,0.1,0.575,0.287,0.686,0.207c1.448-1.096,3.622-0.016,4.874-1.651
			c0.034-0.056,0.149-0.056,0.481-0.164c0.124,0.485,0.371,0.97,0.333,1.427C229.534,313.07,227.872,318.541,223.173,322.566z
			 M240.642,292.605c-0.029,0.162-0.06,0.319-0.094,0.477c-1.448-0.105-2.952-0.014-4.342-0.37
			c-3.664-0.931-7.269-2.116-10.92-3.085c-2.037-0.543-4.138-0.869-6.233-1.182c3.489,1.488,7.332,2.348,9.6,6.227
			c-0.409-0.094-0.575-0.081-0.674-0.162c-3.843-3.033-8.397-4.45-13.084-5.283c-5.936-1.053-11.935-1.73-17.38-2.492
			c3.694,0,8.006,0,12.318,0c-5.156-1.406-10.414-1.513-15.701-1.295c7.605-0.793,15.156-0.342,22.621,1.18
			c4.721,0.961,9.369,2.322,14.068,3.44c1.671,0.398,3.396,0.611,4.994,0.888c0-1.286-0.337-2.465,0.085-3.223
			c0.452-0.803,1.623-1.199,2.463-1.766c0.256,0.359,0.341,0.424,0.35,0.494c0.042,0.404,0.063,0.813,0.098,1.221
			c0.294-0.322,0.597-0.629,0.882-0.957c0.635-0.75,1.219-1.549,1.904-2.24c0.295-0.299,0.806-0.389,1.219-0.572
			c-0.148-0.174-0.294-0.349-0.443-0.52c-0.558-0.219-1.12-0.437-1.729-0.678c-0.179,0.236-0.345,0.474-0.524,0.691
			c-0.481,0.572-0.976,0.891-1.665,0.223c-0.609-0.579-1.07-1.08-0.227-1.83c0.55-0.492,1.155-0.981,1.534-1.602
			c0.264-0.445,0.404-1.18,0.23-1.639c-0.23-0.572-0.836-1.012-1.278-1.506c-0.153,0.584-0.35,1.168-0.443,1.76
			c-0.09,0.602-0.004,1.229-0.141,1.812c-0.285,1.324-1.142,0.598-1.964,0.335c-0.094,0.584-0.158,1.087-0.256,1.647
			c-0.562-0.129-1.062-0.241-1.556-0.352c-0.047,0.089-0.094,0.174-0.141,0.264c0.562,0.411,1.466,0.736,1.585,1.248
			c0.128,0.584-0.447,1.321-0.971,2.033c-0.921-3.439-3.818-3.58-6.319-4.377c-0.319,1.256-0.541,1.341-1.606,0.656
			c-0.796-0.516-1.585-1.037-2.279-1.703c-1.018-0.057-1.789-0.393-2.292-1.475c-0.23-0.496-0.941-0.764-1.428-1.134
			c-0.128,0.141-0.242,0.277-0.366,0.422c0.687,0.698,1.376,1.394,2.135,2.151c-1.713,0.149-2.092-1.316-2.62-2.266
			c-0.584-1.053-1.096-1.477-2.318-1.247c-0.682,0.13-1.482-0.108-2.173-0.347c-1.367-0.473-2.692-1.062-4.035-1.598
			c-0.162-0.068-0.337-0.101-0.507-0.15c0.081-0.105,0.158-0.213,0.239-0.323c0.251,0,0.499,0,0.835,0
			c-0.09-0.206-0.111-0.343-0.192-0.405c-1.504-1.097-1.67-1.09-3.374-0.012c-0.2,0.123-0.456,0.155-0.699,0.221
			c-0.635,0.196-1.334,0.281-1.896,0.602c-0.72,0.4-1.083,0.328-1.487-0.405c-0.746-1.356-1.9-1.657-3.14-0.88
			c-0.222,0.139-0.281,0.521-0.499,0.925c-1.133-0.251-2.543-0.687-3.984-0.862c-1.368-0.158-2.773-0.273-4.086,0.523
			c-0.511,0.312-1.155,0.592-1.857-0.098c-0.575-0.557-2.731,0.549-3.485,1.639c-0.209,0.295-0.384,0.617-0.661,1.059
			c-0.269-0.494-0.469-0.865-0.724-1.323c-0.865,0.782-1.666,1.491-2.343,2.103c-0.942,0.35-1.994,0.473-2.642,1.055
			c-1.01,0.902-1.747,2.113-2.599,3.199c-0.311,0.412-0.609,0.834-1.018,1.385c0.537,0.658,0.49,1.485-0.481,2.167
			c-0.895,0.633-2.165,0.507-3.174-0.312c-0.209,0.169-0.405,0.342-0.903,0.768c0-0.725,0.03-1.138-0.008-1.547
			c-0.081-0.865-0.162-1.732-0.303-2.586c-0.106-0.652-0.286-1.295-0.477-1.926c-0.064-0.223-0.243-0.58-0.362-0.576
			c-0.247,0.012-0.613,0.154-0.707,0.352c-0.307,0.602-0.469,1.279-0.759,1.891c-0.157,0.332-0.469,0.837-0.703,0.837
			c-0.614-0.011-1.261-0.181-1.819-0.45c-0.145-0.065-0.17-0.822,0.004-1.064c0.759-1.027,0.367-1.213-0.686-1.538
			c-0.869-0.269-1.559-1.091-2.339-1.641c-0.822-0.586-1.624-1.199-2.471-1.747c-0.631-0.408-1.33-1.043-1.986-1.035
			c-1.354,0.018-2.258-0.656-3.166-1.432c-1.329-1.125-2.267-1.215-3.686-0.289c-1.708-1.062-3.545-1.074-5.432-0.768
			c-0.205,0.034-0.414,0.051-0.622,0.058c-1.044,0.036-2.037,0.028-3.119,0.347c-1.657,0.486-3.511,0.286-5.266,0.452
			c-0.584,0.056-1.138,0.337-1.624,0.794c-2.45,0-4.9,0-7.294,0c-0.021-0.389-0.055-0.846-0.085-1.301
			c-0.439,0.074-0.891,0.115-1.321,0.23c-0.644,0.172-1.368,0.264-1.9,0.625c-1.359,0.938-1.734,2.717-3.021,3.754
			c-0.179,0.141-0.272,0.584-0.192,0.818c0.32,0.899-0.281,1.266-0.89,1.5c-0.575,0.222-1.227,0.217-1.849,0.247
			c-0.597,0.196-1.176,0.521-1.777,0.561c-1.517,0.117-3.038,0.096-4.559,0.143c-0.008,0.149-0.017,0.305-0.025,0.456
			c0.366,0.043,0.737,0.148,1.099,0.121c2.569-0.23,5.125-0.528,7.704-0.73c6.859-0.528,13.728-0.512,20.583,0.17
			c2.684,0.27,5.364,0.646,8.04,0.972c-0.013,0.11-0.03,0.216-0.042,0.328c-1.44-0.179-2.876-0.384-4.321-0.536
			c-5.901-0.619-11.802-0.502-17.72,0.033c-4.563,0.418-9.152,0.535-13.72,0.803c-1.994,0.109-3.975,0.284-5.965,0.375
			c-0.516,0.023-1.04-0.159-1.568-0.248c0.008-0.137,0.017-0.273,0.021-0.414c0.337-0.08,0.678-0.177,1.023-0.236
			c1.64-0.287,1.875-0.82,1.389-2.439c-0.558-1.896-1.316-3.839-1.338-5.765c-0.034-2.837,0.976-5.518,2.438-8.011
			c0.963-1.648,1.853-3.271,1.645-5.424c-0.124-1.261,0.797-2.615,1.218-3.94c0.132-0.435,0.256-0.907,0.209-1.343
			c-0.188-1.691-0.452-3.318-0.179-5.088c0.226-1.543,0.294-3.332-0.831-4.782c-0.128-0.169-0.128-0.603-0.004-0.777
			c0.792-1.125,0.814-2.151,0.333-3.512c-0.49-1.402-0.874-2.973,0.094-4.573c0.494-0.83,0.247-2.081,0.456-3.121
			c0.729-3.609,2.203-6.951,3.711-10.293c1.069-2.371,1.9-4.85,2.914-7.252c0.286-0.67,0.856-1.209,1.249-1.84
			c0.469-0.744,0.869-1.535,1.347-2.271c0.157-0.244,0.443-0.42,0.703-0.575c0.963-0.577,2.007-0.913,2.723-1.982
			c0.507-0.747,1.624-0.982,2.688-0.473c0.997,0.473,1.014,1.186,0.759,2.059c-0.056,0.184-0.09,0.378,0.098,0.7
			c0.153-0.226,0.328-0.44,0.456-0.678c0.098-0.18,0.111-0.508,0.243-0.555c1.67-0.594,1.683-2.271,2.348-3.522
			c0.179-0.339,0.511-0.593,0.776-0.883c0.115,0.039,0.234,0.08,0.345,0.121c-0.06,0.622,0.056,1.346-0.221,1.849
			c-0.482,0.865-0.618,1.44,0.366,2.03c0.4,0.247,0.601,0.812,1.15,1.087c-0.106-0.328-0.294-0.647-0.307-0.976
			c-0.026-0.519,0.064-1.04,0.106-1.559c0.413,0.326,0.818,0.649,1.316,1.04c0.869-1.405,2.335-0.942,3.809-0.682
			c0.874,0.156,1.769,0.13,2.752,0.192c-0.818-1.683-0.818-1.683,2.284-2.278c-0.051-0.153-0.145-0.285-0.157-0.428
			c-0.051-0.374-0.158-0.779-0.06-1.124c0.034-0.125,0.648-0.263,0.853-0.143c0.285,0.178,0.477,0.567,0.626,0.895
			c0.115,0.245,0.034,0.587,0.162,0.815c0.456,0.834,4.103,1.926,5.032,1.712c0.886-0.211,1.79-1.27,2.799-0.101
			c0.085,0.101,0.754-0.3,1.155-0.472c0.669-0.285,1.325-0.6,2.002-0.858c0.567-0.221,1.15-0.438,1.755-0.545
			c0.362-0.065,0.767,0.048,1.15,0.13c0.358,0.087,0.695,0.242,1.172,0.41c-0.192-0.659-0.315-1.108-0.545-1.902
			c0.58,0.375,0.831,0.541,1.078,0.708c0.234-0.347,0.477-0.712,0.801-1.199c-1.231,0-2.382,0-3.536,0
			c-0.004-0.135-0.009-0.27-0.013-0.405c1.048-0.076,2.101-0.085,3.132-0.248c1.645-0.265,3.272-0.635,4.878-0.951
			c0.013-0.047-0.064,0.183-0.111,0.33c2.25,0.82,3.767-1.414,5.906-1.447c-1.458,0.667-1.347,2.968-3.319,3.003
			c-0.162,0-0.324,0.073-0.49,0.078c-0.759,0.007-1.513,0.004-2.331,0.177c1.738,0.838,4.853-0.05,4,3.897
			c1.385-1.634,2.748-0.923,4.09-0.747c1.521,0.201,3.046,0.303,4.572,0.383c0.256,0.011,0.648-0.243,0.792-0.485
			c0.49-0.842,0.852-1.339,2.088-0.893c1.146,0.411,2.522,0.182,3.801,0.25c0.238,0.009,0.473,0.069,0.958,0.144
			c-0.405,0.502-0.69,0.865-1.223,1.531c0.801-0.297,1.299-0.475,1.87-0.685c0.039,0.318,0.085,0.631,0.124,0.907
			c1.019,0.226,2.199-1.918,2.821,0.118c1.022,0.175,1.938,0.331,2.846,0.482c0.034-0.101,0.064-0.208,0.089-0.313
			c-0.332-0.067-0.665-0.136-0.997-0.206c0.009-0.072,0.013-0.148,0.013-0.225c0.789,0,1.577,0,2.365,0
			c0.039-0.133,0.09-0.269,0.137-0.4c-0.622-0.239-1.231-0.473-2.083-0.796c1.457-0.195,2.654-0.364,3.852-0.518
			c0.072-0.011,0.158,0.075,0.23,0.066c1.325-0.208,1.325-0.208,1.602,1.176c0.328-0.204,0.626-0.387,0.733-0.455
			c-0.06-0.876-0.102-1.589-0.153-2.31c-0.379-0.623-0.754-1.242,0.188-2.137c0.554,0.875,1.027,1.63,1.61,2.557
			c0.111-0.414,0.175-0.672,0.286-1.084c0.647,0.592,1.219,1.098,1.785,1.619c1.031-1.916,1.764,1.088,2.706,0.047
			c-1.035-0.895-2.126-1.845-3.217-2.788c0.072-0.124,0.153-0.246,0.234-0.368c1.385,0.225,2.987-1.684,4.073,0.912
			c0.333-0.747,0.511-1.146,0.724-1.62c0.405,0.164,0.763,0.312,1.423,0.585c-0.286-0.821-0.477-1.387-0.682-1.971
			c2.172-0.296,2.965,1.109,3.519,2.74c0.682-0.401,0.682-0.401,0.388-1.964c0.678,0.678,1.998,0.49,2.144,1.979
			c0.034,0.349,1.219,0.589,2.041,0.959c0.034,0.132,0.055,0.514,0.204,0.85c0.265,0.634,0.784,0.967,1.389,0.51
			c1.939-1.444,3.647-0.644,5.241,0.535c1.193,0.874,2.241,1.946,3.52,3.083c-0.481,0.018-0.763,0.039-1.112,0.055
			c0.234,0.885,0.456,1.762,0.75,2.897c0.285-0.318,0.622-0.692,1.082-1.204c1.359,1.134,2.901,2.368,4.38,3.671
			c0.656,0.578,1.244,1.264,1.76,1.977c0.166,0.225,0.043,0.7-0.025,1.052c-0.226,1.286,0.303,1.831,1.342,2.57
			c1.206,0.854,2.468,1.854,2.6,3.661c0.375-0.115,0.664-0.199,1.138-0.341c-0.337,0.688-0.602,1.22-0.976,1.977
			c0.579-0.182,0.937-0.288,1.252-0.384c0.567,0.877,1.125,1.732,1.675,2.599c0.822,1.308,0.613,2.797,0.729,4.231
			c0.106,1.457,0.328,2.907,0.396,4.357c0.063,1.477,0.098,2.969-0.052,4.432c-0.2,1.973-0.566,3.934-0.898,5.884
			c-0.243,1.379-0.584,2.736-0.818,4.113c-0.072,0.426,0.081,0.887,0.124,1.327c-1.479,0.854-2.016,2.239-1.39,3.594
			c-0.511,0.618-1.026,1.235-1.602,1.917c-0.209-0.238-0.393-0.4-0.528-0.588c-0.499-0.715-0.968-0.941-1.666-0.148
			c-1.087,1.219-2.701,1.116-4.129,1.342c-1.359,0.217-2.258,1.21-1.688,2.471c0.427,0.938,1.125,1.756,1.803,2.791
			c0.332-0.961,0.853-1.662-0.179-2.406c-0.256-0.19-0.137-0.896-0.184-1.373c0.465,0.124,1.104,0.101,1.354,0.396
			c0.367,0.439,0.452,1.105,0.661,1.668c0.123,0.056,0.247,0.113,0.375,0.164c0.826-1.219,1.657-2.439,2.582-3.797
			c0.098,0.141,0.229,0.555,0.43,0.589c1.287,0.238,2.003,0.979,2.267,2.245c0.401,1.879,0.478,3.877,2.012,5.357
			c0.276,0.268,0.264,0.83,0.413,1.361c-0.656,0-1.172,0-2.147,0c0.784,0.98,1.291,1.767,1.938,2.404
			c0.891,0.877,0.562,1.834,0.38,2.801c-0.052,0.279-0.214,0.539-0.312,0.816c-0.162,0.434-0.307,0.873-0.464,1.312
			c0.473,0.119,0.954,0.234,1.648,0.4c0,0.941,0.06,2.078-0.038,3.205c-0.03,0.301-0.494,0.638-0.835,0.82
			c-0.874,0.459-0.874,0.934-0.107,1.473c0.499,0.355,1.036,0.674,1.479,0.957c0.337-0.405,0.597-0.725,0.856-1.045
			c0.18,0.431,0.486,0.853,0.503,1.291c0.025,0.621-0.222,1.24-0.247,1.862c-0.017,0.328,0.132,0.703,0.319,0.986
			c0.49,0.743,0.354,1.314-0.341,1.825c-1.58,1.155-3.114,2.378-4.737,3.473c-0.537,0.365-1.27,0.431-2.05,0.68
			C239.15,291.924,239.892,292.265,240.642,292.605z M210.284,276.257c1.27-1.202,1.576,0.313,2.343,0.597
			C211.848,276.653,211.063,276.457,210.284,276.257z M215.248,369.052c0.153-0.626,0.357-1.249,0.639-2.214
			c0.566,0.62,1.078,1.188,1.645,1.811c-0.575,0.369-1.026,0.691-1.513,0.944c-0.17,0.091-0.469,0.089-0.643,0
			C215.265,369.537,215.209,369.223,215.248,369.052z M213.851,369.84c0.025-0.043,0.767,0.254,0.763,0.383
			c-0.009,0.77-0.149,1.537-0.234,2.217c-1.062-0.158-2.05-0.273-3.013-0.476c-0.222-0.045-0.588-0.537-0.554-0.573
			c0.285-0.375,0.746-1.046,0.958-0.986C212.641,370.662,213.292,370.619,213.851,369.84z M212.342,368.338
			c-0.357,1.325-0.801,1.538-1.755,0.771C211.238,368.819,211.729,368.608,212.342,368.338z M201.119,397.467
			c-0.166-0.03-0.328-0.051-0.499-0.088c0.119-0.615,0.222-1.229,0.341-1.852c0.158,0.032,0.315,0.059,0.481,0.086
			C201.332,396.232,201.226,396.849,201.119,397.467z M205.277,393.223c-0.166,0.364-0.294,1.019-0.502,1.044
			c-0.903,0.117-1.824,0.054-2.74,0.054c-0.013-0.099-0.025-0.194-0.038-0.293c0.758-0.383,1.5-0.826,2.292-1.122
			C204.549,392.81,204.941,393.107,205.277,393.223z M200.749,389.103c0.388-0.511,0.763-1.035,1.104-1.581
			c0.46-0.734,0.549-0.767,2.522-0.363c-0.426,1.045-0.639,2.108-1.235,2.867c-0.417,0.53-1.338,0.785-2.079,0.909
			C200.467,391.035,200.263,389.729,200.749,389.103z M176.957,484.531c0.92-0.125,1.355,0.166,1.41,0.863
			c0.106,1.441,0.192,2.979-0.938,4.107c-0.545,0.541-1.338,0.828-2.024,1.229c-1.96-0.277-2.59-1.297-1.815-2.93
			c0.051-0.113,0.141-0.227,0.141-0.34C173.731,485.285,175.09,484.766,176.957,484.531z M173.147,408.055
			c0.255,0.145,0.366,0.561,0.537,0.855c-0.302,0.082-0.686,0.328-0.903,0.227c-0.758-0.355-1.538-0.775-1.512-1.807
			C172.001,407.603,172.61,407.756,173.147,408.055z M130.664,426.797c0.477,1.884-0.422,3.292-2.377,3.85
			c-0.435-1.31,0.405-3.76,1.474-4.131C130.016,426.432,130.617,426.631,130.664,426.797z M128.678,422.736
			c0.184-0.221,1.07,0.158,1.641,0.265c0.042,0.146,0.081,0.294,0.128,0.438c-0.635,0.492-1.261,0.984-1.896,1.479
			c-0.141-0.11-0.286-0.217-0.426-0.326C128.286,423.959,128.294,423.187,128.678,422.736z M129.871,438.957
			c1.704,1.262,3.123,2.825,3.523,4.965c0.111,0.581-0.473,1.445-0.993,1.908c-0.239,0.222-1.24-0.008-1.589-0.357
			c-1.555-1.525-2.39-3.465-2.778-5.467C128.043,438.847,129.002,438.314,129.871,438.957z M123.825,412.568
			c0.174,0.422,0.371,0.834,0.477,1.271c0.013,0.07-0.392,0.248-0.609,0.371c-0.153-0.473-0.298-0.949-0.447-1.423
			C123.441,412.716,123.633,412.641,123.825,412.568z M103.68,388.74c0.175-0.106,0.861,0.639,1.095,0.833
			c-0.017,1.458-0.605,1.95-1.521,1.778c-0.49-0.094-0.895-0.628-1.333-0.958C102.491,389.818,103.003,389.141,103.68,388.74z
			 M92.342,397.158c0.132-1.76,0.562-3.496,0.874-5.246c0.141-0.004,0.281-0.004,0.435-0.006c0.072,0.656,0.136,1.312,0.23,1.965
			c0.141,0.928,0.264,1.865,0.469,2.785c0.196,0.844,0.405,1.691,0.75,2.482c0.234,0.526,0.626,1.187,1.099,1.354
			c0.4,0.141,1.21-0.184,1.508-0.562c1.031-1.334,1.964-2.762,2.846-4.199c0.452-0.737,0.75-1.566,1.845-1.221
			c0.806,0.256,1.065,1.277,0.891,2.309c-0.324,1.961-0.396,3.965-0.78,5.914c-0.281,1.451-0.886,2.836-1.342,4.254
			c-0.077,0.229-0.192,0.455-0.239,0.693c-0.481,2.373-0.929,4.755-1.444,7.123c-0.132,0.588-0.426,1.166-0.758,1.682
			c-0.132,0.202-0.592,0.326-0.861,0.266c-0.149-0.037-0.251-0.506-0.285-0.792c-0.051-0.822-0.043-1.649-0.107-2.467
			c-0.017-0.234-0.132-0.55-0.302-0.658c-2.186-1.329-1.751-3.767-2.433-5.733c-0.29-0.844-0.417-1.776-0.856-2.533
			c-0.771-1.34-1.197-2.669-1.104-4.256C92.836,399.273,92.266,398.195,92.342,397.158z M81.976,384.68
			c1.432-2.072,3.234-3.89,4.908-5.781c0.315-0.354,0.805-0.553,1.21-0.822c0.12,0.123,0.23,0.246,0.341,0.366
			c-0.571,1.142-1.168,2.267-1.696,3.43c-1.099,2.416-2.143,4.847-3.242,7.267c-0.179,0.407-0.426,0.82-0.758,1.105
			c-0.775,0.672-1.525,0.436-1.764-0.566C80.557,387.875,81.004,386.088,81.976,384.68z M37.617,476.432
			c0.256-0.822,0.614-1.619,0.993-2.391c0.349-0.674,0.916-1.275,1.691-0.787c0.503,0.326,0.767,1.037,1.15,1.584
			c-0.286,0.541-0.409,0.949-0.669,1.23c-0.443,0.482-0.916,0.986-1.479,1.295c-0.435,0.234-1.031,0.184-1.551,0.26
			C37.703,477.219,37.511,476.779,37.617,476.432z"/>
		<path fill="#38404C" d="M129.547,380.145c0,0.012,0,0.023,0,0.035c0.01-0.002,0.02-0.002,0.03-0.004L129.547,380.145z"/>
	</g>
</g>
</svg>
