<?xml version="1.0" encoding="utf-8"?>
<!-- Generator: Adobe Illustrator 16.0.0, SVG Export Plug-In . SVG Version: 6.00 Build 0)  -->
<!DOCTYPE svg PUBLIC "-//W3C//DTD SVG 1.1//EN" "http://www.w3.org/Graphics/SVG/1.1/DTD/svg11.dtd">
<svg version="1.1" id="Ebene_1" xmlns="http://www.w3.org/2000/svg" xmlns:xlink="http://www.w3.org/1999/xlink" x="0px" y="0px"
	 width="1280px" height="800px" viewBox="0 0 1280 800" enable-background="new 0 0 1280 800" xml:space="preserve">
<text transform="matrix(1.0022 0 0 1 195.7568 31.1118)" fill="#38404C" font-family="'Apercu-Medium'" font-size="14">FROM COLDWAR TO CODEWAR</text>
<g>
	<g>
		<path fill="#38404C" d="M102.156,20.42v-2.364h9.141v1.182l-5.91,10.243h6.186v2.364h-9.751v-1.181l5.97-10.244H102.156z"/>
		<path fill="#38404C" d="M114.113,18.056h8.53v2.364h-5.97v2.896h4.788v2.363h-4.788v3.802h6.167v2.364h-8.727V18.056z"/>
		<path fill="#38404C" d="M131.822,25.679l3.821,6.166h-2.857l-3.704-5.949h-1.338v5.949h-2.562V18.056h5.024
			c2.679,0,4.196,1.557,4.196,3.92C134.402,23.808,133.476,25.187,131.822,25.679z M130.226,23.532c1.084,0,1.616-0.512,1.616-1.556
			s-0.532-1.556-1.616-1.556h-2.481v3.112H130.226z"/>
		<path fill="#38404C" d="M142.913,17.795c2.384,0,4.372,0.926,5.575,3.112c0.611,1.084,0.926,2.405,0.926,3.94
			c0,3.073-1.36,5.319-3.271,6.323c-0.964,0.492-2.029,0.73-3.23,0.73c-2.384,0-4.354-0.927-5.595-3.113
			c-0.611-1.084-0.906-2.404-0.906-3.94c0-3.072,1.359-5.338,3.271-6.304C140.647,18.05,141.711,17.795,142.913,17.795z
			 M142.913,20.158c-1.123,0-2.049,0.394-2.798,1.183c-0.729,0.786-1.103,1.949-1.103,3.506s0.374,2.719,1.103,3.506
			c0.749,0.789,1.675,1.183,2.798,1.183s2.048-0.394,2.776-1.183c0.749-0.787,1.124-1.949,1.124-3.506s-0.375-2.72-1.124-3.506
			C144.961,20.552,144.036,20.158,142.913,20.158z"/>
		<path fill="#38404C" d="M157.073,31.845V18.056h4.314c3.251,0,6.421,2.088,6.421,6.895s-3.17,6.895-6.421,6.895H157.073z
			 M159.634,29.48h0.946c1.201,0,2.186-0.256,3.112-0.886c0.946-0.63,1.516-1.892,1.516-3.645s-0.569-3.014-1.516-3.645
			c-0.927-0.63-1.911-0.886-3.112-0.886h-0.946V29.48z"/>
		<path fill="#38404C" d="M177.678,31.845l-1.004-3.25H172.3l-1.004,3.25h-2.759l4.669-13.789h2.561l4.669,13.789H177.678z
			 M174.486,21.444l-1.458,4.786h2.916L174.486,21.444z"/>
		<path fill="#38404C" d="M179.312,18.056h2.758l2.502,5.358l2.502-5.358h2.758l-3.979,7.919v5.87h-2.562v-5.87L179.312,18.056z"/>
		
			<rect x="141.646" y="18.685" transform="matrix(0.7068 0.7074 -0.7074 0.7068 59.4765 -93.8107)" fill="#38404C" width="2.532" height="12.325"/>
	</g>
</g>
</svg>
